<svg width="378" height="314" viewBox="0 0 378 314" fill="none" xmlns="http://www.w3.org/2000/svg">
<g clip-path="url(#clip0_14_3869)">
<rect width="378" height="314" rx="30" fill="#271A58"/>
<rect x="0.202599" y="0.28958" width="105.961" height="141.448" rx="18.775" transform="matrix(0.984808 0.173648 -0.174411 0.984673 -47.838 -107.011)" fill="#565EEF"/>
<rect x="0.202599" y="0.28958" width="105.961" height="141.448" rx="18.775" transform="matrix(0.984808 0.173648 -0.174411 0.984673 -47.838 -107.011)" stroke="#271A58" stroke-width="0.5"/>
<rect x="0.202599" y="0.28958" width="105.961" height="141.448" rx="18.775" transform="matrix(0.984808 0.173648 -0.174411 0.984673 63.16 -87.4397)" fill="#009EE4"/>
<rect x="0.202599" y="0.28958" width="105.961" height="141.448" rx="18.775" transform="matrix(0.984808 0.173648 -0.174411 0.984673 63.16 -87.4397)" stroke="#271A58" stroke-width="0.5"/>
<text transform="matrix(0.984808 0.173648 -0.174411 0.984673 93.0869 -37.4705)" fill="white" stroke="#271A58" stroke-width="0.511614" xml:space="preserve" style="white-space: pre" font-family="Montserrat" font-size="49.1149" font-weight="800" letter-spacing="0px"><tspan x="0.347061" y="44.6077">?</tspan></text>
<rect x="0.202599" y="0.28958" width="105.961" height="141.448" rx="18.775" transform="matrix(0.984808 0.173648 -0.174411 0.984673 174.157 -67.8677)" fill="#AD61FF"/>
<rect x="0.202599" y="0.28958" width="105.961" height="141.448" rx="18.775" transform="matrix(0.984808 0.173648 -0.174411 0.984673 174.157 -67.8677)" stroke="#271A58" stroke-width="0.5"/>
<text transform="matrix(0.984808 0.173648 -0.174411 0.984673 201.771 -24.9066)" fill="white" stroke="#271A58" stroke-width="0.511614" xml:space="preserve" style="white-space: pre" font-family="Montserrat" font-size="60.88" font-weight="800" letter-spacing="0px"><tspan x="0.33707" y="55.3255">?</tspan></text>
<rect x="0.202599" y="0.28958" width="105.961" height="141.448" rx="18.775" transform="matrix(0.984808 0.173648 -0.174411 0.984673 285.155 -48.2959)" fill="#F25050"/>
<rect x="0.202599" y="0.28958" width="105.961" height="141.448" rx="18.775" transform="matrix(0.984808 0.173648 -0.174411 0.984673 285.155 -48.2959)" stroke="#271A58" stroke-width="0.5"/>
<text transform="matrix(0.984808 0.173648 -0.174411 0.984673 312.769 -5.33478)" fill="white" stroke="#271A58" stroke-width="0.511614" xml:space="preserve" style="white-space: pre" font-family="Montserrat" font-size="60.88" font-weight="800" letter-spacing="0px"><tspan x="0.33707" y="55.3255">?</tspan></text>
<rect x="0.202599" y="0.28958" width="105.961" height="141.448" rx="18.775" transform="matrix(0.984808 0.173648 -0.174411 0.984673 396.153 -28.724)" fill="#009EE4"/>
<rect x="0.202599" y="0.28958" width="105.961" height="141.448" rx="18.775" transform="matrix(0.984808 0.173648 -0.174411 0.984673 396.153 -28.724)" stroke="#271A58" stroke-width="0.5"/>
<rect x="0.202599" y="0.28958" width="105.961" height="141.448" rx="18.775" transform="matrix(0.984808 0.173648 -0.174411 0.984673 -73.5529 38.8257)" fill="#1FA46C"/>
<rect x="0.202599" y="0.28958" width="105.961" height="141.448" rx="18.775" transform="matrix(0.984808 0.173648 -0.174411 0.984673 -73.5529 38.8257)" stroke="#271A58" stroke-width="0.5"/>
<rect x="0.202599" y="0.28958" width="105.961" height="141.448" rx="18.775" transform="matrix(0.984808 0.173648 -0.174411 0.984673 37.4452 58.3976)" fill="#F25050"/>
<rect x="0.202599" y="0.28958" width="105.961" height="141.448" rx="18.775" transform="matrix(0.984808 0.173648 -0.174411 0.984673 37.4452 58.3976)" stroke="#271A58" stroke-width="0.5"/>
<text transform="matrix(0.984808 0.173648 -0.174411 0.984673 65.0586 101.359)" fill="white" stroke="#271A58" stroke-width="0.511614" xml:space="preserve" style="white-space: pre" font-family="Montserrat" font-size="60.88" font-weight="800" letter-spacing="0px"><tspan x="0.33707" y="55.3255">?</tspan></text>
<rect x="0.202599" y="0.28958" width="105.961" height="141.448" rx="18.775" transform="matrix(0.984808 0.173648 -0.174411 0.984673 148.442 77.9696)" fill="#009EE4"/>
<rect x="0.202599" y="0.28958" width="105.961" height="141.448" rx="18.775" transform="matrix(0.984808 0.173648 -0.174411 0.984673 148.442 77.9696)" stroke="#271A58" stroke-width="0.5"/>
<text transform="matrix(0.984808 0.173648 -0.174411 0.984673 178.369 127.939)" fill="white" stroke="#271A58" stroke-width="0.511614" xml:space="preserve" style="white-space: pre" font-family="Montserrat" font-size="49.1149" font-weight="800" letter-spacing="0px"><tspan x="0.347061" y="44.6077">?</tspan></text>
<rect x="0.202599" y="0.28958" width="105.961" height="141.448" rx="18.775" transform="matrix(0.984808 0.173648 -0.174411 0.984673 259.44 97.5414)" fill="#99D100"/>
<rect x="0.202599" y="0.28958" width="105.961" height="141.448" rx="18.775" transform="matrix(0.984808 0.173648 -0.174411 0.984673 259.44 97.5414)" stroke="#271A58" stroke-width="0.5"/>
<text transform="matrix(0.984808 0.173648 -0.174411 0.984673 287.054 140.503)" fill="white" stroke="#271A58" stroke-width="0.511614" xml:space="preserve" style="white-space: pre" font-family="Montserrat" font-size="60.88" font-weight="800" letter-spacing="0px"><tspan x="0.33707" y="55.3255">?</tspan></text>
<rect x="0.202599" y="0.28958" width="105.961" height="141.448" rx="18.775" transform="matrix(0.984808 0.173648 -0.174411 0.984673 370.438 117.113)" fill="#FFC700"/>
<rect x="0.202599" y="0.28958" width="105.961" height="141.448" rx="18.775" transform="matrix(0.984808 0.173648 -0.174411 0.984673 370.438 117.113)" stroke="#271A58" stroke-width="0.5"/>
<rect x="0.202599" y="0.28958" width="105.961" height="141.448" rx="18.775" transform="matrix(0.984808 0.173648 -0.174411 0.984673 -99.2677 184.663)" fill="#009EE4"/>
<rect x="0.202599" y="0.28958" width="105.961" height="141.448" rx="18.775" transform="matrix(0.984808 0.173648 -0.174411 0.984673 -99.2677 184.663)" stroke="#271A58" stroke-width="0.5"/>
<rect x="0.202599" y="0.28958" width="105.961" height="141.448" rx="18.775" transform="matrix(0.984808 0.173648 -0.174411 0.984673 11.7303 204.235)" fill="#99D100"/>
<rect x="0.202599" y="0.28958" width="105.961" height="141.448" rx="18.775" transform="matrix(0.984808 0.173648 -0.174411 0.984673 11.7303 204.235)" stroke="#271A58" stroke-width="0.5"/>
<text transform="matrix(0.984808 0.173648 -0.174411 0.984673 39.3438 247.196)" fill="white" stroke="#271A58" stroke-width="0.511614" xml:space="preserve" style="white-space: pre" font-family="Montserrat" font-size="60.88" font-weight="800" letter-spacing="0px"><tspan x="0.33707" y="55.3255">?</tspan></text>
<rect x="0.202599" y="0.28958" width="105.961" height="141.448" rx="18.775" transform="matrix(0.984808 0.173648 -0.174411 0.984673 122.728 223.807)" fill="#009EE4"/>
<rect x="0.202599" y="0.28958" width="105.961" height="141.448" rx="18.775" transform="matrix(0.984808 0.173648 -0.174411 0.984673 122.728 223.807)" stroke="#271A58" stroke-width="0.5"/>
<text transform="matrix(0.984808 0.173648 -0.174411 0.984673 150.342 266.768)" fill="white" stroke="#271A58" stroke-width="0.511614" xml:space="preserve" style="white-space: pre" font-family="Montserrat" font-size="60.88" font-weight="800" letter-spacing="0px"><tspan x="0.33707" y="55.3255">?</tspan></text>
<rect x="0.202599" y="0.28958" width="105.961" height="141.448" rx="18.775" transform="matrix(0.984808 0.173648 -0.174411 0.984673 233.725 243.379)" fill="#AD61FF"/>
<rect x="0.202599" y="0.28958" width="105.961" height="141.448" rx="18.775" transform="matrix(0.984808 0.173648 -0.174411 0.984673 233.725 243.379)" stroke="#271A58" stroke-width="0.5"/>
<text transform="matrix(0.984808 0.173648 -0.174411 0.984673 263.652 293.348)" fill="white" stroke="#271A58" stroke-width="0.511614" xml:space="preserve" style="white-space: pre" font-family="Montserrat" font-size="49.1149" font-weight="800" letter-spacing="0px"><tspan x="0.347061" y="44.6077">?</tspan></text>
<rect x="0.202599" y="0.28958" width="105.961" height="141.448" rx="18.775" transform="matrix(0.984808 0.173648 -0.174411 0.984673 344.724 262.951)" fill="#565EEF"/>
<rect x="0.202599" y="0.28958" width="105.961" height="141.448" rx="18.775" transform="matrix(0.984808 0.173648 -0.174411 0.984673 344.724 262.951)" stroke="#271A58" stroke-width="0.5"/>
<g filter="url(#filter0_d_14_3869)">
<rect width="138.133" height="184.177" rx="19.025" transform="matrix(0.984808 0.173648 -0.174411 0.984673 136.538 54.3775)" fill="#FFC700"/>
<rect x="-0.202599" y="-0.28958" width="138.633" height="184.677" rx="19.275" transform="matrix(0.984808 0.173648 -0.174411 0.984673 136.485 54.4083)" stroke="#271A58" stroke-width="0.5"/>
<rect x="-0.202599" y="-0.28958" width="138.633" height="184.677" rx="19.275" transform="matrix(0.984808 0.173648 -0.174411 0.984673 136.485 54.4083)" stroke="black" stroke-opacity="0.2" stroke-width="0.5"/>
</g>
<text transform="matrix(0.984808 0.173648 -0.174411 0.984673 156.008 105.922)" fill="white" xml:space="preserve" style="white-space: pre" font-family="Montserrat" font-size="81.1733" font-weight="800" letter-spacing="0px"><tspan x="0.413334" y="79.4045">&#x270a;</tspan></text>
</g>
<defs>
<filter id="filter0_d_14_3869" x="62.4348" y="27.6622" width="252.119" height="289.303" filterUnits="userSpaceOnUse" color-interpolation-filters="sRGB">
<feFlood flood-opacity="0" result="BackgroundImageFix"/>
<feColorMatrix in="SourceAlpha" type="matrix" values="0 0 0 0 0 0 0 0 0 0 0 0 0 0 0 0 0 0 127 0" result="hardAlpha"/>
<feMorphology radius="9.15954" operator="erode" in="SourceAlpha" result="effect1_dropShadow_14_3869"/>
<feOffset dy="15.2659"/>
<feGaussianBlur stdDeviation="25.5704"/>
<feComposite in2="hardAlpha" operator="out"/>
<feColorMatrix type="matrix" values="0 0 0 0 0 0 0 0 0 0 0 0 0 0 0 0 0 0 0.3 0"/>
<feBlend mode="normal" in2="BackgroundImageFix" result="effect1_dropShadow_14_3869"/>
<feBlend mode="normal" in="SourceGraphic" in2="effect1_dropShadow_14_3869" result="shape"/>
</filter>
<clipPath id="clip0_14_3869">
<rect width="378" height="314" rx="30" fill="white"/>
</clipPath>
</defs>
</svg>
