<svg width="448" height="622" viewBox="0 0 448 622" fill="none" xmlns="http://www.w3.org/2000/svg">
<g filter="url(#filter0_d_14_3868)">
<rect x="35" y="23" width="378" height="551" rx="30" fill="white" shape-rendering="crispEdges"/>
<g clip-path="url(#clip0_14_3868)">
<rect x="35" y="23" width="378" height="314" rx="30" fill="#271A58"/>
<rect x="0.202599" y="0.28958" width="105.961" height="141.448" rx="18.775" transform="matrix(0.984808 0.173648 -0.174411 0.984673 -12.838 -84.0115)" fill="#565EEF"/>
<rect x="0.202599" y="0.28958" width="105.961" height="141.448" rx="18.775" transform="matrix(0.984808 0.173648 -0.174411 0.984673 -12.838 -84.0115)" stroke="#271A58" stroke-width="0.5"/>
<rect x="0.202599" y="0.28958" width="105.961" height="141.448" rx="18.775" transform="matrix(0.984808 0.173648 -0.174411 0.984673 98.16 -64.4397)" fill="#009EE4"/>
<rect x="0.202599" y="0.28958" width="105.961" height="141.448" rx="18.775" transform="matrix(0.984808 0.173648 -0.174411 0.984673 98.16 -64.4397)" stroke="#271A58" stroke-width="0.5"/>
<mask id="path-6-outside-1_14_3868" maskUnits="userSpaceOnUse" x="119.079" y="-5.78205" width="35.9974" height="41.6423" fill="black">
<rect fill="white" x="119.079" y="-5.78205" width="35.9974" height="41.6423"/>
<path d="M133.019 19.3758C133.304 17.7638 133.893 16.5044 134.785 15.5978C135.683 14.6589 136.921 13.6801 138.498 12.6615C139.587 11.9559 140.409 11.3527 140.963 10.852C141.523 10.319 141.863 9.71396 141.983 9.03689C142.148 8.10189 141.877 7.28926 141.168 6.59901C140.497 5.88221 139.532 5.41293 138.275 5.19119C136.985 4.96375 135.754 5.06251 134.581 5.48747C133.441 5.91811 132.451 6.62468 131.612 7.60717L125.09 2.46742C126.812 0.443637 128.993 -0.983743 131.635 -1.81472C134.276 -2.6457 137.305 -2.75985 140.723 -2.15715C144.561 -1.48054 147.497 -0.131506 149.534 1.88994C151.608 3.88484 152.391 6.31703 151.882 9.18652C151.648 10.5084 151.214 11.6454 150.58 12.5976C149.951 13.5174 149.252 14.2752 148.481 14.8708C147.749 15.4398 146.805 16.0715 145.652 16.7657C144.39 17.5074 143.441 18.1713 142.805 18.7574C142.175 19.3112 141.783 20.0234 141.628 20.8939L133.019 19.3758ZM135.062 32.9025C133.482 32.6239 132.262 31.91 131.401 30.7608C130.546 29.5794 130.245 28.2794 130.496 26.8607C130.753 25.4099 131.464 24.3051 132.629 23.5463C133.827 22.7933 135.232 22.5589 136.844 22.8432C138.456 23.1275 139.695 23.8281 140.562 24.945C141.428 26.062 141.733 27.3459 141.476 28.7967C141.224 30.2154 140.494 31.3335 139.285 32.151C138.082 32.9363 136.674 33.1868 135.062 32.9025Z"/>
</mask>
<path d="M133.019 19.3758C133.304 17.7638 133.893 16.5044 134.785 15.5978C135.683 14.6589 136.921 13.6801 138.498 12.6615C139.587 11.9559 140.409 11.3527 140.963 10.852C141.523 10.319 141.863 9.71396 141.983 9.03689C142.148 8.10189 141.877 7.28926 141.168 6.59901C140.497 5.88221 139.532 5.41293 138.275 5.19119C136.985 4.96375 135.754 5.06251 134.581 5.48747C133.441 5.91811 132.451 6.62468 131.612 7.60717L125.09 2.46742C126.812 0.443637 128.993 -0.983743 131.635 -1.81472C134.276 -2.6457 137.305 -2.75985 140.723 -2.15715C144.561 -1.48054 147.497 -0.131506 149.534 1.88994C151.608 3.88484 152.391 6.31703 151.882 9.18652C151.648 10.5084 151.214 11.6454 150.58 12.5976C149.951 13.5174 149.252 14.2752 148.481 14.8708C147.749 15.4398 146.805 16.0715 145.652 16.7657C144.39 17.5074 143.441 18.1713 142.805 18.7574C142.175 19.3112 141.783 20.0234 141.628 20.8939L133.019 19.3758ZM135.062 32.9025C133.482 32.6239 132.262 31.91 131.401 30.7608C130.546 29.5794 130.245 28.2794 130.496 26.8607C130.753 25.4099 131.464 24.3051 132.629 23.5463C133.827 22.7933 135.232 22.5589 136.844 22.8432C138.456 23.1275 139.695 23.8281 140.562 24.945C141.428 26.062 141.733 27.3459 141.476 28.7967C141.224 30.2154 140.494 31.3335 139.285 32.151C138.082 32.9363 136.674 33.1868 135.062 32.9025Z" fill="white"/>
<path d="M133.019 19.3758L132.515 19.287L132.426 19.7908L132.93 19.8796L133.019 19.3758ZM134.785 15.5978L135.15 15.9564L135.155 15.9511L134.785 15.5978ZM138.498 12.6615L138.775 13.0912L138.776 13.0908L138.498 12.6615ZM140.963 10.852L141.306 11.2315L141.316 11.2223L140.963 10.852ZM141.168 6.59901L140.794 6.94873L140.802 6.95738L140.811 6.96564L141.168 6.59901ZM134.581 5.48747L134.407 5.00652L134.4 5.00894L134.581 5.48747ZM131.612 7.60717L131.295 8.00899L131.681 8.31346L132.001 7.93917L131.612 7.60717ZM125.09 2.46742L124.7 2.13615L124.356 2.54069L124.773 2.86924L125.09 2.46742ZM131.635 -1.81472L131.788 -1.32678L131.788 -1.32678L131.635 -1.81472ZM149.534 1.88994L149.173 2.2531L149.179 2.25871L149.534 1.88994ZM150.58 12.5976L151.002 12.8859L151.006 12.8809L150.58 12.5976ZM148.481 14.8708L148.168 14.4662L148.168 14.4669L148.481 14.8708ZM145.652 16.7657L145.911 17.2067L145.915 17.204L145.652 16.7657ZM142.805 18.7574L143.143 19.1416L143.152 19.1334L142.805 18.7574ZM141.628 20.8939L141.539 21.3977L142.043 21.4866L142.132 20.9828L141.628 20.8939ZM131.401 30.7608L130.987 31.0609L130.992 31.0676L131.401 30.7608ZM132.629 23.5463L132.357 23.1133L132.35 23.1177L132.629 23.5463ZM140.562 24.945L140.157 25.2587L140.562 24.945ZM139.285 32.151L139.565 32.5793L139.572 32.5746L139.285 32.151ZM133.523 19.4647C133.795 17.9254 134.349 16.7706 135.15 15.9564L134.421 15.2392C133.438 16.2382 132.813 17.6022 132.515 19.287L133.523 19.4647ZM135.155 15.9511C136.016 15.0509 137.218 14.0968 138.775 13.0911L138.22 12.2319C136.623 13.2635 135.35 14.2669 134.416 15.2444L135.155 15.9511ZM138.776 13.0908C139.874 12.3794 140.722 11.759 141.306 11.2314L140.62 10.4726C140.096 10.9464 139.3 11.5324 138.22 12.2323L138.776 13.0908ZM141.316 11.2223C141.945 10.6238 142.345 9.9235 142.487 9.12573L141.479 8.94805C141.38 9.50443 141.101 10.0142 140.61 10.4816L141.316 11.2223ZM142.487 9.12573C142.683 8.01565 142.349 7.03477 141.525 6.23239L140.811 6.96564C141.404 7.54376 141.614 8.18813 141.479 8.94805L142.487 9.12573ZM141.541 6.2493C140.775 5.43041 139.698 4.92261 138.364 4.68741L138.185 5.69496C139.367 5.90326 140.218 6.33401 140.794 6.94873L141.541 6.2493ZM138.364 4.68741C136.99 4.44524 135.668 4.5495 134.407 5.00656L134.755 5.96838C135.839 5.57553 136.979 5.48227 138.185 5.69496L138.364 4.68741ZM134.4 5.00894C133.174 5.47191 132.114 6.23111 131.223 7.27517L132.001 7.93917C132.787 7.01824 133.707 6.36431 134.761 5.966L134.4 5.00894ZM131.929 7.20535L125.407 2.0656L124.773 2.86924L131.295 8.00899L131.929 7.20535ZM125.48 2.79869C127.136 0.851513 129.235 -0.523456 131.788 -1.32678L131.481 -2.30266C128.752 -1.44403 126.487 0.0357614 124.7 2.13615L125.48 2.79869ZM131.788 -1.32678C134.333 -2.12761 137.277 -2.24535 140.634 -1.65338L140.813 -2.66092C137.334 -3.27434 134.218 -3.16379 131.481 -2.30266L131.788 -1.32678ZM140.634 -1.65338C144.405 -0.988544 147.233 0.327144 149.173 2.25305L149.894 1.52683C147.762 -0.590157 144.717 -1.97253 140.813 -2.66092L140.634 -1.65338ZM149.179 2.25871C151.128 4.13373 151.857 6.39358 151.378 9.09768L152.386 9.27536C152.924 6.24048 152.087 3.63595 149.888 1.52118L149.179 2.25871ZM151.378 9.09768C151.155 10.362 150.743 11.4302 150.154 12.3142L151.006 12.8809C151.685 11.8607 152.142 10.6548 152.386 9.27536L151.378 9.09768ZM150.157 12.3092C149.555 13.1911 148.891 13.9077 148.168 14.4662L148.794 15.2754C149.613 14.6427 150.348 13.8438 151.002 12.8859L150.157 12.3092ZM148.168 14.4669C147.456 15.0193 146.531 15.6395 145.388 16.3275L145.915 17.204C147.079 16.5035 148.041 15.8603 148.795 15.2746L148.168 14.4669ZM145.393 16.3248C144.118 17.0741 143.133 17.7594 142.458 18.3814L143.152 19.1334C143.749 18.5831 144.662 17.9407 145.911 17.2067L145.393 16.3248ZM142.467 18.3733C141.745 19.0082 141.298 19.8269 141.125 20.8051L142.132 20.9828C142.267 20.22 142.605 19.6142 143.143 19.1415L142.467 18.3733ZM141.718 20.3902L133.108 18.8721L132.93 19.8796L141.539 21.3977L141.718 20.3902ZM135.151 32.3987C133.683 32.1398 132.584 31.4868 131.811 30.454L130.992 31.0676C131.939 32.3332 133.281 33.108 134.973 33.4063L135.151 32.3987ZM131.816 30.4608C131.041 29.3899 130.773 28.2299 131 26.9496L129.992 26.7719C129.716 28.3288 130.052 29.7688 130.987 31.0608L131.816 30.4608ZM131 26.9496C131.234 25.6287 131.87 24.6513 132.908 23.9749L132.35 23.1177C131.058 23.9588 130.272 25.191 129.992 26.7719L131 26.9496ZM132.901 23.9793C133.975 23.3044 135.246 23.081 136.755 23.3469L136.933 22.3394C135.217 22.0368 133.679 22.2821 132.357 23.1134L132.901 23.9793ZM136.755 23.3469C138.263 23.6129 139.381 24.2577 140.157 25.2587L140.966 24.6314C140.01 23.3985 138.649 22.642 136.933 22.3394L136.755 23.3469ZM140.157 25.2587C140.931 26.2562 141.205 27.3925 140.972 28.7079L141.979 28.8856C142.26 27.2993 141.925 25.8677 140.966 24.6314L140.157 25.2587ZM140.972 28.7079C140.745 29.9882 140.095 30.9863 138.999 31.7273L139.572 32.5746C140.894 31.6806 141.704 30.4425 141.979 28.8856L140.972 28.7079ZM139.006 31.7227C137.927 32.4269 136.655 32.6638 135.151 32.3987L134.973 33.4063C136.694 33.7097 138.237 33.4457 139.565 32.5793L139.006 31.7227Z" fill="#271A58" mask="url(#path-6-outside-1_14_3868)"/>
<rect x="0.202599" y="0.28958" width="105.961" height="141.448" rx="18.775" transform="matrix(0.984808 0.173648 -0.174411 0.984673 209.157 -44.8677)" fill="#AD61FF"/>
<rect x="0.202599" y="0.28958" width="105.961" height="141.448" rx="18.775" transform="matrix(0.984808 0.173648 -0.174411 0.984673 209.157 -44.8677)" stroke="#271A58" stroke-width="0.5"/>
<mask id="path-9-outside-2_14_3868" maskUnits="userSpaceOnUse" x="225.844" y="8.75117" width="43.476" height="51.5463" fill="black">
<rect fill="white" x="225.844" y="8.75117" width="43.476" height="51.5463"/>
<path d="M242.928 39.2637C243.282 37.2655 244.012 35.7045 245.118 34.5806C246.231 33.4169 247.764 32.2037 249.719 30.9411C251.07 30.0664 252.088 29.3187 252.775 28.698C253.469 28.0374 253.891 27.2874 254.039 26.4482C254.245 25.2892 253.908 24.2819 253.029 23.4263C252.197 22.5378 251.002 21.9561 249.443 21.6812C247.844 21.3993 246.318 21.5217 244.864 22.0485C243.451 22.5823 242.224 23.4581 241.184 24.676L233.1 18.305C235.234 15.7965 237.938 14.0272 241.212 12.9971C244.486 11.9671 248.241 11.8256 252.478 12.5727C257.235 13.4114 260.875 15.0835 263.399 17.5892C265.97 20.062 266.94 23.0768 266.31 26.6336C266.02 28.2722 265.482 29.6815 264.696 30.8617C263.917 32.002 263.05 32.9412 262.094 33.6795C261.186 34.3848 260.017 35.1678 258.587 36.0284C257.023 36.9477 255.846 37.7706 255.058 38.4971C254.277 39.1836 253.791 40.0664 253.6 41.1455L242.928 39.2637ZM245.461 56.0306C243.502 55.6852 241.99 54.8003 240.923 53.3759C239.863 51.9114 239.489 50.3 239.801 48.5415C240.119 46.7431 241.001 45.3737 242.445 44.4332C243.929 43.4998 245.671 43.2092 247.669 43.5616C249.668 43.914 251.204 44.7825 252.278 46.167C253.352 47.5515 253.729 49.1429 253.411 50.9413C253.099 52.6998 252.194 54.0857 250.696 55.099C249.204 56.0725 247.459 56.383 245.461 56.0306Z"/>
</mask>
<path d="M242.928 39.2637C243.282 37.2655 244.012 35.7045 245.118 34.5806C246.231 33.4169 247.764 32.2037 249.719 30.9411C251.07 30.0664 252.088 29.3187 252.775 28.698C253.469 28.0374 253.891 27.2874 254.039 26.4482C254.245 25.2892 253.908 24.2819 253.029 23.4263C252.197 22.5378 251.002 21.9561 249.443 21.6812C247.844 21.3993 246.318 21.5217 244.864 22.0485C243.451 22.5823 242.224 23.4581 241.184 24.676L233.1 18.305C235.234 15.7965 237.938 14.0272 241.212 12.9971C244.486 11.9671 248.241 11.8256 252.478 12.5727C257.235 13.4114 260.875 15.0835 263.399 17.5892C265.97 20.062 266.94 23.0768 266.31 26.6336C266.02 28.2722 265.482 29.6815 264.696 30.8617C263.917 32.002 263.05 32.9412 262.094 33.6795C261.186 34.3848 260.017 35.1678 258.587 36.0284C257.023 36.9477 255.846 37.7706 255.058 38.4971C254.277 39.1836 253.791 40.0664 253.6 41.1455L242.928 39.2637ZM245.461 56.0306C243.502 55.6852 241.99 54.8003 240.923 53.3759C239.863 51.9114 239.489 50.3 239.801 48.5415C240.119 46.7431 241.001 45.3737 242.445 44.4332C243.929 43.4998 245.671 43.2092 247.669 43.5616C249.668 43.914 251.204 44.7825 252.278 46.167C253.352 47.5515 253.729 49.1429 253.411 50.9413C253.099 52.6998 252.194 54.0857 250.696 55.099C249.204 56.0725 247.459 56.383 245.461 56.0306Z" fill="white"/>
<path d="M242.928 39.2637L242.424 39.1749L242.335 39.6786L242.839 39.7675L242.928 39.2637ZM245.118 34.5806L245.482 34.9393L245.487 34.934L245.118 34.5806ZM249.719 30.9411L249.997 31.3707L249.997 31.3703L249.719 30.9411ZM252.775 28.698L253.118 29.0776L253.128 29.0684L252.775 28.698ZM253.029 23.4263L252.655 23.776L252.663 23.7847L252.672 23.7929L253.029 23.4263ZM244.864 22.0485L244.69 21.5675L244.684 21.57L244.864 22.0485ZM241.184 24.676L240.867 25.0778L241.253 25.3822L241.573 25.008L241.184 24.676ZM233.1 18.305L232.71 17.9737L232.366 18.3783L232.783 18.7068L233.1 18.305ZM241.212 12.9971L241.365 13.4851L241.212 12.9971ZM263.399 17.5892L263.038 17.9524L263.044 17.958L263.399 17.5892ZM264.696 30.8617L265.118 31.1501L265.121 31.1451L264.696 30.8617ZM262.094 33.6795L261.782 33.2749L261.781 33.2756L262.094 33.6795ZM258.587 36.0284L258.846 36.4693L258.851 36.4666L258.587 36.0284ZM255.058 38.4971L255.396 38.8813L255.405 38.8731L255.058 38.4971ZM253.6 41.1455L253.511 41.6492L254.015 41.7381L254.104 41.2343L253.6 41.1455ZM240.923 53.3759L240.508 53.6759L240.513 53.6826L240.923 53.3759ZM242.445 44.4332L242.173 44.0002L242.166 44.0046L242.445 44.4332ZM252.278 46.167L251.873 46.4806L252.278 46.167ZM250.696 55.099L250.975 55.5274L250.982 55.5227L250.696 55.099ZM243.432 39.3525C243.773 37.4271 244.467 35.9706 245.482 34.9392L244.753 34.222C243.556 35.4383 242.791 37.1039 242.424 39.1749L243.432 39.3525ZM245.487 34.934C246.563 33.8088 248.062 32.6203 249.997 31.3707L249.442 30.5114C247.467 31.7871 245.898 33.0249 244.748 34.2273L245.487 34.934ZM249.997 31.3703C251.356 30.4899 252.401 29.725 253.118 29.0774L252.432 28.3186C251.775 28.9124 250.783 29.6429 249.441 30.5118L249.997 31.3703ZM253.128 29.0684C253.891 28.3422 254.373 27.4969 254.543 26.537L253.535 26.3593C253.408 27.0779 253.048 27.7326 252.422 28.3277L253.128 29.0684ZM254.543 26.537C254.779 25.2029 254.38 24.0274 253.386 23.0597L252.672 23.7929C253.435 24.5364 253.71 25.3754 253.535 26.3593L254.543 26.537ZM253.403 23.0766C252.475 22.086 251.167 21.4658 249.532 21.1775L249.354 22.185C250.836 22.4464 251.919 22.9896 252.655 23.776L253.403 23.0766ZM249.532 21.1775C247.85 20.8808 246.232 21.0087 244.69 21.5676L245.038 22.5294C246.403 22.0348 247.838 21.9178 249.354 22.185L249.532 21.1775ZM244.684 21.57C243.185 22.1361 241.888 23.0645 240.795 24.344L241.573 25.008C242.56 23.8517 243.717 23.0285 245.045 22.527L244.684 21.57ZM241.501 24.2741L233.417 17.9032L232.783 18.7068L240.867 25.0778L241.501 24.2741ZM233.49 18.6363C235.559 16.2043 238.18 14.4874 241.365 13.4851L241.059 12.5092C237.697 13.5669 234.91 15.3886 232.71 17.9737L233.49 18.6363ZM241.365 13.4851C244.543 12.4852 248.213 12.3401 252.389 13.0764L252.567 12.0689C248.27 11.3111 244.429 11.449 241.059 12.5092L241.365 13.4851ZM252.389 13.0764C257.079 13.9034 260.61 15.5422 263.038 17.9523L263.759 17.2261C261.139 14.6249 257.391 12.9194 252.567 12.0689L252.389 13.0764ZM263.044 17.958C265.49 20.3109 266.407 23.1533 265.806 26.5448L266.814 26.7225C267.473 23.0002 266.449 19.8131 263.754 17.2204L263.044 17.958ZM265.806 26.5448C265.526 28.1258 265.011 29.4663 264.27 30.5784L265.121 31.1451C265.953 29.8968 266.514 28.4186 266.814 26.7225L265.806 26.5448ZM264.273 30.5734C263.52 31.6757 262.689 32.5737 261.782 33.2749L262.407 34.0841C263.41 33.3087 264.313 32.3283 265.118 31.1501L264.273 30.5734ZM261.781 33.2756C260.894 33.9644 259.743 34.7358 258.323 35.5901L258.851 36.4666C260.291 35.5998 261.479 34.8053 262.408 34.0834L261.781 33.2756ZM258.328 35.5874C256.751 36.5144 255.539 37.3588 254.712 38.1211L255.405 38.8731C256.154 38.1825 257.295 37.381 258.846 36.4693L258.328 35.5874ZM254.721 38.113C253.847 38.8806 253.306 39.8699 253.096 41.0566L254.104 41.2343C254.276 40.263 254.707 39.4866 255.396 38.8812L254.721 38.113ZM253.689 40.6417L243.017 38.7599L242.839 39.7675L253.511 41.6492L253.689 40.6417ZM245.55 55.5268C243.703 55.2012 242.312 54.3771 241.333 53.0691L240.513 53.6826C241.667 55.2236 243.301 56.1693 245.372 56.5343L245.55 55.5268ZM241.338 53.0758C240.358 51.722 240.018 50.2505 240.305 48.6304L239.297 48.4527C238.961 50.3494 239.369 52.1009 240.508 53.6759L241.338 53.0758ZM240.305 48.6304C240.6 46.962 241.406 45.7199 242.724 44.8618L242.166 44.0046C240.595 45.0275 239.638 46.5243 239.297 48.4527L240.305 48.6304ZM242.717 44.8661C244.077 44.0109 245.686 43.7313 247.58 44.0654L247.759 43.0578C245.656 42.6871 243.782 42.9886 242.173 44.0002L242.717 44.8661ZM247.58 44.0654C249.475 44.3994 250.89 45.2121 251.873 46.4806L252.682 45.8533C251.518 44.3528 249.861 43.4286 247.759 43.0578L247.58 44.0654ZM251.873 46.4806C252.854 47.7457 253.201 49.1895 252.907 50.8525L253.914 51.0302C254.257 49.0963 253.849 47.3572 252.682 45.8533L251.873 46.4806ZM252.907 50.8525C252.62 52.4726 251.795 53.7385 250.409 54.6754L250.982 55.5227C252.594 54.4328 253.578 52.9269 253.914 51.0302L252.907 50.8525ZM250.416 54.6708C249.049 55.5631 247.44 55.86 245.55 55.5268L245.372 56.5343C247.479 56.9059 249.359 56.5818 250.975 55.5273L250.416 54.6708Z" fill="#271A58" mask="url(#path-9-outside-2_14_3868)"/>
<rect x="0.202599" y="0.28958" width="105.961" height="141.448" rx="18.775" transform="matrix(0.984808 0.173648 -0.174411 0.984673 320.155 -25.2959)" fill="#F25050"/>
<rect x="0.202599" y="0.28958" width="105.961" height="141.448" rx="18.775" transform="matrix(0.984808 0.173648 -0.174411 0.984673 320.155 -25.2959)" stroke="#271A58" stroke-width="0.5"/>
<mask id="path-12-outside-3_14_3868" maskUnits="userSpaceOnUse" x="336.842" y="28.323" width="43.476" height="51.5463" fill="black">
<rect fill="white" x="336.842" y="28.323" width="43.476" height="51.5463"/>
<path d="M353.926 58.8355C354.28 56.8373 355.01 55.2763 356.116 54.1524C357.229 52.9887 358.763 51.7755 360.717 50.5129C362.068 49.6382 363.086 48.8905 363.773 48.2698C364.467 47.6092 364.889 46.8592 365.037 46.02C365.243 44.861 364.906 43.8537 364.027 42.9981C363.195 42.1096 362 41.5279 360.441 41.253C358.842 40.9711 357.316 41.0936 355.862 41.6203C354.449 42.1541 353.222 43.0299 352.182 44.2478L344.098 37.8768C346.232 35.3683 348.936 33.599 352.21 32.5689C355.484 31.5389 359.239 31.3974 363.476 32.1445C368.233 32.9832 371.873 34.6553 374.397 37.161C376.968 39.6338 377.938 42.6486 377.308 46.2054C377.018 47.844 376.48 49.2533 375.694 50.4335C374.915 51.5738 374.048 52.513 373.092 53.2513C372.184 53.9566 371.015 54.7396 369.585 55.6002C368.021 56.5195 366.845 57.3424 366.056 58.0689C365.275 58.7554 364.789 59.6382 364.598 60.7173L353.926 58.8355ZM356.459 75.6024C354.5 75.257 352.988 74.3721 351.921 72.9477C350.861 71.4832 350.487 69.8718 350.799 68.1134C351.117 66.3149 351.999 64.9455 353.443 64.005C354.927 63.0716 356.669 62.781 358.667 63.1334C360.666 63.4858 362.202 64.3543 363.276 65.7388C364.35 67.1233 364.727 68.7147 364.409 70.5131C364.097 72.2716 363.192 73.6575 361.694 74.6709C360.202 75.6443 358.457 75.9548 356.459 75.6024Z"/>
</mask>
<path d="M353.926 58.8355C354.28 56.8373 355.01 55.2763 356.116 54.1524C357.229 52.9887 358.763 51.7755 360.717 50.5129C362.068 49.6382 363.086 48.8905 363.773 48.2698C364.467 47.6092 364.889 46.8592 365.037 46.02C365.243 44.861 364.906 43.8537 364.027 42.9981C363.195 42.1096 362 41.5279 360.441 41.253C358.842 40.9711 357.316 41.0936 355.862 41.6203C354.449 42.1541 353.222 43.0299 352.182 44.2478L344.098 37.8768C346.232 35.3683 348.936 33.599 352.21 32.5689C355.484 31.5389 359.239 31.3974 363.476 32.1445C368.233 32.9832 371.873 34.6553 374.397 37.161C376.968 39.6338 377.938 42.6486 377.308 46.2054C377.018 47.844 376.48 49.2533 375.694 50.4335C374.915 51.5738 374.048 52.513 373.092 53.2513C372.184 53.9566 371.015 54.7396 369.585 55.6002C368.021 56.5195 366.845 57.3424 366.056 58.0689C365.275 58.7554 364.789 59.6382 364.598 60.7173L353.926 58.8355ZM356.459 75.6024C354.5 75.257 352.988 74.3721 351.921 72.9477C350.861 71.4832 350.487 69.8718 350.799 68.1134C351.117 66.3149 351.999 64.9455 353.443 64.005C354.927 63.0716 356.669 62.781 358.667 63.1334C360.666 63.4858 362.202 64.3543 363.276 65.7388C364.35 67.1233 364.727 68.7147 364.409 70.5131C364.097 72.2716 363.192 73.6575 361.694 74.6709C360.202 75.6443 358.457 75.9548 356.459 75.6024Z" fill="white"/>
<path d="M353.926 58.8355L353.422 58.7467L353.333 59.2504L353.837 59.3393L353.926 58.8355ZM356.116 54.1524L356.48 54.5111L356.485 54.5058L356.116 54.1524ZM360.717 50.5129L360.995 50.9425L360.995 50.9421L360.717 50.5129ZM363.773 48.2698L364.116 48.6494L364.126 48.6402L363.773 48.2698ZM364.027 42.9981L363.653 43.3478L363.661 43.3565L363.67 43.3647L364.027 42.9981ZM355.862 41.6203L355.688 41.1394L355.682 41.1418L355.862 41.6203ZM352.182 44.2478L351.865 44.6496L352.251 44.954L352.571 44.5798L352.182 44.2478ZM344.098 37.8768L343.708 37.5456L343.364 37.9501L343.781 38.2786L344.098 37.8768ZM352.21 32.5689L352.364 33.0569L352.21 32.5689ZM374.397 37.161L374.036 37.5242L374.042 37.5298L374.397 37.161ZM375.694 50.4335L376.116 50.7219L376.12 50.7169L375.694 50.4335ZM373.092 53.2513L372.78 52.8467L372.779 52.8474L373.092 53.2513ZM369.585 55.6002L369.844 56.0411L369.849 56.0384L369.585 55.6002ZM366.056 58.0689L366.394 58.4531L366.403 58.4449L366.056 58.0689ZM364.598 60.7173L364.509 61.2211L365.013 61.3099L365.102 60.8061L364.598 60.7173ZM351.921 72.9477L351.506 73.2477L351.511 73.2544L351.921 72.9477ZM353.443 64.005L353.171 63.572L353.164 63.5764L353.443 64.005ZM363.276 65.7388L362.871 66.0524L363.276 65.7388ZM361.694 74.6709L361.973 75.0992L361.98 75.0945L361.694 74.6709ZM354.43 58.9244C354.771 56.9989 355.465 55.5425 356.48 54.5111L355.751 53.7938C354.554 55.0101 353.789 56.6757 353.422 58.7467L354.43 58.9244ZM356.485 54.5058C357.561 53.3806 359.06 52.1921 360.995 50.9425L360.44 50.0832C358.465 51.3589 356.896 52.5967 355.746 53.7991L356.485 54.5058ZM360.995 50.9421C362.354 50.0617 363.399 49.2968 364.116 48.6492L363.43 47.8904C362.773 48.4842 361.781 49.2147 360.439 50.0836L360.995 50.9421ZM364.126 48.6402C364.889 47.914 365.371 47.0688 365.541 46.1088L364.533 45.9311C364.406 46.6497 364.046 47.3044 363.421 47.8995L364.126 48.6402ZM365.541 46.1088C365.777 44.7747 365.378 43.5992 364.384 42.6315L363.67 43.3647C364.434 44.1082 364.708 44.9472 364.533 45.9311L365.541 46.1088ZM364.401 42.6484C363.473 41.6578 362.165 41.0376 360.53 40.7493L360.352 41.7568C361.834 42.0182 362.917 42.5614 363.653 43.3478L364.401 42.6484ZM360.53 40.7493C358.848 40.4526 357.23 40.5805 355.688 41.1394L356.036 42.1012C357.401 41.6066 358.836 41.4896 360.352 41.7568L360.53 40.7493ZM355.682 41.1418C354.183 41.7079 352.886 42.6364 351.793 43.9158L352.571 44.5798C353.558 43.4235 354.715 42.6003 356.043 42.0988L355.682 41.1418ZM352.499 43.8459L344.415 37.475L343.781 38.2786L351.865 44.6496L352.499 43.8459ZM344.488 38.2081C346.557 35.7761 349.178 34.0593 352.364 33.0569L352.057 32.081C348.695 33.1387 345.908 34.9604 343.708 37.5456L344.488 38.2081ZM352.364 33.0569C355.542 32.057 359.211 31.9119 363.387 32.6483L363.565 31.6407C359.268 30.8829 355.427 31.0208 352.057 32.081L352.364 33.0569ZM363.387 32.6483C368.077 33.4752 371.608 35.114 374.036 37.5241L374.757 36.7979C372.137 34.1967 368.389 32.4912 363.565 31.6407L363.387 32.6483ZM374.042 37.5298C376.488 39.8827 377.405 42.7251 376.804 46.1166L377.812 46.2943C378.471 42.572 377.447 39.3849 374.752 36.7923L374.042 37.5298ZM376.804 46.1166C376.524 47.6976 376.009 49.0381 375.268 50.1502L376.12 50.7169C376.951 49.4686 377.512 47.9904 377.812 46.2943L376.804 46.1166ZM375.271 50.1452C374.518 51.2475 373.687 52.1455 372.78 52.8467L373.405 53.6559C374.408 52.8805 375.311 51.9001 376.116 50.7219L375.271 50.1452ZM372.779 52.8474C371.892 53.5362 370.741 54.3076 369.321 55.1619L369.849 56.0384C371.289 55.1716 372.477 54.3771 373.406 53.6552L372.779 52.8474ZM369.326 55.1592C367.749 56.0862 366.537 56.9306 365.71 57.6929L366.403 58.4449C367.152 57.7543 368.293 56.9528 369.844 56.0411L369.326 55.1592ZM365.719 57.6848C364.845 58.4525 364.304 59.4417 364.094 60.6284L365.102 60.8061C365.274 59.8348 365.705 59.0584 366.394 58.453L365.719 57.6848ZM364.687 60.2135L354.015 58.3317L353.837 59.3393L364.509 61.2211L364.687 60.2135ZM356.548 75.0986C354.701 74.773 353.31 73.9489 352.331 72.6409L351.511 73.2544C352.665 74.7954 354.299 75.7411 356.37 76.1061L356.548 75.0986ZM352.336 72.6476C351.356 71.2938 351.016 69.8223 351.303 68.2022L350.295 68.0245C349.959 69.9213 350.367 71.6727 351.506 73.2477L352.336 72.6476ZM351.303 68.2022C351.598 66.5338 352.404 65.2917 353.722 64.4336L353.164 63.5764C351.593 64.5993 350.637 66.0961 350.295 68.0245L351.303 68.2022ZM353.715 64.438C355.075 63.5827 356.684 63.3031 358.578 63.6372L358.757 62.6296C356.654 62.2589 354.78 62.5604 353.171 63.5721L353.715 64.438ZM358.578 63.6372C360.473 63.9712 361.888 64.7839 362.871 66.0524L363.68 65.4251C362.517 63.9246 360.859 63.0004 358.757 62.6296L358.578 63.6372ZM362.871 66.0524C363.852 67.3175 364.199 68.7613 363.905 70.4243L364.912 70.602C365.255 68.6681 364.847 66.929 363.68 65.4251L362.871 66.0524ZM363.905 70.4243C363.618 72.0444 362.793 73.3103 361.407 74.2472L361.98 75.0945C363.592 74.0046 364.576 72.4987 364.912 70.602L363.905 70.4243ZM361.414 74.2426C360.047 75.1349 358.438 75.4318 356.548 75.0986L356.37 76.1061C358.477 76.4777 360.358 76.1536 361.973 75.0991L361.414 74.2426Z" fill="#271A58" mask="url(#path-12-outside-3_14_3868)"/>
<rect x="0.202599" y="0.28958" width="105.961" height="141.448" rx="18.775" transform="matrix(0.984808 0.173648 -0.174411 0.984673 431.153 -5.72404)" fill="#009EE4"/>
<rect x="0.202599" y="0.28958" width="105.961" height="141.448" rx="18.775" transform="matrix(0.984808 0.173648 -0.174411 0.984673 431.153 -5.72404)" stroke="#271A58" stroke-width="0.5"/>
<rect x="0.202599" y="0.28958" width="105.961" height="141.448" rx="18.775" transform="matrix(0.984808 0.173648 -0.174411 0.984673 -38.5529 61.8257)" fill="#1FA46C"/>
<rect x="0.202599" y="0.28958" width="105.961" height="141.448" rx="18.775" transform="matrix(0.984808 0.173648 -0.174411 0.984673 -38.5529 61.8257)" stroke="#271A58" stroke-width="0.5"/>
<rect x="0.202599" y="0.28958" width="105.961" height="141.448" rx="18.775" transform="matrix(0.984808 0.173648 -0.174411 0.984673 72.4452 81.3976)" fill="#F25050"/>
<rect x="0.202599" y="0.28958" width="105.961" height="141.448" rx="18.775" transform="matrix(0.984808 0.173648 -0.174411 0.984673 72.4452 81.3976)" stroke="#271A58" stroke-width="0.5"/>
<mask id="path-17-outside-4_14_3868" maskUnits="userSpaceOnUse" x="89.1324" y="135.017" width="43.476" height="51.5463" fill="black">
<rect fill="white" x="89.1324" y="135.017" width="43.476" height="51.5463"/>
<path d="M106.216 165.529C106.57 163.531 107.3 161.97 108.406 160.846C109.519 159.682 111.053 158.469 113.007 157.206C114.358 156.332 115.376 155.584 116.063 154.963C116.757 154.303 117.179 153.553 117.327 152.714C117.533 151.555 117.196 150.547 116.317 149.692C115.485 148.803 114.29 148.221 112.731 147.947C111.132 147.665 109.606 147.787 108.152 148.314C106.739 148.848 105.512 149.723 104.472 150.941L96.3881 144.57C98.5224 142.062 101.226 140.293 104.5 139.262C107.774 138.232 111.529 138.091 115.766 138.838C120.523 139.677 124.163 141.349 126.687 143.855C129.258 146.327 130.228 149.342 129.598 152.899C129.308 154.538 128.77 155.947 127.984 157.127C127.205 158.267 126.338 159.207 125.382 159.945C124.474 160.65 123.305 161.433 121.875 162.294C120.311 163.213 119.135 164.036 118.346 164.762C117.565 165.449 117.079 166.332 116.888 167.411L106.216 165.529ZM108.749 182.296C106.79 181.951 105.278 181.066 104.211 179.641C103.151 178.177 102.777 176.565 103.089 174.807C103.407 173.008 104.289 171.639 105.733 170.699C107.218 169.765 108.959 169.475 110.957 169.827C112.956 170.179 114.492 171.048 115.566 172.432C116.64 173.817 117.017 175.408 116.699 177.207C116.387 178.965 115.482 180.351 113.984 181.364C112.492 182.338 110.747 182.648 108.749 182.296Z"/>
</mask>
<path d="M106.216 165.529C106.57 163.531 107.3 161.97 108.406 160.846C109.519 159.682 111.053 158.469 113.007 157.206C114.358 156.332 115.376 155.584 116.063 154.963C116.757 154.303 117.179 153.553 117.327 152.714C117.533 151.555 117.196 150.547 116.317 149.692C115.485 148.803 114.29 148.221 112.731 147.947C111.132 147.665 109.606 147.787 108.152 148.314C106.739 148.848 105.512 149.723 104.472 150.941L96.3881 144.57C98.5224 142.062 101.226 140.293 104.5 139.262C107.774 138.232 111.529 138.091 115.766 138.838C120.523 139.677 124.163 141.349 126.687 143.855C129.258 146.327 130.228 149.342 129.598 152.899C129.308 154.538 128.77 155.947 127.984 157.127C127.205 158.267 126.338 159.207 125.382 159.945C124.474 160.65 123.305 161.433 121.875 162.294C120.311 163.213 119.135 164.036 118.346 164.762C117.565 165.449 117.079 166.332 116.888 167.411L106.216 165.529ZM108.749 182.296C106.79 181.951 105.278 181.066 104.211 179.641C103.151 178.177 102.777 176.565 103.089 174.807C103.407 173.008 104.289 171.639 105.733 170.699C107.218 169.765 108.959 169.475 110.957 169.827C112.956 170.179 114.492 171.048 115.566 172.432C116.64 173.817 117.017 175.408 116.699 177.207C116.387 178.965 115.482 180.351 113.984 181.364C112.492 182.338 110.747 182.648 108.749 182.296Z" fill="white"/>
<path d="M106.216 165.529L105.712 165.44L105.623 165.944L106.127 166.033L106.216 165.529ZM108.406 160.846L108.77 161.205L108.775 161.199L108.406 160.846ZM113.007 157.206L113.285 157.636L113.285 157.636L113.007 157.206ZM116.063 154.963L116.406 155.343L116.416 155.334L116.063 154.963ZM116.317 149.692L115.943 150.041L115.951 150.05L115.96 150.058L116.317 149.692ZM108.152 148.314L107.978 147.833L107.972 147.835L108.152 148.314ZM104.472 150.941L104.155 151.343L104.541 151.648L104.861 151.273L104.472 150.941ZM96.3881 144.57L95.9985 144.239L95.6543 144.644L96.0712 144.972L96.3881 144.57ZM104.5 139.262L104.654 139.75L104.5 139.262ZM126.687 143.855L126.326 144.218L126.332 144.223L126.687 143.855ZM127.984 157.127L128.406 157.415L128.41 157.41L127.984 157.127ZM125.382 159.945L125.07 159.54L125.069 159.541L125.382 159.945ZM121.875 162.294L122.134 162.735L122.139 162.732L121.875 162.294ZM118.346 164.762L118.684 165.147L118.693 165.138L118.346 164.762ZM116.888 167.411L116.799 167.915L117.303 168.003L117.392 167.5L116.888 167.411ZM104.211 179.641L103.796 179.941L103.801 179.948L104.211 179.641ZM105.733 170.699L105.461 170.266L105.454 170.27L105.733 170.699ZM115.566 172.432L115.161 172.746L115.566 172.432ZM113.984 181.364L114.263 181.793L114.27 181.788L113.984 181.364ZM106.72 165.618C107.061 163.692 107.755 162.236 108.77 161.205L108.041 160.487C106.844 161.704 106.079 163.369 105.712 165.44L106.72 165.618ZM108.775 161.199C109.851 160.074 111.35 158.886 113.285 157.636L112.73 156.777C110.755 158.052 109.186 159.29 108.036 160.493L108.775 161.199ZM113.285 157.636C114.645 156.755 115.689 155.99 116.406 155.343L115.72 154.584C115.063 155.178 114.071 155.908 112.729 156.777L113.285 157.636ZM116.416 155.334C117.179 154.608 117.661 153.762 117.831 152.802L116.824 152.625C116.696 153.343 116.336 153.998 115.711 154.593L116.416 155.334ZM117.831 152.802C118.068 151.468 117.668 150.293 116.674 149.325L115.96 150.058C116.724 150.802 116.998 151.641 116.824 152.625L117.831 152.802ZM116.691 149.342C115.763 148.351 114.455 147.731 112.82 147.443L112.642 148.45C114.124 148.712 115.207 149.255 115.943 150.041L116.691 149.342ZM112.82 147.443C111.138 147.146 109.52 147.274 107.978 147.833L108.326 148.795C109.691 148.3 111.126 148.183 112.642 148.45L112.82 147.443ZM107.972 147.835C106.473 148.401 105.176 149.33 104.083 150.609L104.861 151.273C105.849 150.117 107.005 149.294 108.333 148.792L107.972 147.835ZM104.789 150.539L96.7051 144.169L96.0712 144.972L104.155 151.343L104.789 150.539ZM96.7778 144.902C98.8469 142.47 101.468 140.753 104.654 139.75L104.347 138.775C100.985 139.832 98.1979 141.654 95.9985 144.239L96.7778 144.902ZM104.654 139.75C107.832 138.751 111.501 138.605 115.677 139.342L115.856 138.334C111.558 137.576 107.717 137.714 104.347 138.775L104.654 139.75ZM115.677 139.342C120.367 140.169 123.898 141.808 126.326 144.218L127.047 143.491C124.427 140.89 120.679 139.185 115.856 138.334L115.677 139.342ZM126.332 144.223C128.778 146.576 129.695 149.419 129.094 152.81L130.102 152.988C130.761 149.266 129.737 146.078 127.042 143.486L126.332 144.223ZM129.094 152.81C128.814 154.391 128.299 155.732 127.558 156.844L128.41 157.41C129.241 156.162 129.802 154.684 130.102 152.988L129.094 152.81ZM127.561 156.839C126.808 157.941 125.977 158.839 125.07 159.54L125.695 160.349C126.698 159.574 127.601 158.594 128.406 157.415L127.561 156.839ZM125.069 159.541C124.182 160.23 123.031 161.001 121.611 161.855L122.139 162.732C123.579 161.865 124.767 161.071 125.696 160.349L125.069 159.541ZM121.616 161.853C120.039 162.78 118.827 163.624 118 164.386L118.693 165.138C119.442 164.448 120.583 163.646 122.134 162.735L121.616 161.853ZM118.009 164.378C117.135 165.146 116.594 166.135 116.384 167.322L117.392 167.5C117.564 166.528 117.995 165.752 118.684 165.147L118.009 164.378ZM116.977 166.907L106.305 165.025L106.127 166.033L116.799 167.915L116.977 166.907ZM108.838 181.792C106.991 181.467 105.6 180.642 104.621 179.334L103.801 179.948C104.955 181.489 106.589 182.435 108.66 182.8L108.838 181.792ZM104.626 179.341C103.646 177.987 103.306 176.516 103.593 174.896L102.585 174.718C102.249 176.615 102.657 178.366 103.796 179.941L104.626 179.341ZM103.593 174.896C103.888 173.227 104.694 171.985 106.012 171.127L105.454 170.27C103.883 171.293 102.927 172.79 102.585 174.718L103.593 174.896ZM106.005 171.131C107.365 170.276 108.974 169.997 110.868 170.331L111.047 169.323C108.944 168.952 107.07 169.254 105.461 170.266L106.005 171.131ZM110.868 170.331C112.763 170.665 114.178 171.477 115.161 172.746L115.97 172.119C114.807 170.618 113.149 169.694 111.047 169.323L110.868 170.331ZM115.161 172.746C116.143 174.011 116.489 175.455 116.195 177.118L117.202 177.296C117.545 175.362 117.137 173.623 115.97 172.119L115.161 172.746ZM116.195 177.118C115.908 178.738 115.083 180.004 113.697 180.941L114.27 181.788C115.882 180.698 116.867 179.192 117.202 177.296L116.195 177.118ZM113.704 180.936C112.337 181.828 110.728 182.125 108.838 181.792L108.66 182.8C110.767 183.171 112.648 182.847 114.263 181.793L113.704 180.936Z" fill="#271A58" mask="url(#path-17-outside-4_14_3868)"/>
<rect x="0.202599" y="0.28958" width="105.961" height="141.448" rx="18.775" transform="matrix(0.984808 0.173648 -0.174411 0.984673 183.442 100.97)" fill="#009EE4"/>
<rect x="0.202599" y="0.28958" width="105.961" height="141.448" rx="18.775" transform="matrix(0.984808 0.173648 -0.174411 0.984673 183.442 100.97)" stroke="#271A58" stroke-width="0.5"/>
<mask id="path-20-outside-5_14_3868" maskUnits="userSpaceOnUse" x="204.361" y="159.627" width="35.9974" height="41.6423" fill="black">
<rect fill="white" x="204.361" y="159.627" width="35.9974" height="41.6423"/>
<path d="M218.301 184.785C218.587 183.173 219.175 181.914 220.068 181.007C220.965 180.068 222.203 179.09 223.78 178.071C224.869 177.365 225.691 176.762 226.245 176.261C226.805 175.728 227.145 175.123 227.265 174.446C227.431 173.511 227.159 172.699 226.45 172.008C225.779 171.292 224.814 170.822 223.557 170.601C222.267 170.373 221.036 170.472 219.863 170.897C218.723 171.327 217.733 172.034 216.894 173.017L210.372 167.877C212.094 165.853 214.276 164.426 216.917 163.595C219.558 162.764 222.588 162.65 226.006 163.252C229.843 163.929 232.78 165.278 234.816 167.299C236.89 169.294 237.673 171.726 237.165 174.596C236.93 175.918 236.496 177.055 235.862 178.007C235.234 178.927 234.534 179.685 233.764 180.28C233.031 180.849 232.088 181.481 230.934 182.175C229.672 182.917 228.723 183.581 228.087 184.167C227.457 184.721 227.065 185.433 226.911 186.303L218.301 184.785ZM220.344 198.312C218.764 198.033 217.544 197.319 216.683 196.17C215.829 194.989 215.527 193.689 215.778 192.27C216.035 190.819 216.746 189.714 217.911 188.956C219.109 188.203 220.514 187.968 222.126 188.253C223.738 188.537 224.978 189.237 225.844 190.354C226.71 191.471 227.015 192.755 226.758 194.206C226.507 195.625 225.776 196.743 224.568 197.56C223.364 198.346 221.957 198.596 220.344 198.312Z"/>
</mask>
<path d="M218.301 184.785C218.587 183.173 219.175 181.914 220.068 181.007C220.965 180.068 222.203 179.09 223.78 178.071C224.869 177.365 225.691 176.762 226.245 176.261C226.805 175.728 227.145 175.123 227.265 174.446C227.431 173.511 227.159 172.699 226.45 172.008C225.779 171.292 224.814 170.822 223.557 170.601C222.267 170.373 221.036 170.472 219.863 170.897C218.723 171.327 217.733 172.034 216.894 173.017L210.372 167.877C212.094 165.853 214.276 164.426 216.917 163.595C219.558 162.764 222.588 162.65 226.006 163.252C229.843 163.929 232.78 165.278 234.816 167.299C236.89 169.294 237.673 171.726 237.165 174.596C236.93 175.918 236.496 177.055 235.862 178.007C235.234 178.927 234.534 179.685 233.764 180.28C233.031 180.849 232.088 181.481 230.934 182.175C229.672 182.917 228.723 183.581 228.087 184.167C227.457 184.721 227.065 185.433 226.911 186.303L218.301 184.785ZM220.344 198.312C218.764 198.033 217.544 197.319 216.683 196.17C215.829 194.989 215.527 193.689 215.778 192.27C216.035 190.819 216.746 189.714 217.911 188.956C219.109 188.203 220.514 187.968 222.126 188.253C223.738 188.537 224.978 189.237 225.844 190.354C226.71 191.471 227.015 192.755 226.758 194.206C226.507 195.625 225.776 196.743 224.568 197.56C223.364 198.346 221.957 198.596 220.344 198.312Z" fill="white"/>
<path d="M218.301 184.785L217.797 184.696L217.708 185.2L218.212 185.289L218.301 184.785ZM220.068 181.007L220.432 181.366L220.437 181.36L220.068 181.007ZM223.78 178.071L224.057 178.501L224.058 178.5L223.78 178.071ZM226.245 176.261L226.588 176.641L226.598 176.632L226.245 176.261ZM226.45 172.008L226.076 172.358L226.084 172.367L226.093 172.375L226.45 172.008ZM219.863 170.897L219.689 170.416L219.683 170.418L219.863 170.897ZM216.894 173.017L216.577 173.418L216.963 173.723L217.283 173.349L216.894 173.017ZM210.372 167.877L209.983 167.546L209.638 167.95L210.055 168.279L210.372 167.877ZM216.917 163.595L217.07 164.083L217.07 164.083L216.917 163.595ZM234.816 167.299L234.455 167.662L234.461 167.668L234.816 167.299ZM235.862 178.007L236.285 178.295L236.288 178.29L235.862 178.007ZM233.764 180.28L233.451 179.876L233.45 179.876L233.764 180.28ZM230.934 182.175L231.193 182.616L231.198 182.613L230.934 182.175ZM228.087 184.167L228.425 184.551L228.434 184.543L228.087 184.167ZM226.911 186.303L226.821 186.807L227.325 186.896L227.414 186.392L226.911 186.303ZM216.683 196.17L216.269 196.47L216.274 196.477L216.683 196.17ZM217.911 188.956L217.639 188.523L217.632 188.527L217.911 188.956ZM225.844 190.354L225.439 190.668L225.844 190.354ZM224.568 197.56L224.847 197.989L224.854 197.984L224.568 197.56ZM218.805 184.874C219.077 183.335 219.631 182.18 220.432 181.366L219.703 180.649C218.72 181.648 218.096 183.012 217.797 184.696L218.805 184.874ZM220.437 181.36C221.298 180.46 222.5 179.506 224.057 178.501L223.502 177.641C221.905 178.673 220.633 179.676 219.698 180.654L220.437 181.36ZM224.058 178.5C225.156 177.789 226.004 177.168 226.588 176.641L225.902 175.882C225.378 176.356 224.582 176.942 223.502 177.642L224.058 178.5ZM226.598 176.632C227.227 176.033 227.628 175.333 227.769 174.535L226.761 174.357C226.663 174.914 226.384 175.424 225.893 175.891L226.598 176.632ZM227.769 174.535C227.966 173.425 227.631 172.444 226.807 171.642L226.093 172.375C226.687 172.953 226.896 173.597 226.761 174.357L227.769 174.535ZM226.824 171.659C226.057 170.84 224.98 170.332 223.646 170.097L223.468 171.104C224.649 171.313 225.501 171.743 226.076 172.358L226.824 171.659ZM223.646 170.097C222.273 169.855 220.95 169.959 219.689 170.416L220.037 171.378C221.121 170.985 222.261 170.892 223.468 171.104L223.646 170.097ZM219.683 170.418C218.457 170.881 217.397 171.64 216.505 172.685L217.283 173.349C218.07 172.428 218.989 171.774 220.044 171.375L219.683 170.418ZM217.211 172.615L210.689 167.475L210.055 168.279L216.577 173.418L217.211 172.615ZM210.762 168.208C212.419 166.261 214.517 164.886 217.07 164.083L216.764 163.107C214.034 163.965 211.77 165.445 209.983 167.546L210.762 168.208ZM217.07 164.083C219.615 163.282 222.559 163.164 225.916 163.756L226.095 162.748C222.616 162.135 219.5 162.246 216.764 163.107L217.07 164.083ZM225.916 163.756C229.687 164.421 232.515 165.737 234.455 167.662L235.176 166.936C233.044 164.819 229.999 163.437 226.095 162.748L225.916 163.756ZM234.461 167.668C236.41 169.543 237.14 171.803 236.661 174.507L237.668 174.685C238.206 171.65 237.369 169.045 235.171 166.931L234.461 167.668ZM236.661 174.507C236.437 175.771 236.025 176.84 235.436 177.724L236.288 178.29C236.967 177.27 237.424 176.064 237.668 174.685L236.661 174.507ZM235.44 177.719C234.837 178.6 234.173 179.317 233.451 179.876L234.076 180.685C234.895 180.052 235.63 179.253 236.285 178.295L235.44 177.719ZM233.45 179.876C232.739 180.429 231.814 181.049 230.67 181.737L231.198 182.613C232.362 181.913 233.323 181.27 234.077 180.684L233.45 179.876ZM230.675 181.734C229.4 182.483 228.415 183.169 227.74 183.791L228.434 184.543C229.031 183.993 229.944 183.35 231.193 182.616L230.675 181.734ZM227.749 183.783C227.027 184.418 226.58 185.236 226.407 186.214L227.414 186.392C227.55 185.629 227.887 185.024 228.425 184.551L227.749 183.783ZM227 185.8L218.39 184.281L218.212 185.289L226.821 186.807L227 185.8ZM220.434 197.808C218.965 197.549 217.866 196.896 217.093 195.863L216.274 196.477C217.222 197.743 218.563 198.517 220.255 198.816L220.434 197.808ZM217.098 195.87C216.323 194.799 216.055 193.639 216.282 192.359L215.274 192.181C214.999 193.738 215.334 195.178 216.269 196.47L217.098 195.87ZM216.282 192.359C216.516 191.038 217.152 190.061 218.19 189.384L217.632 188.527C216.341 189.368 215.554 190.6 215.274 192.181L216.282 192.359ZM218.184 189.389C219.257 188.714 220.529 188.49 222.037 188.756L222.215 187.749C220.499 187.446 218.961 187.691 217.639 188.523L218.184 189.389ZM222.037 188.756C223.545 189.022 224.663 189.667 225.439 190.668L226.248 190.041C225.292 188.808 223.932 188.051 222.215 187.749L222.037 188.756ZM225.439 190.668C226.213 191.666 226.487 192.802 226.254 194.117L227.262 194.295C227.543 192.709 227.207 191.277 226.248 190.041L225.439 190.668ZM226.254 194.117C226.027 195.398 225.377 196.396 224.281 197.137L224.854 197.984C226.176 197.09 226.986 195.852 227.262 194.295L226.254 194.117ZM224.288 197.132C223.209 197.836 221.937 198.073 220.434 197.808L220.255 198.816C221.976 199.119 223.52 198.855 224.847 197.989L224.288 197.132Z" fill="#271A58" mask="url(#path-20-outside-5_14_3868)"/>
<rect x="0.202599" y="0.28958" width="105.961" height="141.448" rx="18.775" transform="matrix(0.984808 0.173648 -0.174411 0.984673 294.44 120.541)" fill="#99D100"/>
<rect x="0.202599" y="0.28958" width="105.961" height="141.448" rx="18.775" transform="matrix(0.984808 0.173648 -0.174411 0.984673 294.44 120.541)" stroke="#271A58" stroke-width="0.5"/>
<mask id="path-23-outside-6_14_3868" maskUnits="userSpaceOnUse" x="311.127" y="174.16" width="43.476" height="51.5463" fill="black">
<rect fill="white" x="311.127" y="174.16" width="43.476" height="51.5463"/>
<path d="M328.211 204.673C328.565 202.675 329.295 201.114 330.401 199.99C331.514 198.826 333.048 197.613 335.003 196.35C336.353 195.476 337.371 194.728 338.058 194.107C338.752 193.447 339.174 192.697 339.322 191.857C339.528 190.698 339.191 189.691 338.312 188.835C337.48 187.947 336.285 187.365 334.726 187.09C333.127 186.808 331.601 186.931 330.148 187.458C328.734 187.991 327.507 188.867 326.467 190.085L318.383 183.714C320.518 181.206 323.222 179.436 326.495 178.406C329.769 177.376 333.525 177.235 337.761 177.982C342.518 178.821 346.158 180.493 348.682 182.998C351.253 185.471 352.223 188.486 351.593 192.043C351.303 193.681 350.765 195.091 349.979 196.271C349.2 197.411 348.333 198.35 347.378 199.089C346.47 199.794 345.3 200.577 343.87 201.438C342.306 202.357 341.13 203.18 340.342 203.906C339.56 204.593 339.074 205.476 338.883 206.555L328.211 204.673ZM330.744 221.44C328.785 221.094 327.273 220.209 326.206 218.785C325.147 217.321 324.773 215.709 325.084 213.951C325.403 212.152 326.284 210.783 327.728 209.842C329.213 208.909 330.954 208.618 332.953 208.971C334.951 209.323 336.487 210.192 337.561 211.576C338.635 212.961 339.012 214.552 338.694 216.35C338.382 218.109 337.477 219.495 335.979 220.508C334.487 221.482 332.742 221.792 330.744 221.44Z"/>
</mask>
<path d="M328.211 204.673C328.565 202.675 329.295 201.114 330.401 199.99C331.514 198.826 333.048 197.613 335.003 196.35C336.353 195.476 337.371 194.728 338.058 194.107C338.752 193.447 339.174 192.697 339.322 191.857C339.528 190.698 339.191 189.691 338.312 188.835C337.48 187.947 336.285 187.365 334.726 187.09C333.127 186.808 331.601 186.931 330.148 187.458C328.734 187.991 327.507 188.867 326.467 190.085L318.383 183.714C320.518 181.206 323.222 179.436 326.495 178.406C329.769 177.376 333.525 177.235 337.761 177.982C342.518 178.821 346.158 180.493 348.682 182.998C351.253 185.471 352.223 188.486 351.593 192.043C351.303 193.681 350.765 195.091 349.979 196.271C349.2 197.411 348.333 198.35 347.378 199.089C346.47 199.794 345.3 200.577 343.87 201.438C342.306 202.357 341.13 203.18 340.342 203.906C339.56 204.593 339.074 205.476 338.883 206.555L328.211 204.673ZM330.744 221.44C328.785 221.094 327.273 220.209 326.206 218.785C325.147 217.321 324.773 215.709 325.084 213.951C325.403 212.152 326.284 210.783 327.728 209.842C329.213 208.909 330.954 208.618 332.953 208.971C334.951 209.323 336.487 210.192 337.561 211.576C338.635 212.961 339.012 214.552 338.694 216.35C338.382 218.109 337.477 219.495 335.979 220.508C334.487 221.482 332.742 221.792 330.744 221.44Z" fill="white"/>
<path d="M328.211 204.673L327.707 204.584L327.618 205.088L328.122 205.177L328.211 204.673ZM330.401 199.99L330.766 200.348L330.771 200.343L330.401 199.99ZM335.003 196.35L335.28 196.78L335.281 196.779L335.003 196.35ZM338.058 194.107L338.401 194.487L338.411 194.478L338.058 194.107ZM338.312 188.835L337.938 189.185L337.946 189.194L337.955 189.202L338.312 188.835ZM330.148 187.458L329.973 186.977L329.967 186.979L330.148 187.458ZM326.467 190.085L326.15 190.487L326.536 190.791L326.856 190.417L326.467 190.085ZM318.383 183.714L317.994 183.383L317.649 183.787L318.066 184.116L318.383 183.714ZM326.495 178.406L326.649 178.894L326.495 178.406ZM348.682 182.998L348.321 183.362L348.327 183.367L348.682 182.998ZM349.979 196.271L350.401 196.559L350.405 196.554L349.979 196.271ZM347.378 199.089L347.065 198.684L347.064 198.685L347.378 199.089ZM343.87 201.437L344.129 201.878L344.134 201.876L343.87 201.437ZM340.342 203.906L340.679 204.29L340.688 204.282L340.342 203.906ZM338.883 206.555L338.794 207.058L339.298 207.147L339.387 206.643L338.883 206.555ZM326.206 218.785L325.791 219.085L325.796 219.092L326.206 218.785ZM327.728 209.842L327.456 209.409L327.449 209.414L327.728 209.842ZM337.561 211.576L337.156 211.89L337.561 211.576ZM335.979 220.508L336.258 220.937L336.265 220.932L335.979 220.508ZM328.715 204.762C329.056 202.836 329.751 201.38 330.766 200.348L330.036 199.631C328.839 200.847 328.074 202.513 327.707 204.584L328.715 204.762ZM330.771 200.343C331.847 199.218 333.345 198.029 335.28 196.78L334.725 195.921C332.75 197.196 331.181 198.434 330.031 199.636L330.771 200.343ZM335.281 196.779C336.64 195.899 337.685 195.134 338.401 194.487L337.715 193.728C337.058 194.322 336.066 195.052 334.724 195.921L335.281 196.779ZM338.411 194.478C339.174 193.751 339.656 192.906 339.826 191.946L338.819 191.768C338.691 192.487 338.331 193.142 337.706 193.737L338.411 194.478ZM339.826 191.946C340.063 190.612 339.663 189.437 338.669 188.469L337.955 189.202C338.719 189.946 338.993 190.785 338.819 191.768L339.826 191.946ZM338.686 188.486C337.758 187.495 336.45 186.875 334.815 186.587L334.637 187.594C336.119 187.856 337.202 188.399 337.938 189.185L338.686 188.486ZM334.815 186.587C333.133 186.29 331.516 186.418 329.973 186.977L330.322 187.939C331.687 187.444 333.122 187.327 334.637 187.594L334.815 186.587ZM329.967 186.979C328.468 187.545 327.171 188.474 326.078 189.753L326.856 190.417C327.844 189.261 329 188.438 330.328 187.936L329.967 186.979ZM326.784 189.683L318.7 183.312L318.066 184.116L326.15 190.487L326.784 189.683ZM318.773 184.045C320.842 181.613 323.463 179.897 326.649 178.894L326.342 177.918C322.98 178.976 320.193 180.798 317.994 183.383L318.773 184.045ZM326.649 178.894C329.827 177.894 333.496 177.749 337.672 178.486L337.851 177.478C333.553 176.72 329.712 176.858 326.342 177.918L326.649 178.894ZM337.672 178.486C342.362 179.313 345.894 180.951 348.321 183.361L349.043 182.635C346.422 180.034 342.674 178.329 337.851 177.478L337.672 178.486ZM348.327 183.367C350.773 185.72 351.69 188.562 351.089 191.954L352.097 192.132C352.756 188.409 351.732 185.222 349.037 182.63L348.327 183.367ZM351.089 191.954C350.809 193.535 350.294 194.875 349.553 195.988L350.405 196.554C351.236 195.306 351.797 193.828 352.097 192.132L351.089 191.954ZM349.556 195.983C348.803 197.085 347.972 197.983 347.065 198.684L347.69 199.493C348.694 198.718 349.596 197.737 350.401 196.559L349.556 195.983ZM347.064 198.685C346.177 199.374 345.026 200.145 343.607 200.999L344.134 201.876C345.574 201.009 346.762 200.214 347.691 199.493L347.064 198.685ZM343.611 200.997C342.034 201.924 340.822 202.768 339.995 203.53L340.688 204.282C341.437 203.592 342.578 202.79 344.129 201.878L343.611 200.997ZM340.004 203.522C339.13 204.29 338.59 205.279 338.379 206.466L339.387 206.643C339.559 205.672 339.99 204.896 340.679 204.29L340.004 203.522ZM338.972 206.051L328.3 204.169L328.122 205.177L338.794 207.058L338.972 206.051ZM330.833 220.936C328.986 220.61 327.595 219.786 326.616 218.478L325.796 219.092C326.95 220.633 328.584 221.578 330.655 221.943L330.833 220.936ZM326.621 218.485C325.641 217.131 325.301 215.66 325.588 214.04L324.58 213.862C324.244 215.759 324.652 217.51 325.792 219.085L326.621 218.485ZM325.588 214.04C325.883 212.371 326.689 211.129 328.007 210.271L327.449 209.414C325.878 210.437 324.922 211.933 324.58 213.862L325.588 214.04ZM328.001 210.275C329.36 209.42 330.969 209.14 332.863 209.475L333.042 208.467C330.939 208.096 329.065 208.398 327.456 209.409L328.001 210.275ZM332.863 209.475C334.758 209.809 336.173 210.621 337.156 211.89L337.965 211.262C336.802 209.762 335.144 208.838 333.042 208.467L332.863 209.475ZM337.156 211.89C338.138 213.155 338.484 214.599 338.19 216.262L339.198 216.439C339.54 214.505 339.132 212.766 337.965 211.262L337.156 211.89ZM338.19 216.262C337.903 217.882 337.078 219.148 335.692 220.085L336.265 220.932C337.877 219.842 338.862 218.336 339.198 216.439L338.19 216.262ZM335.699 220.08C334.332 220.972 332.723 221.269 330.833 220.936L330.655 221.943C332.762 222.315 334.643 221.991 336.258 220.936L335.699 220.08Z" fill="#271A58" mask="url(#path-23-outside-6_14_3868)"/>
<rect x="0.202599" y="0.28958" width="105.961" height="141.448" rx="18.775" transform="matrix(0.984808 0.173648 -0.174411 0.984673 405.438 140.113)" fill="#FFC700"/>
<rect x="0.202599" y="0.28958" width="105.961" height="141.448" rx="18.775" transform="matrix(0.984808 0.173648 -0.174411 0.984673 405.438 140.113)" stroke="#271A58" stroke-width="0.5"/>
<rect x="0.202599" y="0.28958" width="105.961" height="141.448" rx="18.775" transform="matrix(0.984808 0.173648 -0.174411 0.984673 -64.2677 207.663)" fill="#009EE4"/>
<rect x="0.202599" y="0.28958" width="105.961" height="141.448" rx="18.775" transform="matrix(0.984808 0.173648 -0.174411 0.984673 -64.2677 207.663)" stroke="#271A58" stroke-width="0.5"/>
<rect x="0.202599" y="0.28958" width="105.961" height="141.448" rx="18.775" transform="matrix(0.984808 0.173648 -0.174411 0.984673 46.7303 227.235)" fill="#99D100"/>
<rect x="0.202599" y="0.28958" width="105.961" height="141.448" rx="18.775" transform="matrix(0.984808 0.173648 -0.174411 0.984673 46.7303 227.235)" stroke="#271A58" stroke-width="0.5"/>
<mask id="path-28-outside-7_14_3868" maskUnits="userSpaceOnUse" x="63.4175" y="280.854" width="43.476" height="51.5463" fill="black">
<rect fill="white" x="63.4175" y="280.854" width="43.476" height="51.5463"/>
<path d="M80.5012 311.366C80.8551 309.368 81.585 307.807 82.6909 306.683C83.8038 305.519 85.3377 304.306 87.2925 303.044C88.6428 302.169 89.6614 301.421 90.3484 300.801C91.0425 300.14 91.4639 299.39 91.6125 298.551C91.8178 297.392 91.481 296.385 90.6021 295.529C89.7702 294.64 88.5749 294.059 87.016 293.784C85.4172 293.502 83.8911 293.624 82.4376 294.151C81.024 294.685 79.7972 295.561 78.7571 296.779L70.6733 290.408C72.8076 287.899 75.5116 286.13 78.7854 285.1C82.0593 284.07 85.8146 283.928 90.0514 284.675C94.8079 285.514 98.448 287.186 100.972 289.692C103.543 292.165 104.513 295.179 103.883 298.736C103.593 300.375 103.055 301.784 102.269 302.964C101.49 304.105 100.623 305.044 99.6676 305.782C98.7596 306.487 97.5904 307.27 96.1602 308.131C94.5959 309.05 93.4197 309.873 92.6316 310.6C91.8505 311.286 91.3643 312.169 91.1732 313.248L80.5012 311.366ZM83.034 328.133C81.0755 327.788 79.5629 326.903 78.4962 325.478C77.4366 324.014 77.0625 322.403 77.374 320.644C77.6925 318.846 78.574 317.476 80.0184 316.536C81.5027 315.602 83.2441 315.312 85.2426 315.664C87.2411 316.017 88.7772 316.885 89.851 318.27C90.9248 319.654 91.3024 321.246 90.9838 323.044C90.6723 324.802 89.7674 326.188 88.2689 327.202C86.7775 328.175 85.0325 328.486 83.034 328.133Z"/>
</mask>
<path d="M80.5012 311.366C80.8551 309.368 81.585 307.807 82.6909 306.683C83.8038 305.519 85.3377 304.306 87.2925 303.044C88.6428 302.169 89.6614 301.421 90.3484 300.801C91.0425 300.14 91.4639 299.39 91.6125 298.551C91.8178 297.392 91.481 296.385 90.6021 295.529C89.7702 294.64 88.5749 294.059 87.016 293.784C85.4172 293.502 83.8911 293.624 82.4376 294.151C81.024 294.685 79.7972 295.561 78.7571 296.779L70.6733 290.408C72.8076 287.899 75.5116 286.13 78.7854 285.1C82.0593 284.07 85.8146 283.928 90.0514 284.675C94.8079 285.514 98.448 287.186 100.972 289.692C103.543 292.165 104.513 295.179 103.883 298.736C103.593 300.375 103.055 301.784 102.269 302.964C101.49 304.105 100.623 305.044 99.6676 305.782C98.7596 306.487 97.5904 307.27 96.1602 308.131C94.5959 309.05 93.4197 309.873 92.6316 310.6C91.8505 311.286 91.3643 312.169 91.1732 313.248L80.5012 311.366ZM83.034 328.133C81.0755 327.788 79.5629 326.903 78.4962 325.478C77.4366 324.014 77.0625 322.403 77.374 320.644C77.6925 318.846 78.574 317.476 80.0184 316.536C81.5027 315.602 83.2441 315.312 85.2426 315.664C87.2411 316.017 88.7772 316.885 89.851 318.27C90.9248 319.654 91.3024 321.246 90.9838 323.044C90.6723 324.802 89.7674 326.188 88.2689 327.202C86.7775 328.175 85.0325 328.486 83.034 328.133Z" fill="white"/>
<path d="M80.5012 311.366L79.9974 311.277L79.9081 311.781L80.412 311.87L80.5012 311.366ZM82.6909 306.683L83.0556 307.042L83.0606 307.037L82.6909 306.683ZM87.2925 303.044L87.57 303.473L87.5706 303.473L87.2925 303.044ZM90.3484 300.801L90.6915 301.18L90.7011 301.171L90.3484 300.801ZM90.6021 295.529L90.2284 295.879L90.2365 295.887L90.245 295.896L90.6021 295.529ZM82.4376 294.151L82.2635 293.67L82.2571 293.673L82.4376 294.151ZM78.7571 296.779L78.4402 297.18L78.8265 297.485L79.1462 297.111L78.7571 296.779ZM70.6733 290.408L70.2836 290.076L69.9394 290.481L70.3563 290.809L70.6733 290.408ZM78.7854 285.1L78.9387 285.588L78.7854 285.1ZM100.972 289.692L100.611 290.055L100.617 290.061L100.972 289.692ZM102.269 302.964L102.691 303.253L102.695 303.248L102.269 302.964ZM99.6676 305.782L99.3548 305.378L99.3539 305.378L99.6676 305.782ZM96.1602 308.131L96.4193 308.572L96.4238 308.569L96.1602 308.131ZM92.6316 310.6L92.9693 310.984L92.9782 310.976L92.6316 310.6ZM91.1732 313.248L91.084 313.752L91.5878 313.841L91.6771 313.337L91.1732 313.248ZM78.4962 325.478L78.0815 325.779L78.0865 325.785L78.4962 325.478ZM80.0184 316.536L79.7461 316.103L79.7393 316.107L80.0184 316.536ZM89.851 318.27L89.4465 318.583L89.851 318.27ZM88.2689 327.202L88.5484 327.63L88.5554 327.625L88.2689 327.202ZM81.0051 311.455C81.3461 309.53 82.0406 308.073 83.0555 307.042L82.3263 306.325C81.1295 307.541 80.3642 309.207 79.9974 311.277L81.0051 311.455ZM83.0606 307.037C84.1367 305.911 85.6353 304.723 87.57 303.473L87.0151 302.614C85.0401 303.89 83.471 305.128 82.3212 306.33L83.0606 307.037ZM87.5706 303.473C88.9297 302.593 89.9746 301.828 90.6914 301.18L90.0055 300.421C89.3483 301.015 88.3559 301.746 87.0145 302.614L87.5706 303.473ZM90.7011 301.171C91.4641 300.445 91.9463 299.6 92.1164 298.64L91.1087 298.462C90.9814 299.181 90.6209 299.835 89.9957 300.43L90.7011 301.171ZM92.1164 298.64C92.3527 297.306 91.9533 296.13 90.9592 295.162L90.245 295.896C91.0087 296.639 91.283 297.478 91.1087 298.462L92.1164 298.64ZM90.9758 295.179C90.0483 294.189 88.7404 293.568 87.1053 293.28L86.9268 294.288C88.4094 294.549 89.4921 295.092 90.2284 295.879L90.9758 295.179ZM87.1053 293.28C85.4229 292.983 83.8056 293.111 82.2635 293.67L82.6116 294.632C83.9766 294.137 85.4116 294.02 86.9268 294.288L87.1053 293.28ZM82.2571 293.673C80.7579 294.239 79.4608 295.167 78.3681 296.447L79.1462 297.111C80.1337 295.954 81.2901 295.131 82.6181 294.63L82.2571 293.673ZM79.0741 296.377L70.9902 290.006L70.3563 290.809L78.4402 297.18L79.0741 296.377ZM71.0629 290.739C73.132 288.307 75.7528 286.59 78.9387 285.588L78.6322 284.612C75.2704 285.67 72.4831 287.491 70.2836 290.076L71.0629 290.739ZM78.9387 285.588C82.1167 284.588 85.7862 284.443 89.9622 285.179L90.1407 284.172C85.843 283.414 82.0018 283.552 78.6322 284.612L78.9387 285.588ZM89.9622 285.179C94.6518 286.006 98.1836 287.645 100.611 290.055L101.333 289.329C98.7125 286.728 94.9639 285.022 90.1407 284.172L89.9622 285.179ZM100.617 290.061C103.063 292.413 103.98 295.256 103.38 298.647L104.387 298.825C105.047 295.103 104.022 291.916 101.327 289.323L100.617 290.061ZM103.38 298.647C103.099 300.228 102.584 301.569 101.843 302.681L102.695 303.248C103.526 301.999 104.087 300.521 104.387 298.825L103.38 298.647ZM101.846 302.676C101.093 303.778 100.262 304.676 99.3549 305.378L99.9804 306.187C100.984 305.411 101.886 304.431 102.691 303.253L101.846 302.676ZM99.3539 305.378C98.4672 306.067 97.3164 306.838 95.8966 307.693L96.4238 308.569C97.8644 307.702 99.0519 306.908 99.9814 306.186L99.3539 305.378ZM95.9011 307.69C94.3238 308.617 93.112 309.461 92.2849 310.224L92.9782 310.976C93.7275 310.285 94.8681 309.484 96.4193 308.572L95.9011 307.69ZM92.2939 310.216C91.4205 310.983 90.8796 311.972 90.6694 313.159L91.6771 313.337C91.8491 312.366 92.2804 311.589 92.9692 310.984L92.2939 310.216ZM91.2625 312.744L80.5904 310.863L80.412 311.87L91.084 313.752L91.2625 312.744ZM83.1233 327.629C81.2765 327.304 79.8854 326.48 78.9059 325.172L78.0865 325.785C79.2404 327.326 80.8745 328.272 82.9448 328.637L83.1233 327.629ZM78.9109 325.178C77.9313 323.825 77.5909 322.353 77.8778 320.733L76.8702 320.555C76.5342 322.452 76.9419 324.203 78.0815 325.779L78.9109 325.178ZM77.8778 320.733C78.1734 319.065 78.9795 317.823 80.2974 316.964L79.7393 316.107C78.1685 317.13 77.2117 318.627 76.8702 320.555L77.8778 320.733ZM80.2906 316.969C81.6505 316.114 83.2589 315.834 85.1534 316.168L85.3318 315.16C83.2293 314.79 81.3548 315.091 79.7461 316.103L80.2906 316.969ZM85.1534 316.168C87.0478 316.502 88.4627 317.315 89.4465 318.583L90.2555 317.956C89.0917 316.455 87.4344 315.531 85.3318 315.16L85.1534 316.168ZM89.4465 318.583C90.4277 319.848 90.7745 321.292 90.48 322.955L91.4877 323.133C91.8302 321.199 91.4218 319.46 90.2555 317.956L89.4465 318.583ZM90.48 322.955C90.193 324.575 89.3677 325.841 87.9824 326.778L88.5554 327.625C90.167 326.535 91.1517 325.03 91.4877 323.133L90.48 322.955ZM87.9894 326.773C86.6222 327.666 85.013 327.963 83.1233 327.629L82.9448 328.637C85.052 329.009 86.9327 328.684 88.5484 327.63L87.9894 326.773Z" fill="#271A58" mask="url(#path-28-outside-7_14_3868)"/>
<rect x="0.202599" y="0.28958" width="105.961" height="141.448" rx="18.775" transform="matrix(0.984808 0.173648 -0.174411 0.984673 157.728 246.807)" fill="#009EE4"/>
<rect x="0.202599" y="0.28958" width="105.961" height="141.448" rx="18.775" transform="matrix(0.984808 0.173648 -0.174411 0.984673 157.728 246.807)" stroke="#271A58" stroke-width="0.5"/>
<mask id="path-31-outside-8_14_3868" maskUnits="userSpaceOnUse" x="174.416" y="300.426" width="43.476" height="51.5463" fill="black">
<rect fill="white" x="174.416" y="300.426" width="43.476" height="51.5463"/>
<path d="M191.499 330.938C191.853 328.94 192.583 327.379 193.689 326.255C194.802 325.092 196.336 323.878 198.291 322.616C199.641 321.741 200.659 320.993 201.346 320.373C202.041 319.712 202.462 318.962 202.611 318.123C202.816 316.964 202.479 315.957 201.6 315.101C200.768 314.212 199.573 313.631 198.014 313.356C196.415 313.074 194.889 313.196 193.436 313.723C192.022 314.257 190.795 315.133 189.755 316.351L181.671 309.98C183.806 307.471 186.51 305.702 189.783 304.672C193.057 303.642 196.813 303.5 201.049 304.247C205.806 305.086 209.446 306.758 211.97 309.264C214.541 311.737 215.511 314.751 214.881 318.308C214.591 319.947 214.053 321.356 213.267 322.536C212.488 323.677 211.621 324.616 210.666 325.354C209.758 326.06 208.588 326.842 207.158 327.703C205.594 328.622 204.418 329.445 203.63 330.172C202.849 330.858 202.362 331.741 202.171 332.82L191.499 330.938ZM194.032 347.705C192.074 347.36 190.561 346.475 189.494 345.051C188.435 343.586 188.061 341.975 188.372 340.216C188.691 338.418 189.572 337.048 191.016 336.108C192.501 335.174 194.242 334.884 196.241 335.236C198.239 335.589 199.775 336.457 200.849 337.842C201.923 339.226 202.3 340.818 201.982 342.616C201.67 344.374 200.765 345.76 199.267 346.774C197.776 347.747 196.031 348.058 194.032 347.705Z"/>
</mask>
<path d="M191.499 330.938C191.853 328.94 192.583 327.379 193.689 326.255C194.802 325.092 196.336 323.878 198.291 322.616C199.641 321.741 200.659 320.993 201.346 320.373C202.041 319.712 202.462 318.962 202.611 318.123C202.816 316.964 202.479 315.957 201.6 315.101C200.768 314.212 199.573 313.631 198.014 313.356C196.415 313.074 194.889 313.196 193.436 313.723C192.022 314.257 190.795 315.133 189.755 316.351L181.671 309.98C183.806 307.471 186.51 305.702 189.783 304.672C193.057 303.642 196.813 303.5 201.049 304.247C205.806 305.086 209.446 306.758 211.97 309.264C214.541 311.737 215.511 314.751 214.881 318.308C214.591 319.947 214.053 321.356 213.267 322.536C212.488 323.677 211.621 324.616 210.666 325.354C209.758 326.06 208.588 326.842 207.158 327.703C205.594 328.622 204.418 329.445 203.63 330.172C202.849 330.858 202.362 331.741 202.171 332.82L191.499 330.938ZM194.032 347.705C192.074 347.36 190.561 346.475 189.494 345.051C188.435 343.586 188.061 341.975 188.372 340.216C188.691 338.418 189.572 337.048 191.016 336.108C192.501 335.174 194.242 334.884 196.241 335.236C198.239 335.589 199.775 336.457 200.849 337.842C201.923 339.226 202.3 340.818 201.982 342.616C201.67 344.374 200.765 345.76 199.267 346.774C197.776 347.747 196.031 348.058 194.032 347.705Z" fill="white"/>
<path d="M191.499 330.938L190.995 330.85L190.906 331.353L191.41 331.442L191.499 330.938ZM193.689 326.255L194.054 326.614L194.059 326.609L193.689 326.255ZM198.291 322.616L198.568 323.045L198.569 323.045L198.291 322.616ZM201.346 320.373L201.69 320.752L201.699 320.743L201.346 320.373ZM201.6 315.101L201.226 315.451L201.235 315.459L201.243 315.468L201.6 315.101ZM193.436 313.723L193.262 313.242L193.255 313.245L193.436 313.723ZM189.755 316.351L189.438 316.752L189.825 317.057L190.144 316.683L189.755 316.351ZM181.671 309.98L181.282 309.648L180.937 310.053L181.354 310.382L181.671 309.98ZM189.783 304.672L189.937 305.16L189.783 304.672ZM211.97 309.264L211.609 309.627L211.615 309.633L211.97 309.264ZM213.267 322.536L213.689 322.825L213.693 322.82L213.267 322.536ZM210.666 325.354L210.353 324.95L210.352 324.95L210.666 325.354ZM207.158 327.703L207.417 328.144L207.422 328.141L207.158 327.703ZM203.63 330.172L203.967 330.556L203.976 330.548L203.63 330.172ZM202.171 332.82L202.082 333.324L202.586 333.413L202.675 332.909L202.171 332.82ZM189.494 345.051L189.08 345.351L189.085 345.357L189.494 345.051ZM191.016 336.108L190.744 335.675L190.737 335.679L191.016 336.108ZM200.849 337.842L200.445 338.155L200.849 337.842ZM199.267 346.774L199.546 347.202L199.553 347.197L199.267 346.774ZM192.003 331.027C192.344 329.102 193.039 327.645 194.054 326.614L193.324 325.897C192.128 327.113 191.362 328.779 190.995 330.85L192.003 331.027ZM194.059 326.609C195.135 325.484 196.633 324.295 198.568 323.045L198.013 322.186C196.038 323.462 194.469 324.7 193.319 325.902L194.059 326.609ZM198.569 323.045C199.928 322.165 200.973 321.4 201.689 320.752L201.004 319.993C200.346 320.587 199.354 321.318 198.013 322.186L198.569 323.045ZM201.699 320.743C202.462 320.017 202.944 319.172 203.114 318.212L202.107 318.034C201.979 318.753 201.619 319.407 200.994 320.002L201.699 320.743ZM203.114 318.212C203.351 316.878 202.951 315.702 201.957 314.734L201.243 315.468C202.007 316.211 202.281 317.05 202.107 318.034L203.114 318.212ZM201.974 314.751C201.046 313.761 199.738 313.14 198.103 312.852L197.925 313.86C199.407 314.121 200.49 314.664 201.226 315.451L201.974 314.751ZM198.103 312.852C196.421 312.555 194.804 312.683 193.262 313.242L193.61 314.204C194.975 313.709 196.41 313.593 197.925 313.86L198.103 312.852ZM193.255 313.245C191.756 313.811 190.459 314.739 189.366 316.019L190.144 316.683C191.132 315.526 192.288 314.703 193.616 314.202L193.255 313.245ZM190.072 315.949L181.988 309.578L181.354 310.382L189.438 316.752L190.072 315.949ZM182.061 310.311C184.13 307.879 186.751 306.162 189.937 305.16L189.63 304.184C186.268 305.242 183.481 307.063 181.282 309.648L182.061 310.311ZM189.937 305.16C193.115 304.16 196.784 304.015 200.96 304.751L201.139 303.744C196.841 302.986 193 303.124 189.63 304.184L189.937 305.16ZM200.96 304.751C205.65 305.578 209.182 307.217 211.609 309.627L212.331 308.901C209.711 306.3 205.962 304.594 201.139 303.744L200.96 304.751ZM211.615 309.633C214.061 311.986 214.978 314.828 214.378 318.219L215.385 318.397C216.045 314.675 215.02 311.488 212.325 308.895L211.615 309.633ZM214.378 318.219C214.098 319.8 213.582 321.141 212.841 322.253L213.693 322.82C214.524 321.571 215.085 320.093 215.385 318.397L214.378 318.219ZM212.844 322.248C212.091 323.35 211.26 324.248 210.353 324.95L210.978 325.759C211.982 324.983 212.884 324.003 213.689 322.825L212.844 322.248ZM210.352 324.95C209.465 325.639 208.314 326.41 206.895 327.265L207.422 328.141C208.862 327.274 210.05 326.48 210.979 325.758L210.352 324.95ZM206.899 327.262C205.322 328.189 204.11 329.033 203.283 329.796L203.976 330.548C204.726 329.857 205.866 329.056 207.417 328.144L206.899 327.262ZM203.292 329.788C202.419 330.555 201.878 331.545 201.667 332.731L202.675 332.909C202.847 331.938 203.278 331.161 203.967 330.556L203.292 329.788ZM202.26 332.316L191.588 330.435L191.41 331.442L202.082 333.324L202.26 332.316ZM194.121 347.201C192.275 346.876 190.883 346.052 189.904 344.744L189.085 345.357C190.238 346.898 191.873 347.844 193.943 348.209L194.121 347.201ZM189.909 344.751C188.929 343.397 188.589 341.925 188.876 340.305L187.868 340.127C187.532 342.024 187.94 343.776 189.08 345.351L189.909 344.751ZM188.876 340.305C189.171 338.637 189.978 337.395 191.295 336.536L190.737 335.679C189.167 336.702 188.21 338.199 187.868 340.127L188.876 340.305ZM191.289 336.541C192.649 335.686 194.257 335.406 196.151 335.74L196.33 334.733C194.227 334.362 192.353 334.663 190.744 335.675L191.289 336.541ZM196.151 335.74C198.046 336.074 199.461 336.887 200.445 338.155L201.253 337.528C200.09 336.028 198.432 335.103 196.33 334.733L196.151 335.74ZM200.445 338.155C201.426 339.42 201.773 340.864 201.478 342.527L202.486 342.705C202.828 340.771 202.42 339.032 201.253 337.528L200.445 338.155ZM201.478 342.527C201.191 344.147 200.366 345.413 198.98 346.35L199.553 347.197C201.165 346.107 202.15 344.602 202.486 342.705L201.478 342.527ZM198.987 346.345C197.62 347.238 196.011 347.535 194.121 347.201L193.943 348.209C196.05 348.581 197.931 348.257 199.546 347.202L198.987 346.345Z" fill="#271A58" mask="url(#path-31-outside-8_14_3868)"/>
<rect x="0.202599" y="0.28958" width="105.961" height="141.448" rx="18.775" transform="matrix(0.984808 0.173648 -0.174411 0.984673 268.725 266.379)" fill="#AD61FF"/>
<rect x="0.202599" y="0.28958" width="105.961" height="141.448" rx="18.775" transform="matrix(0.984808 0.173648 -0.174411 0.984673 268.725 266.379)" stroke="#271A58" stroke-width="0.5"/>
<mask id="path-34-outside-9_14_3868" maskUnits="userSpaceOnUse" x="289.645" y="325.036" width="35.9974" height="41.6423" fill="black">
<rect fill="white" x="289.645" y="325.036" width="35.9974" height="41.6423"/>
<path d="M303.584 350.194C303.87 348.582 304.459 347.323 305.351 346.416C306.249 345.477 307.486 344.499 309.063 343.48C310.152 342.774 310.974 342.171 311.528 341.67C312.088 341.137 312.428 340.532 312.548 339.855C312.714 338.92 312.442 338.108 311.733 337.417C311.062 336.701 310.098 336.231 308.84 336.01C307.55 335.782 306.319 335.881 305.146 336.306C304.006 336.737 303.016 337.443 302.177 338.426L295.656 333.286C297.377 331.262 299.559 329.835 302.2 329.004C304.841 328.173 307.871 328.059 311.289 328.661C315.126 329.338 318.063 330.687 320.099 332.708C322.173 334.703 322.956 337.136 322.448 340.005C322.214 341.327 321.779 342.464 321.145 343.416C320.517 344.336 319.817 345.094 319.047 345.689C318.314 346.258 317.371 346.89 316.217 347.584C314.955 348.326 314.006 348.99 313.37 349.576C312.74 350.13 312.348 350.842 312.194 351.712L303.584 350.194ZM305.628 363.721C304.048 363.442 302.827 362.728 301.967 361.579C301.112 360.398 300.81 359.098 301.061 357.679C301.318 356.228 302.029 355.124 303.195 354.365C304.392 353.612 305.797 353.377 307.409 353.662C309.022 353.946 310.261 354.647 311.127 355.764C311.993 356.88 312.298 358.164 312.041 359.615C311.79 361.034 311.06 362.152 309.851 362.969C308.648 363.755 307.24 364.005 305.628 363.721Z"/>
</mask>
<path d="M303.584 350.194C303.87 348.582 304.459 347.323 305.351 346.416C306.249 345.477 307.486 344.499 309.063 343.48C310.152 342.774 310.974 342.171 311.528 341.67C312.088 341.137 312.428 340.532 312.548 339.855C312.714 338.92 312.442 338.108 311.733 337.417C311.062 336.701 310.098 336.231 308.84 336.01C307.55 335.782 306.319 335.881 305.146 336.306C304.006 336.737 303.016 337.443 302.177 338.426L295.656 333.286C297.377 331.262 299.559 329.835 302.2 329.004C304.841 328.173 307.871 328.059 311.289 328.661C315.126 329.338 318.063 330.687 320.099 332.708C322.173 334.703 322.956 337.136 322.448 340.005C322.214 341.327 321.779 342.464 321.145 343.416C320.517 344.336 319.817 345.094 319.047 345.689C318.314 346.258 317.371 346.89 316.217 347.584C314.955 348.326 314.006 348.99 313.37 349.576C312.74 350.13 312.348 350.842 312.194 351.712L303.584 350.194ZM305.628 363.721C304.048 363.442 302.827 362.728 301.967 361.579C301.112 360.398 300.81 359.098 301.061 357.679C301.318 356.228 302.029 355.124 303.195 354.365C304.392 353.612 305.797 353.377 307.409 353.662C309.022 353.946 310.261 354.647 311.127 355.764C311.993 356.88 312.298 358.164 312.041 359.615C311.79 361.034 311.06 362.152 309.851 362.969C308.648 363.755 307.24 364.005 305.628 363.721Z" fill="white"/>
<path d="M303.584 350.194L303.08 350.105L302.991 350.609L303.495 350.698L303.584 350.194ZM305.351 346.416L305.715 346.775L305.72 346.77L305.351 346.416ZM309.063 343.48L309.341 343.91L309.341 343.909L309.063 343.48ZM311.528 341.67L311.871 342.05L311.881 342.041L311.528 341.67ZM311.733 337.417L311.359 337.767L311.367 337.776L311.376 337.784L311.733 337.417ZM305.146 336.306L304.972 335.825L304.966 335.827L305.146 336.306ZM302.177 338.426L301.86 338.827L302.247 339.132L302.566 338.758L302.177 338.426ZM295.656 333.286L295.266 332.955L294.922 333.359L295.339 333.688L295.656 333.286ZM302.2 329.004L302.353 329.492L302.353 329.492L302.2 329.004ZM320.099 332.708L319.738 333.072L319.744 333.077L320.099 332.708ZM321.145 343.416L321.568 343.704L321.571 343.699L321.145 343.416ZM319.047 345.689L318.734 345.285L318.733 345.285L319.047 345.689ZM316.217 347.584L316.476 348.025L316.481 348.022L316.217 347.584ZM313.37 349.576L313.708 349.96L313.717 349.952L313.37 349.576ZM312.194 351.712L312.105 352.216L312.608 352.305L312.698 351.801L312.194 351.712ZM301.967 361.579L301.552 361.879L301.557 361.886L301.967 361.579ZM303.195 354.365L302.922 353.932L302.916 353.936L303.195 354.365ZM311.127 355.764L310.723 356.077L311.127 355.764ZM309.851 362.969L310.13 363.398L310.137 363.393L309.851 362.969ZM304.088 350.283C304.361 348.744 304.914 347.589 305.715 346.775L304.986 346.058C304.003 347.057 303.379 348.421 303.08 350.105L304.088 350.283ZM305.72 346.77C306.581 345.869 307.784 344.915 309.341 343.91L308.786 343.05C307.188 344.082 305.916 345.085 304.981 346.063L305.72 346.77ZM309.341 343.909C310.439 343.198 311.287 342.578 311.871 342.05L311.186 341.291C310.661 341.765 309.866 342.351 308.785 343.051L309.341 343.909ZM311.881 342.041C312.51 341.442 312.911 340.742 313.052 339.944L312.044 339.767C311.946 340.323 311.667 340.833 311.176 341.3L311.881 342.041ZM313.052 339.944C313.249 338.834 312.914 337.853 312.09 337.051L311.376 337.784C311.97 338.362 312.179 339.007 312.044 339.767L313.052 339.944ZM312.107 337.068C311.34 336.249 310.263 335.741 308.929 335.506L308.751 336.513C309.932 336.722 310.784 337.152 311.359 337.767L312.107 337.068ZM308.929 335.506C307.556 335.264 306.233 335.368 304.972 335.825L305.32 336.787C306.404 336.394 307.545 336.301 308.751 336.513L308.929 335.506ZM304.966 335.827C303.74 336.29 302.68 337.05 301.788 338.094L302.566 338.758C303.353 337.837 304.272 337.183 305.327 336.784L304.966 335.827ZM302.494 338.024L295.972 332.884L295.339 333.688L301.86 338.827L302.494 338.024ZM296.045 333.617C297.702 331.67 299.8 330.295 302.353 329.492L302.047 328.516C299.318 329.374 297.053 330.854 295.266 332.955L296.045 333.617ZM302.353 329.492C304.899 328.691 307.842 328.573 311.2 329.165L311.378 328.158C307.899 327.544 304.784 327.655 302.047 328.516L302.353 329.492ZM311.2 329.165C314.97 329.83 317.798 331.146 319.738 333.072L320.46 332.345C318.327 330.228 315.282 328.846 311.378 328.158L311.2 329.165ZM319.744 333.077C321.694 334.952 322.423 337.212 321.944 339.916L322.952 340.094C323.489 337.059 322.653 334.454 320.454 332.34L319.744 333.077ZM321.944 339.916C321.72 341.18 321.308 342.249 320.719 343.133L321.571 343.699C322.251 342.679 322.707 341.473 322.952 340.094L321.944 339.916ZM320.723 343.128C320.12 344.01 319.456 344.726 318.734 345.285L319.36 346.094C320.178 345.461 320.913 344.662 321.568 343.704L320.723 343.128ZM318.733 345.285C318.022 345.838 317.097 346.458 315.953 347.146L316.481 348.022C317.645 347.322 318.606 346.679 319.36 346.093L318.733 345.285ZM315.958 347.143C314.683 347.893 313.698 348.578 313.024 349.2L313.717 349.952C314.314 349.402 315.227 348.759 316.476 348.025L315.958 347.143ZM313.033 349.192C312.31 349.827 311.863 350.645 311.69 351.624L312.698 351.801C312.833 351.038 313.17 350.433 313.708 349.96L313.033 349.192ZM312.283 351.209L303.673 349.691L303.495 350.698L312.105 352.216L312.283 351.209ZM305.717 363.217C304.249 362.958 303.15 362.305 302.376 361.273L301.557 361.886C302.505 363.152 303.847 363.926 305.538 364.225L305.717 363.217ZM302.381 361.279C301.606 360.208 301.338 359.048 301.565 357.768L300.557 357.59C300.282 359.147 300.617 360.587 301.552 361.879L302.381 361.279ZM301.565 357.768C301.799 356.447 302.435 355.47 303.474 354.793L302.916 353.936C301.624 354.777 300.838 356.009 300.557 357.59L301.565 357.768ZM303.467 354.798C304.54 354.123 305.812 353.899 307.32 354.165L307.499 353.158C305.782 352.855 304.244 353.101 302.922 353.932L303.467 354.798ZM307.32 354.165C308.828 354.431 309.946 355.076 310.723 356.077L311.532 355.45C310.575 354.217 309.215 353.461 307.499 353.158L307.32 354.165ZM310.723 356.077C311.496 357.075 311.77 358.211 311.537 359.526L312.545 359.704C312.826 358.118 312.49 356.686 311.532 355.45L310.723 356.077ZM311.537 359.526C311.31 360.807 310.66 361.805 309.564 362.546L310.137 363.393C311.459 362.499 312.269 361.261 312.545 359.704L311.537 359.526ZM309.571 362.541C308.492 363.245 307.22 363.482 305.717 363.217L305.538 364.225C307.259 364.528 308.803 364.264 310.13 363.398L309.571 362.541Z" fill="#271A58" mask="url(#path-34-outside-9_14_3868)"/>
<rect x="0.202599" y="0.28958" width="105.961" height="141.448" rx="18.775" transform="matrix(0.984808 0.173648 -0.174411 0.984673 379.724 285.951)" fill="#565EEF"/>
<rect x="0.202599" y="0.28958" width="105.961" height="141.448" rx="18.775" transform="matrix(0.984808 0.173648 -0.174411 0.984673 379.724 285.951)" stroke="#271A58" stroke-width="0.5"/>
<g filter="url(#filter1_d_14_3868)">
<rect width="138.133" height="184.177" rx="19.025" transform="matrix(0.984808 0.173648 -0.174411 0.984673 171.538 77.3775)" fill="#FFC700"/>
<rect x="-0.202599" y="-0.28958" width="138.633" height="184.677" rx="19.275" transform="matrix(0.984808 0.173648 -0.174411 0.984673 171.485 77.4083)" stroke="#271A58" stroke-width="0.5"/>
<rect x="-0.202599" y="-0.28958" width="138.633" height="184.677" rx="19.275" transform="matrix(0.984808 0.173648 -0.174411 0.984673 171.485 77.4083)" stroke="black" stroke-opacity="0.2" stroke-width="0.5"/>
</g>
<path d="M176.645 212.378L256.586 226.473L270.743 146.544L190.803 132.449L176.645 212.378Z" fill="white"/>
</g>
<rect x="67" y="369" width="108" height="36" rx="18" fill="#F7F7F7"/>
<path d="M84.744 380.8H86.328V389.44L92.952 380.8H94.424V392H92.856V383.376L86.216 392H84.744V380.8ZM103.9 384.864H99.1959V392H97.6599V383.52H103.9V384.864ZM109.968 383.44C110.79 383.44 111.526 383.621 112.176 383.984C112.827 384.347 113.334 384.853 113.696 385.504C114.07 386.155 114.256 386.907 114.256 387.76C114.256 388.613 114.07 389.371 113.696 390.032C113.334 390.683 112.827 391.189 112.176 391.552C111.526 391.915 110.79 392.096 109.968 392.096C109.36 392.096 108.8 391.979 108.288 391.744C107.787 391.509 107.36 391.168 107.008 390.72V395.104H105.472V383.52H106.944V384.864C107.286 384.395 107.718 384.043 108.24 383.808C108.763 383.563 109.339 383.44 109.968 383.44ZM109.84 390.752C110.384 390.752 110.87 390.629 111.296 390.384C111.734 390.128 112.075 389.776 112.32 389.328C112.576 388.869 112.704 388.347 112.704 387.76C112.704 387.173 112.576 386.656 112.32 386.208C112.075 385.749 111.734 385.397 111.296 385.152C110.87 384.907 110.384 384.784 109.84 384.784C109.307 384.784 108.822 384.912 108.384 385.168C107.958 385.413 107.616 385.76 107.36 386.208C107.115 386.656 106.992 387.173 106.992 387.76C106.992 388.347 107.115 388.869 107.36 389.328C107.606 389.776 107.947 390.128 108.384 390.384C108.822 390.629 109.307 390.752 109.84 390.752ZM119.434 383.44C120.607 383.44 121.503 383.728 122.122 384.304C122.751 384.88 123.066 385.739 123.066 386.88V392H121.61V390.88C121.354 391.275 120.986 391.579 120.506 391.792C120.037 391.995 119.477 392.096 118.826 392.096C117.877 392.096 117.114 391.867 116.538 391.408C115.973 390.949 115.69 390.347 115.69 389.6C115.69 388.853 115.962 388.256 116.506 387.808C117.05 387.349 117.914 387.12 119.098 387.12H121.53V386.816C121.53 386.155 121.338 385.648 120.954 385.296C120.57 384.944 120.005 384.768 119.258 384.768C118.757 384.768 118.266 384.853 117.786 385.024C117.306 385.184 116.901 385.403 116.57 385.68L115.93 384.528C116.367 384.176 116.89 383.909 117.498 383.728C118.106 383.536 118.751 383.44 119.434 383.44ZM119.082 390.912C119.669 390.912 120.175 390.784 120.602 390.528C121.029 390.261 121.338 389.888 121.53 389.408V388.224H119.162C117.861 388.224 117.21 388.661 117.21 389.536C117.21 389.963 117.375 390.299 117.706 390.544C118.037 390.789 118.495 390.912 119.082 390.912ZM144.257 385.872C143.713 385.872 143.222 385.76 142.785 385.536C142.358 385.312 142.022 385.003 141.777 384.608C141.531 384.213 141.409 383.771 141.409 383.28C141.409 382.789 141.531 382.347 141.777 381.952C142.022 381.557 142.358 381.253 142.785 381.04C143.222 380.816 143.713 380.704 144.257 380.704C144.801 380.704 145.286 380.816 145.713 381.04C146.15 381.253 146.486 381.557 146.721 381.952C146.966 382.347 147.089 382.789 147.089 383.28C147.089 383.771 146.966 384.213 146.721 384.608C146.486 385.003 146.15 385.312 145.713 385.536C145.286 385.76 144.801 385.872 144.257 385.872ZM138.353 380.8H139.953V392H138.641L131.921 383.648V392H130.321V380.8H131.633L138.353 389.152V380.8ZM144.257 381.616C143.723 381.616 143.291 381.771 142.961 382.08C142.641 382.389 142.481 382.789 142.481 383.28C142.481 383.771 142.646 384.171 142.977 384.48C143.307 384.789 143.734 384.944 144.257 384.944C144.779 384.944 145.201 384.789 145.521 384.48C145.851 384.171 146.017 383.771 146.017 383.28C146.017 382.789 145.851 382.389 145.521 382.08C145.201 381.771 144.779 381.616 144.257 381.616ZM141.729 387.136H146.785V388.176H141.729V387.136ZM158.215 389.248H156.087V392H154.535V389.248H148.311V388.128L154.039 380.8H155.767L150.279 387.872H154.583V385.44H156.087V387.872H158.215V389.248Z" fill="#271A58"/>
<path d="M78.456 442.976H74.872V452H69.72V429.6H74.872V438.656H78.584L84.472 429.6H89.944L82.616 440.416L90.168 452H84.28L78.456 442.976ZM99.0568 434.528C101.723 434.528 103.771 435.168 105.201 436.448C106.63 437.707 107.345 439.616 107.345 442.176V452H102.673V449.856C101.734 451.456 99.9848 452.256 97.4248 452.256C96.1021 452.256 94.9501 452.032 93.9688 451.584C93.0088 451.136 92.2728 450.517 91.7608 449.728C91.2488 448.939 90.9928 448.043 90.9928 447.04C90.9928 445.44 91.5901 444.181 92.7848 443.264C94.0008 442.347 95.8674 441.888 98.3848 441.888H102.353C102.353 440.8 102.022 439.968 101.361 439.392C100.699 438.795 99.7074 438.496 98.3848 438.496C97.4674 438.496 96.5608 438.645 95.6648 438.944C94.7901 439.221 94.0434 439.605 93.4248 440.096L91.6328 436.608C92.5714 435.947 93.6914 435.435 94.9928 435.072C96.3154 434.709 97.6701 434.528 99.0568 434.528ZM98.6728 448.896C99.5261 448.896 100.283 448.704 100.945 448.32C101.606 447.915 102.075 447.328 102.353 446.56V444.8H98.9288C96.8808 444.8 95.8568 445.472 95.8568 446.816C95.8568 447.456 96.1021 447.968 96.5928 448.352C97.1048 448.715 97.7981 448.896 98.6728 448.896ZM128.481 452V441.696L123.329 450.336H121.217L116.193 441.664V452H111.681V434.784H116.897L122.401 444.736L128.257 434.784H132.929L132.993 452H128.481ZM154.511 443.456C154.511 443.52 154.479 443.968 154.415 444.8H141.391C141.626 445.867 142.18 446.709 143.055 447.328C143.93 447.947 145.018 448.256 146.319 448.256C147.215 448.256 148.004 448.128 148.687 447.872C149.391 447.595 150.042 447.168 150.639 446.592L153.295 449.472C151.674 451.328 149.306 452.256 146.191 452.256C144.25 452.256 142.532 451.883 141.039 451.136C139.546 450.368 138.394 449.312 137.583 447.968C136.772 446.624 136.367 445.099 136.367 443.392C136.367 441.707 136.762 440.192 137.551 438.848C138.362 437.483 139.46 436.427 140.847 435.68C142.255 434.912 143.823 434.528 145.551 434.528C147.236 434.528 148.762 434.891 150.127 435.616C151.492 436.341 152.559 437.387 153.327 438.752C154.116 440.096 154.511 441.664 154.511 443.456ZM145.583 438.304C144.452 438.304 143.503 438.624 142.735 439.264C141.967 439.904 141.498 440.779 141.327 441.888H149.807C149.636 440.8 149.167 439.936 148.399 439.296C147.631 438.635 146.692 438.304 145.583 438.304ZM158.338 434.784H163.298V441.504H170.786V434.784H175.778V452H170.786V445.568H163.298V452H158.338V434.784ZM189.868 440.288C192.108 440.309 193.826 440.821 195.02 441.824C196.215 442.805 196.812 444.203 196.812 446.016C196.812 447.915 196.14 449.397 194.796 450.464C193.474 451.509 191.607 452.032 189.196 452.032L180.556 452V434.784H185.516V440.288H189.868ZM188.748 448.48C189.708 448.501 190.444 448.299 190.956 447.872C191.468 447.445 191.724 446.805 191.724 445.952C191.724 445.12 191.468 444.512 190.956 444.128C190.466 443.744 189.73 443.541 188.748 443.52L185.516 443.488V448.48H188.748ZM201.63 446.048C202.526 446.048 203.262 446.336 203.838 446.912C204.414 447.467 204.702 448.203 204.702 449.12C204.702 449.547 204.649 449.973 204.542 450.4C204.436 450.827 204.201 451.467 203.838 452.32L202.014 456.928H198.846L200.254 451.84C199.721 451.627 199.294 451.285 198.974 450.816C198.676 450.325 198.526 449.76 198.526 449.12C198.526 448.203 198.814 447.467 199.39 446.912C199.988 446.336 200.734 446.048 201.63 446.048ZM69.4 473.784H74.36V480.504H81.848V473.784H86.84V491H81.848V484.568H74.36V491H69.4V473.784ZM99.6828 491.256C97.8694 491.256 96.2374 490.883 94.7868 490.136C93.3574 489.368 92.2374 488.312 91.4268 486.968C90.6161 485.624 90.2108 484.099 90.2108 482.392C90.2108 480.685 90.6161 479.16 91.4268 477.816C92.2374 476.472 93.3574 475.427 94.7868 474.68C96.2374 473.912 97.8694 473.528 99.6828 473.528C101.496 473.528 103.117 473.912 104.547 474.68C105.976 475.427 107.096 476.472 107.907 477.816C108.717 479.16 109.123 480.685 109.123 482.392C109.123 484.099 108.717 485.624 107.907 486.968C107.096 488.312 105.976 489.368 104.547 490.136C103.117 490.883 101.496 491.256 99.6828 491.256ZM99.6828 487.16C100.963 487.16 102.008 486.733 102.819 485.88C103.651 485.005 104.067 483.843 104.067 482.392C104.067 480.941 103.651 479.789 102.819 478.936C102.008 478.061 100.963 477.624 99.6828 477.624C98.4028 477.624 97.3468 478.061 96.5148 478.936C95.6828 479.789 95.2668 480.941 95.2668 482.392C95.2668 483.843 95.6828 485.005 96.5148 485.88C97.3468 486.733 98.4028 487.16 99.6828 487.16ZM129.081 484.472H126.681V491H121.753V484.472H119.353L115.705 491H109.817L115.225 482.104L110.201 473.784H115.481L119.289 480.472H121.753V473.784H126.681V480.472H129.113L132.953 473.784H138.233L133.209 482.104L138.649 491H132.729L129.081 484.472ZM141.244 473.784H146.204V480.504H153.692V473.784H158.684V491H153.692V484.568H146.204V491H141.244V473.784ZM163.463 473.784H168.423V484.024L176.807 473.784H181.383V491H176.423V480.76L168.071 491H163.463V473.784ZM205.573 486.904V494.776H200.933V491H186.181V473.784H191.141V486.904H198.085V473.784H203.077V486.904H205.573ZM217.769 479.288C220.009 479.309 221.705 479.811 222.857 480.792C224.009 481.773 224.585 483.181 224.585 485.016C224.585 486.936 223.934 488.419 222.633 489.464C221.331 490.509 219.486 491.032 217.097 491.032L208.713 491V473.784H213.673V479.288H217.769ZM226.441 473.784H231.401V491H226.441V473.784ZM216.649 487.48C217.609 487.501 218.345 487.299 218.857 486.872C219.369 486.445 219.625 485.805 219.625 484.952C219.625 484.12 219.369 483.512 218.857 483.128C218.366 482.744 217.63 482.541 216.649 482.52L213.673 482.488V487.48H216.649ZM238.036 485.048C238.933 485.048 239.669 485.336 240.245 485.912C240.821 486.467 241.109 487.203 241.109 488.12C241.109 488.547 241.055 488.973 240.949 489.4C240.842 489.827 240.607 490.467 240.245 491.32L238.421 495.928H235.253L236.661 490.84C236.127 490.627 235.701 490.285 235.381 489.816C235.082 489.325 234.933 488.76 234.933 488.12C234.933 487.203 235.221 486.467 235.797 485.912C236.394 485.336 237.141 485.048 238.036 485.048ZM79.352 513.968C80.9947 513.968 82.4347 514.309 83.672 514.992C84.9093 515.653 85.8587 516.592 86.52 517.808C87.2027 519.024 87.544 520.432 87.544 522.032C87.544 523.675 87.1387 525.136 86.328 526.416C85.5387 527.675 84.4293 528.656 83 529.36C81.5707 530.043 79.9493 530.384 78.136 530.384C75.128 530.384 72.76 529.424 71.032 527.504C69.3253 525.563 68.472 522.725 68.472 518.992C68.472 515.536 69.2187 512.784 70.712 510.736C72.2267 508.667 74.5413 507.312 77.656 506.672L85.848 505.04L86.52 509.328L79.288 510.768C77.3253 511.152 75.864 511.792 74.904 512.688C73.9653 513.584 73.4107 514.853 73.24 516.496C73.9867 515.685 74.8827 515.067 75.928 514.64C76.9733 514.192 78.1147 513.968 79.352 513.968ZM78.168 526.512C79.448 526.512 80.472 526.096 81.24 525.264C82.0293 524.432 82.424 523.376 82.424 522.096C82.424 520.795 82.0293 519.76 81.24 518.992C80.472 518.224 79.448 517.84 78.168 517.84C76.8667 517.84 75.8213 518.224 75.032 518.992C74.2427 519.76 73.848 520.795 73.848 522.096C73.848 523.397 74.2533 524.464 75.064 525.296C75.8747 526.107 76.9093 526.512 78.168 526.512ZM107.711 512.784L99.9345 531.056C99.1452 533.04 98.1638 534.437 96.9905 535.248C95.8385 536.059 94.4412 536.464 92.7985 536.464C91.9025 536.464 91.0172 536.325 90.1425 536.048C89.2678 535.771 88.5532 535.387 87.9985 534.896L89.8225 531.344C90.2065 531.685 90.6438 531.952 91.1345 532.144C91.6465 532.336 92.1478 532.432 92.6385 532.432C93.3212 532.432 93.8758 532.261 94.3025 531.92C94.7292 531.6 95.1132 531.056 95.4545 530.288L95.5185 530.128L88.0625 512.784H93.2145L98.0465 524.464L102.911 512.784H107.711ZM126.919 530V519.696L121.767 528.336H119.655L114.631 519.664V530H110.119V512.784H115.335L120.839 522.736L126.695 512.784H131.367L131.431 530H126.919ZM142.901 512.528C145.567 512.528 147.615 513.168 149.045 514.448C150.474 515.707 151.189 517.616 151.189 520.176V530H146.517V527.856C145.578 529.456 143.829 530.256 141.269 530.256C139.946 530.256 138.794 530.032 137.812 529.584C136.853 529.136 136.117 528.517 135.605 527.728C135.093 526.939 134.837 526.043 134.837 525.04C134.837 523.44 135.434 522.181 136.629 521.264C137.845 520.347 139.711 519.888 142.229 519.888H146.197C146.197 518.8 145.866 517.968 145.205 517.392C144.543 516.795 143.551 516.496 142.229 516.496C141.311 516.496 140.405 516.645 139.509 516.944C138.634 517.221 137.887 517.605 137.269 518.096L135.477 514.608C136.415 513.947 137.535 513.435 138.837 513.072C140.159 512.709 141.514 512.528 142.901 512.528ZM142.517 526.896C143.37 526.896 144.127 526.704 144.789 526.32C145.45 525.915 145.919 525.328 146.197 524.56V522.8H142.773C140.725 522.8 139.701 523.472 139.701 524.816C139.701 525.456 139.946 525.968 140.437 526.352C140.949 526.715 141.642 526.896 142.517 526.896ZM169.317 516.88H160.485V530H155.525V512.784H169.317V516.88ZM178.651 512.528C181.317 512.528 183.365 513.168 184.795 514.448C186.224 515.707 186.939 517.616 186.939 520.176V530H182.267V527.856C181.328 529.456 179.579 530.256 177.019 530.256C175.696 530.256 174.544 530.032 173.562 529.584C172.603 529.136 171.867 528.517 171.355 527.728C170.843 526.939 170.587 526.043 170.587 525.04C170.587 523.44 171.184 522.181 172.379 521.264C173.595 520.347 175.461 519.888 177.979 519.888H181.947C181.947 518.8 181.616 517.968 180.955 517.392C180.293 516.795 179.301 516.496 177.979 516.496C177.061 516.496 176.155 516.645 175.259 516.944C174.384 517.221 173.637 517.605 173.019 518.096L171.227 514.608C172.165 513.947 173.285 513.435 174.587 513.072C175.909 512.709 177.264 512.528 178.651 512.528ZM178.267 526.896C179.12 526.896 179.877 526.704 180.539 526.32C181.2 525.915 181.669 525.328 181.947 524.56V522.8H178.523C176.475 522.8 175.451 523.472 175.451 524.816C175.451 525.456 175.696 525.968 176.187 526.352C176.699 526.715 177.392 526.896 178.267 526.896Z" fill="#202027"/>
</g>
<defs>
<filter id="filter0_d_14_3868" x="0.316187" y="0.928482" width="447.368" height="620.368" filterUnits="userSpaceOnUse" color-interpolation-filters="sRGB">
<feFlood flood-opacity="0" result="BackgroundImageFix"/>
<feColorMatrix in="SourceAlpha" type="matrix" values="0 0 0 0 0 0 0 0 0 0 0 0 0 0 0 0 0 0 127 0" result="hardAlpha"/>
<feMorphology radius="7.56738" operator="erode" in="SourceAlpha" result="effect1_dropShadow_14_3868"/>
<feOffset dy="12.6123"/>
<feGaussianBlur stdDeviation="21.1256"/>
<feComposite in2="hardAlpha" operator="out"/>
<feColorMatrix type="matrix" values="0 0 0 0 0 0 0 0 0 0 0 0 0 0 0 0 0 0 0.13 0"/>
<feBlend mode="normal" in2="BackgroundImageFix" result="effect1_dropShadow_14_3868"/>
<feBlend mode="normal" in="SourceGraphic" in2="effect1_dropShadow_14_3868" result="shape"/>
</filter>
<filter id="filter1_d_14_3868" x="97.4348" y="50.6622" width="252.119" height="289.303" filterUnits="userSpaceOnUse" color-interpolation-filters="sRGB">
<feFlood flood-opacity="0" result="BackgroundImageFix"/>
<feColorMatrix in="SourceAlpha" type="matrix" values="0 0 0 0 0 0 0 0 0 0 0 0 0 0 0 0 0 0 127 0" result="hardAlpha"/>
<feMorphology radius="9.15954" operator="erode" in="SourceAlpha" result="effect1_dropShadow_14_3868"/>
<feOffset dy="15.2659"/>
<feGaussianBlur stdDeviation="25.5704"/>
<feComposite in2="hardAlpha" operator="out"/>
<feColorMatrix type="matrix" values="0 0 0 0 0 0 0 0 0 0 0 0 0 0 0 0 0 0 0.3 0"/>
<feBlend mode="normal" in2="BackgroundImageFix" result="effect1_dropShadow_14_3868"/>
<feBlend mode="normal" in="SourceGraphic" in2="effect1_dropShadow_14_3868" result="shape"/>
</filter>
<clipPath id="clip0_14_3868">
<rect x="35" y="23" width="378" height="314" rx="30" fill="white"/>
</clipPath>
</defs>
</svg>
