<svg width="448" height="583" viewBox="0 0 448 583" fill="none" xmlns="http://www.w3.org/2000/svg">
<g filter="url(#filter0_d_14_3767)">
<rect x="35" y="23" width="378" height="512" rx="30" fill="white" shape-rendering="crispEdges"/>
<g clip-path="url(#clip0_14_3767)">
<rect x="35" y="23" width="378" height="314" rx="30" fill="#99D100"/>
<rect x="0.202599" y="0.28958" width="105.961" height="141.448" rx="18.775" transform="matrix(0.984808 0.173648 -0.174411 0.984673 -12.838 -84.0117)" fill="#BCEC30"/>
<rect x="0.202599" y="0.28958" width="105.961" height="141.448" rx="18.775" transform="matrix(0.984808 0.173648 -0.174411 0.984673 -12.838 -84.0117)" stroke="#202027" stroke-width="0.5"/>
<rect x="0.202599" y="0.28958" width="105.961" height="141.448" rx="18.775" transform="matrix(0.984808 0.173648 -0.174411 0.984673 98.16 -64.4398)" fill="#BCEC30"/>
<rect x="0.202599" y="0.28958" width="105.961" height="141.448" rx="18.775" transform="matrix(0.984808 0.173648 -0.174411 0.984673 98.16 -64.4398)" stroke="#202027" stroke-width="0.5"/>
<mask id="path-6-outside-1_14_3767" maskUnits="userSpaceOnUse" x="119.079" y="-5.78208" width="35.9974" height="41.6423" fill="black">
<rect fill="white" x="119.079" y="-5.78208" width="35.9974" height="41.6423"/>
<path d="M133.019 19.3758C133.304 17.7637 133.893 16.5044 134.785 15.5977C135.683 14.6589 136.921 13.6801 138.498 12.6615C139.587 11.9559 140.409 11.3527 140.963 10.8519C141.523 10.319 141.863 9.71393 141.983 9.03686C142.148 8.10186 141.877 7.28923 141.168 6.59898C140.497 5.88218 139.532 5.4129 138.275 5.19115C136.985 4.96372 135.754 5.06248 134.581 5.48744C133.441 5.91808 132.451 6.62465 131.612 7.60714L125.09 2.46739C126.812 0.443606 128.993 -0.983774 131.635 -1.81475C134.276 -2.64573 137.305 -2.75988 140.723 -2.15718C144.561 -1.48057 147.497 -0.131538 149.534 1.88991C151.608 3.88481 152.391 6.317 151.882 9.18649C151.648 10.5084 151.214 11.6454 150.58 12.5975C149.951 13.5174 149.252 14.2751 148.481 14.8707C147.749 15.4398 146.805 16.0714 145.652 16.7657C144.39 17.5074 143.441 18.1713 142.805 18.7574C142.175 19.3112 141.783 20.0234 141.628 20.8939L133.019 19.3758ZM135.062 32.9025C133.482 32.6239 132.262 31.91 131.401 30.7608C130.546 29.5793 130.245 28.2793 130.496 26.8607C130.753 25.4098 131.464 24.305 132.629 23.5463C133.827 22.7932 135.232 22.5588 136.844 22.8431C138.456 23.1274 139.695 23.8281 140.562 24.945C141.428 26.0619 141.733 27.3459 141.476 28.7967C141.224 30.2153 140.494 31.3334 139.285 32.151C138.082 32.9363 136.674 33.1868 135.062 32.9025Z"/>
</mask>
<path d="M133.019 19.3758C133.304 17.7637 133.893 16.5044 134.785 15.5977C135.683 14.6589 136.921 13.6801 138.498 12.6615C139.587 11.9559 140.409 11.3527 140.963 10.8519C141.523 10.319 141.863 9.71393 141.983 9.03686C142.148 8.10186 141.877 7.28923 141.168 6.59898C140.497 5.88218 139.532 5.4129 138.275 5.19115C136.985 4.96372 135.754 5.06248 134.581 5.48744C133.441 5.91808 132.451 6.62465 131.612 7.60714L125.09 2.46739C126.812 0.443606 128.993 -0.983774 131.635 -1.81475C134.276 -2.64573 137.305 -2.75988 140.723 -2.15718C144.561 -1.48057 147.497 -0.131538 149.534 1.88991C151.608 3.88481 152.391 6.317 151.882 9.18649C151.648 10.5084 151.214 11.6454 150.58 12.5975C149.951 13.5174 149.252 14.2751 148.481 14.8707C147.749 15.4398 146.805 16.0714 145.652 16.7657C144.39 17.5074 143.441 18.1713 142.805 18.7574C142.175 19.3112 141.783 20.0234 141.628 20.8939L133.019 19.3758ZM135.062 32.9025C133.482 32.6239 132.262 31.91 131.401 30.7608C130.546 29.5793 130.245 28.2793 130.496 26.8607C130.753 25.4098 131.464 24.305 132.629 23.5463C133.827 22.7932 135.232 22.5588 136.844 22.8431C138.456 23.1274 139.695 23.8281 140.562 24.945C141.428 26.0619 141.733 27.3459 141.476 28.7967C141.224 30.2153 140.494 31.3334 139.285 32.151C138.082 32.9363 136.674 33.1868 135.062 32.9025Z" fill="white"/>
<path d="M133.019 19.3758L132.515 19.287L132.426 19.7907L132.93 19.8796L133.019 19.3758ZM134.785 15.5977L135.15 15.9564L135.155 15.9511L134.785 15.5977ZM138.498 12.6615L138.775 13.0911L138.776 13.0907L138.498 12.6615ZM140.963 10.8519L141.306 11.2315L141.316 11.2223L140.963 10.8519ZM141.168 6.59898L140.794 6.9487L140.802 6.95735L140.811 6.96561L141.168 6.59898ZM134.581 5.48744L134.407 5.00649L134.4 5.00891L134.581 5.48744ZM131.612 7.60714L131.295 8.00896L131.681 8.31343L132.001 7.93914L131.612 7.60714ZM125.09 2.46739L124.7 2.13612L124.356 2.54066L124.773 2.86921L125.09 2.46739ZM131.635 -1.81475L131.788 -1.32681L131.788 -1.32681L131.635 -1.81475ZM149.534 1.88991L149.173 2.25307L149.179 2.25868L149.534 1.88991ZM150.58 12.5975L151.002 12.8859L151.006 12.8808L150.58 12.5975ZM148.481 14.8707L148.168 14.4661L148.168 14.4669L148.481 14.8707ZM145.652 16.7657L145.911 17.2066L145.915 17.2039L145.652 16.7657ZM142.805 18.7574L143.143 19.1415L143.152 19.1333L142.805 18.7574ZM141.628 20.8939L141.539 21.3977L142.043 21.4865L142.132 20.9828L141.628 20.8939ZM131.401 30.7608L130.987 31.0608L130.992 31.0675L131.401 30.7608ZM132.629 23.5463L132.357 23.1133L132.35 23.1177L132.629 23.5463ZM140.562 24.945L140.157 25.2586L140.562 24.945ZM139.285 32.151L139.565 32.5793L139.572 32.5746L139.285 32.151ZM133.523 19.4646C133.795 17.9253 134.349 16.7706 135.15 15.9564L134.421 15.2391C133.438 16.2382 132.813 17.6021 132.515 19.287L133.523 19.4646ZM135.155 15.9511C136.016 15.0508 137.218 14.0967 138.775 13.0911L138.22 12.2319C136.623 13.2635 135.35 14.2669 134.416 15.2444L135.155 15.9511ZM138.776 13.0907C139.874 12.3794 140.722 11.759 141.306 11.2314L140.62 10.4725C140.096 10.9464 139.3 11.5324 138.22 12.2323L138.776 13.0907ZM141.316 11.2223C141.945 10.6238 142.345 9.92346 142.487 9.1257L141.479 8.94802C141.38 9.5044 141.101 10.0142 140.61 10.4816L141.316 11.2223ZM142.487 9.1257C142.683 8.01562 142.349 7.03474 141.525 6.23236L140.811 6.96561C141.404 7.54373 141.614 8.1881 141.479 8.94802L142.487 9.1257ZM141.541 6.24927C140.775 5.43038 139.698 4.92257 138.364 4.68738L138.185 5.69493C139.367 5.90323 140.218 6.33398 140.794 6.9487L141.541 6.24927ZM138.364 4.68738C136.99 4.44521 135.668 4.54947 134.407 5.00653L134.755 5.96835C135.839 5.57549 136.979 5.48224 138.185 5.69493L138.364 4.68738ZM134.4 5.00891C133.174 5.47188 132.114 6.23108 131.223 7.27514L132.001 7.93914C132.787 7.01821 133.707 6.36428 134.761 5.96597L134.4 5.00891ZM131.929 7.20532L125.407 2.06557L124.773 2.86921L131.295 8.00896L131.929 7.20532ZM125.48 2.79866C127.136 0.851482 129.235 -0.523488 131.788 -1.32681L131.481 -2.30269C128.752 -1.44406 126.487 0.03573 124.7 2.13612L125.48 2.79866ZM131.788 -1.32681C134.333 -2.12765 137.277 -2.24538 140.634 -1.65341L140.813 -2.66095C137.334 -3.27437 134.218 -3.16382 131.481 -2.30269L131.788 -1.32681ZM140.634 -1.65341C144.405 -0.988576 147.233 0.327113 149.173 2.25302L149.894 1.5268C147.762 -0.590188 144.717 -1.97256 140.813 -2.66095L140.634 -1.65341ZM149.179 2.25868C151.128 4.1337 151.857 6.39355 151.378 9.09764L152.386 9.27533C152.924 6.24045 152.087 3.63592 149.888 1.52114L149.179 2.25868ZM151.378 9.09764C151.155 10.362 150.743 11.4302 150.154 12.3142L151.006 12.8808C151.685 11.8606 152.142 10.6548 152.386 9.27533L151.378 9.09764ZM150.157 12.3092C149.555 13.1911 148.891 13.9077 148.168 14.4661L148.794 15.2753C149.613 14.6426 150.348 13.8437 151.002 12.8858L150.157 12.3092ZM148.168 14.4669C147.456 15.0193 146.531 15.6394 145.388 16.3274L145.915 17.2039C147.079 16.5034 148.041 15.8603 148.795 15.2746L148.168 14.4669ZM145.393 16.3247C144.118 17.0741 143.133 17.7594 142.458 18.3814L143.152 19.1333C143.749 18.5831 144.662 17.9406 145.911 17.2066L145.393 16.3247ZM142.467 18.3733C141.745 19.0082 141.298 19.8268 141.125 20.8051L142.132 20.9828C142.267 20.22 142.605 19.6142 143.143 19.1414L142.467 18.3733ZM141.718 20.3901L133.108 18.872L132.93 19.8796L141.539 21.3977L141.718 20.3901ZM135.151 32.3987C133.683 32.1398 132.584 31.4867 131.811 30.454L130.992 31.0675C131.939 32.3332 133.281 33.1079 134.973 33.4062L135.151 32.3987ZM131.816 30.4608C131.041 29.3899 130.773 28.2299 131 26.9495L129.992 26.7719C129.716 28.3288 130.052 29.7688 130.987 31.0608L131.816 30.4608ZM131 26.9495C131.234 25.6287 131.87 24.6513 132.908 23.9749L132.35 23.1177C131.058 23.9588 130.272 25.191 129.992 26.7719L131 26.9495ZM132.901 23.9792C133.975 23.3044 135.246 23.081 136.755 23.3469L136.933 22.3394C135.217 22.0367 133.679 22.2821 132.357 23.1133L132.901 23.9792ZM136.755 23.3469C138.263 23.6129 139.381 24.2577 140.157 25.2586L140.966 24.6314C140.01 23.3984 138.649 22.642 136.933 22.3394L136.755 23.3469ZM140.157 25.2586C140.931 26.2562 141.205 27.3924 140.972 28.7079L141.979 28.8856C142.26 27.2993 141.925 25.8677 140.966 24.6314L140.157 25.2586ZM140.972 28.7079C140.745 29.9882 140.095 30.9863 138.999 31.7273L139.572 32.5746C140.894 31.6805 141.704 30.4425 141.979 28.8856L140.972 28.7079ZM139.006 31.7227C137.927 32.4269 136.655 32.6638 135.151 32.3987L134.973 33.4062C136.694 33.7097 138.237 33.4456 139.565 32.5792L139.006 31.7227Z" fill="#202027" mask="url(#path-6-outside-1_14_3767)"/>
<rect x="0.202599" y="0.28958" width="105.961" height="141.448" rx="18.775" transform="matrix(0.984808 0.173648 -0.174411 0.984673 209.157 -44.8678)" fill="#BCEC30"/>
<rect x="0.202599" y="0.28958" width="105.961" height="141.448" rx="18.775" transform="matrix(0.984808 0.173648 -0.174411 0.984673 209.157 -44.8678)" stroke="#202027" stroke-width="0.5"/>
<mask id="path-9-outside-2_14_3767" maskUnits="userSpaceOnUse" x="225.844" y="8.75105" width="43.476" height="51.5463" fill="black">
<rect fill="white" x="225.844" y="8.75105" width="43.476" height="51.5463"/>
<path d="M242.928 39.2636C243.282 37.2654 244.012 35.7043 245.118 34.5805C246.231 33.4167 247.764 32.2035 249.719 30.9409C251.07 30.0663 252.088 29.3186 252.775 28.6979C253.469 28.0372 253.891 27.2873 254.039 26.448C254.245 25.2891 253.908 24.2818 253.029 23.4262C252.197 22.5377 251.002 21.956 249.443 21.6811C247.844 21.3992 246.318 21.5216 244.864 22.0484C243.451 22.5822 242.224 23.458 241.184 24.6758L233.1 18.3049C235.234 15.7963 237.938 14.027 241.212 12.997C244.486 11.967 248.241 11.8255 252.478 12.5725C257.235 13.4112 260.875 15.0834 263.399 17.5891C265.97 20.0618 266.94 23.0766 266.31 26.6335C266.02 28.272 265.482 29.6814 264.696 30.8616C263.917 32.0018 263.05 32.9411 262.094 33.6794C261.186 34.3847 260.017 35.1677 258.587 36.0282C257.023 36.9476 255.846 37.7705 255.058 38.497C254.277 39.1835 253.791 40.0663 253.6 41.1453L242.928 39.2636ZM245.461 56.0304C243.502 55.6851 241.99 54.8002 240.923 53.3757C239.863 51.9113 239.489 50.2999 239.801 48.5414C240.119 46.743 241.001 45.3736 242.445 44.4331C243.929 43.4996 245.671 43.2091 247.669 43.5615C249.668 43.9139 251.204 44.7823 252.278 46.1668C253.352 47.5513 253.729 49.1428 253.411 50.9412C253.099 52.6996 252.194 54.0855 250.696 55.0989C249.204 56.0723 247.459 56.3828 245.461 56.0304Z"/>
</mask>
<path d="M242.928 39.2636C243.282 37.2654 244.012 35.7043 245.118 34.5805C246.231 33.4167 247.764 32.2035 249.719 30.9409C251.07 30.0663 252.088 29.3186 252.775 28.6979C253.469 28.0372 253.891 27.2873 254.039 26.448C254.245 25.2891 253.908 24.2818 253.029 23.4262C252.197 22.5377 251.002 21.956 249.443 21.6811C247.844 21.3992 246.318 21.5216 244.864 22.0484C243.451 22.5822 242.224 23.458 241.184 24.6758L233.1 18.3049C235.234 15.7963 237.938 14.027 241.212 12.997C244.486 11.967 248.241 11.8255 252.478 12.5725C257.235 13.4112 260.875 15.0834 263.399 17.5891C265.97 20.0618 266.94 23.0766 266.31 26.6335C266.02 28.272 265.482 29.6814 264.696 30.8616C263.917 32.0018 263.05 32.9411 262.094 33.6794C261.186 34.3847 260.017 35.1677 258.587 36.0282C257.023 36.9476 255.846 37.7705 255.058 38.497C254.277 39.1835 253.791 40.0663 253.6 41.1453L242.928 39.2636ZM245.461 56.0304C243.502 55.6851 241.99 54.8002 240.923 53.3757C239.863 51.9113 239.489 50.2999 239.801 48.5414C240.119 46.743 241.001 45.3736 242.445 44.4331C243.929 43.4996 245.671 43.2091 247.669 43.5615C249.668 43.9139 251.204 44.7823 252.278 46.1668C253.352 47.5513 253.729 49.1428 253.411 50.9412C253.099 52.6996 252.194 54.0855 250.696 55.0989C249.204 56.0723 247.459 56.3828 245.461 56.0304Z" fill="white"/>
<path d="M242.928 39.2636L242.424 39.1747L242.335 39.6785L242.839 39.7674L242.928 39.2636ZM245.118 34.5805L245.482 34.9392L245.487 34.9339L245.118 34.5805ZM249.719 30.9409L249.997 31.3705L249.997 31.3702L249.719 30.9409ZM252.775 28.6979L253.118 29.0774L253.128 29.0683L252.775 28.6979ZM253.029 23.4262L252.655 23.7759L252.663 23.7845L252.672 23.7928L253.029 23.4262ZM244.864 22.0484L244.69 21.5674L244.684 21.5698L244.864 22.0484ZM241.184 24.6758L240.867 25.0776L241.253 25.3821L241.573 25.0078L241.184 24.6758ZM233.1 18.3049L232.71 17.9736L232.366 18.3782L232.783 18.7067L233.1 18.3049ZM241.212 12.997L241.365 13.4849L241.212 12.997ZM263.399 17.5891L263.038 17.9522L263.044 17.9579L263.399 17.5891ZM264.696 30.8616L265.118 31.1499L265.121 31.1449L264.696 30.8616ZM262.094 33.6794L261.782 33.2748L261.781 33.2755L262.094 33.6794ZM258.587 36.0282L258.846 36.4692L258.851 36.4665L258.587 36.0282ZM255.058 38.497L255.396 38.8812L255.405 38.873L255.058 38.497ZM253.6 41.1453L253.511 41.6491L254.015 41.738L254.104 41.2342L253.6 41.1453ZM240.923 53.3757L240.508 53.6758L240.513 53.6825L240.923 53.3757ZM242.445 44.4331L242.173 44.0001L242.166 44.0045L242.445 44.4331ZM252.278 46.1668L251.873 46.4805L252.278 46.1668ZM250.696 55.0989L250.975 55.5273L250.982 55.5226L250.696 55.0989ZM243.432 39.3524C243.773 37.4269 244.467 35.9705 245.482 34.9391L244.753 34.2219C243.556 35.4381 242.791 37.1038 242.424 39.1747L243.432 39.3524ZM245.487 34.9339C246.563 33.8087 248.062 32.6201 249.997 31.3705L249.442 30.5113C247.467 31.7869 245.898 33.0248 244.748 34.2272L245.487 34.9339ZM249.997 31.3702C251.356 30.4898 252.401 29.7249 253.118 29.0773L252.432 28.3185C251.775 28.9123 250.783 29.6428 249.441 30.5117L249.997 31.3702ZM253.128 29.0683C253.891 28.342 254.373 27.4968 254.543 26.5369L253.535 26.3592C253.408 27.0777 253.048 27.7324 252.422 28.3275L253.128 29.0683ZM254.543 26.5369C254.779 25.2028 254.38 24.0273 253.386 23.0596L252.672 23.7928C253.435 24.5363 253.71 25.3753 253.535 26.3592L254.543 26.5369ZM253.403 23.0765C252.475 22.0859 251.167 21.4657 249.532 21.1773L249.354 22.1849C250.836 22.4463 251.919 22.9895 252.655 23.7759L253.403 23.0765ZM249.532 21.1773C247.85 20.8807 246.232 21.0086 244.69 21.5675L245.038 22.5293C246.403 22.0346 247.838 21.9177 249.354 22.1849L249.532 21.1773ZM244.684 21.5698C243.185 22.136 241.888 23.0644 240.795 24.3438L241.573 25.0078C242.56 23.8516 243.717 23.0284 245.045 22.5269L244.684 21.5698ZM241.501 24.274L233.417 17.9031L232.783 18.7067L240.867 25.0776L241.501 24.274ZM233.49 18.6362C235.559 16.2042 238.18 14.4873 241.365 13.4849L241.059 12.5091C237.697 13.5667 234.91 15.3885 232.71 17.9736L233.49 18.6362ZM241.365 13.4849C244.543 12.4851 248.213 12.34 252.389 13.0763L252.567 12.0688C248.27 11.311 244.429 11.4489 241.059 12.5091L241.365 13.4849ZM252.389 13.0763C257.079 13.9032 260.61 15.5421 263.038 17.9522L263.759 17.226C261.139 14.6248 257.391 12.9192 252.567 12.0688L252.389 13.0763ZM263.044 17.9579C265.49 20.3107 266.407 23.1532 265.806 26.5447L266.814 26.7223C267.473 23.0001 266.449 19.813 263.754 17.2203L263.044 17.9579ZM265.806 26.5447C265.526 28.1256 265.011 29.4662 264.27 30.5783L265.121 31.1449C265.953 29.8967 266.514 28.4184 266.814 26.7223L265.806 26.5447ZM264.273 30.5733C263.52 31.6755 262.689 32.5736 261.782 33.2748L262.407 34.084C263.41 33.3086 264.313 32.3282 265.118 31.1499L264.273 30.5733ZM261.781 33.2755C260.894 33.9642 259.743 34.7357 258.323 35.59L258.851 36.4665C260.291 35.5997 261.479 34.8052 262.408 34.0832L261.781 33.2755ZM258.328 35.5873C256.751 36.5143 255.539 37.3586 254.712 38.121L255.405 38.873C256.154 38.1824 257.295 37.3809 258.846 36.4692L258.328 35.5873ZM254.721 38.1129C253.847 38.8805 253.306 39.8697 253.096 41.0565L254.104 41.2342C254.276 40.2629 254.707 39.4865 255.396 38.8811L254.721 38.1129ZM253.689 40.6416L243.017 38.7598L242.839 39.7674L253.511 41.6491L253.689 40.6416ZM245.55 55.5267C243.703 55.201 242.312 54.377 241.333 53.069L240.513 53.6825C241.667 55.2234 243.301 56.1692 245.372 56.5342L245.55 55.5267ZM241.338 53.0757C240.358 51.7219 240.018 50.2504 240.305 48.6303L239.297 48.4526C238.961 50.3493 239.369 52.1007 240.508 53.6757L241.338 53.0757ZM240.305 48.6303C240.6 46.9619 241.406 45.7198 242.724 44.8617L242.166 44.0045C240.595 45.0273 239.638 46.5241 239.297 48.4526L240.305 48.6303ZM242.717 44.866C244.077 44.0108 245.686 43.7312 247.58 44.0653L247.759 43.0577C245.656 42.687 243.782 42.9885 242.173 44.0001L242.717 44.866ZM247.58 44.0653C249.475 44.3993 250.889 45.212 251.873 46.4805L252.682 45.8532C251.518 44.3527 249.861 43.4284 247.759 43.0577L247.58 44.0653ZM251.873 46.4805C252.854 47.7456 253.201 49.1894 252.907 50.8524L253.914 51.03C254.257 49.0962 253.849 47.3571 252.682 45.8532L251.873 46.4805ZM252.907 50.8524C252.62 52.4725 251.795 53.7384 250.409 54.6753L250.982 55.5226C252.594 54.4327 253.578 52.9268 253.914 51.03L252.907 50.8524ZM250.416 54.6706C249.049 55.5629 247.44 55.8599 245.55 55.5267L245.372 56.5342C247.479 56.9058 249.359 56.5817 250.975 55.5272L250.416 54.6706Z" fill="#202027" mask="url(#path-9-outside-2_14_3767)"/>
<rect x="0.202599" y="0.28958" width="105.961" height="141.448" rx="18.775" transform="matrix(0.984808 0.173648 -0.174411 0.984673 320.155 -25.2959)" fill="#BCEC30"/>
<rect x="0.202599" y="0.28958" width="105.961" height="141.448" rx="18.775" transform="matrix(0.984808 0.173648 -0.174411 0.984673 320.155 -25.2959)" stroke="#202027" stroke-width="0.5"/>
<mask id="path-12-outside-3_14_3767" maskUnits="userSpaceOnUse" x="336.842" y="28.3229" width="43.476" height="51.5463" fill="black">
<rect fill="white" x="336.842" y="28.3229" width="43.476" height="51.5463"/>
<path d="M353.926 58.8355C354.28 56.8373 355.01 55.2762 356.116 54.1524C357.229 52.9886 358.763 51.7754 360.717 50.5128C362.068 49.6382 363.086 48.8905 363.773 48.2698C364.467 47.6091 364.889 46.8592 365.037 46.0199C365.243 44.861 364.906 43.8537 364.027 42.9981C363.195 42.1096 362 41.5279 360.441 41.253C358.842 40.9711 357.316 41.0935 355.862 41.6203C354.449 42.1541 353.222 43.0299 352.182 44.2477L344.098 37.8768C346.232 35.3682 348.936 33.5989 352.21 32.5689C355.484 31.5389 359.239 31.3974 363.476 32.1444C368.233 32.9831 371.873 34.6553 374.397 37.161C376.968 39.6337 377.938 42.6485 377.308 46.2054C377.018 47.8439 376.48 49.2533 375.694 50.4335C374.915 51.5737 374.048 52.513 373.092 53.2513C372.184 53.9566 371.015 54.7396 369.585 55.6001C368.021 56.5195 366.845 57.3424 366.056 58.0689C365.275 58.7554 364.789 59.6382 364.598 60.7172L353.926 58.8355ZM356.459 75.6023C354.5 75.257 352.988 74.3721 351.921 72.9476C350.861 71.4832 350.487 69.8718 350.799 68.1133C351.117 66.3149 351.999 64.9455 353.443 64.005C354.927 63.0715 356.669 62.781 358.667 63.1334C360.666 63.4858 362.202 64.3542 363.276 65.7387C364.35 67.1232 364.727 68.7147 364.409 70.5131C364.097 72.2715 363.192 73.6574 361.694 74.6708C360.202 75.6442 358.457 75.9547 356.459 75.6023Z"/>
</mask>
<path d="M353.926 58.8355C354.28 56.8373 355.01 55.2762 356.116 54.1524C357.229 52.9886 358.763 51.7754 360.717 50.5128C362.068 49.6382 363.086 48.8905 363.773 48.2698C364.467 47.6091 364.889 46.8592 365.037 46.0199C365.243 44.861 364.906 43.8537 364.027 42.9981C363.195 42.1096 362 41.5279 360.441 41.253C358.842 40.9711 357.316 41.0935 355.862 41.6203C354.449 42.1541 353.222 43.0299 352.182 44.2477L344.098 37.8768C346.232 35.3682 348.936 33.5989 352.21 32.5689C355.484 31.5389 359.239 31.3974 363.476 32.1444C368.233 32.9831 371.873 34.6553 374.397 37.161C376.968 39.6337 377.938 42.6485 377.308 46.2054C377.018 47.8439 376.48 49.2533 375.694 50.4335C374.915 51.5737 374.048 52.513 373.092 53.2513C372.184 53.9566 371.015 54.7396 369.585 55.6001C368.021 56.5195 366.845 57.3424 366.056 58.0689C365.275 58.7554 364.789 59.6382 364.598 60.7172L353.926 58.8355ZM356.459 75.6023C354.5 75.257 352.988 74.3721 351.921 72.9476C350.861 71.4832 350.487 69.8718 350.799 68.1133C351.117 66.3149 351.999 64.9455 353.443 64.005C354.927 63.0715 356.669 62.781 358.667 63.1334C360.666 63.4858 362.202 64.3542 363.276 65.7387C364.35 67.1232 364.727 68.7147 364.409 70.5131C364.097 72.2715 363.192 73.6574 361.694 74.6708C360.202 75.6442 358.457 75.9547 356.459 75.6023Z" fill="white"/>
<path d="M353.926 58.8355L353.422 58.7466L353.333 59.2504L353.837 59.3393L353.926 58.8355ZM356.116 54.1524L356.48 54.5111L356.485 54.5058L356.116 54.1524ZM360.717 50.5128L360.995 50.9424L360.995 50.9421L360.717 50.5128ZM363.773 48.2698L364.116 48.6493L364.126 48.6402L363.773 48.2698ZM364.027 42.9981L363.653 43.3478L363.661 43.3564L363.67 43.3647L364.027 42.9981ZM355.862 41.6203L355.688 41.1393L355.682 41.1417L355.862 41.6203ZM352.182 44.2477L351.865 44.6495L352.251 44.954L352.571 44.5797L352.182 44.2477ZM344.098 37.8768L343.708 37.5455L343.364 37.9501L343.781 38.2786L344.098 37.8768ZM352.21 32.5689L352.364 33.0568L352.21 32.5689ZM374.397 37.161L374.036 37.5241L374.042 37.5298L374.397 37.161ZM375.694 50.4335L376.116 50.7218L376.12 50.7168L375.694 50.4335ZM373.092 53.2513L372.78 52.8467L372.779 52.8474L373.092 53.2513ZM369.585 55.6001L369.844 56.0411L369.849 56.0384L369.585 55.6001ZM366.056 58.0689L366.394 58.4531L366.403 58.4449L366.056 58.0689ZM364.598 60.7172L364.509 61.221L365.013 61.3099L365.102 60.8061L364.598 60.7172ZM351.921 72.9476L351.506 73.2477L351.511 73.2544L351.921 72.9476ZM353.443 64.005L353.171 63.572L353.164 63.5764L353.443 64.005ZM363.276 65.7387L362.871 66.0524L363.276 65.7387ZM361.694 74.6708L361.973 75.0992L361.98 75.0945L361.694 74.6708ZM354.43 58.9243C354.771 56.9988 355.465 55.5424 356.48 54.511L355.751 53.7938C354.554 55.01 353.789 56.6757 353.422 58.7466L354.43 58.9243ZM356.485 54.5058C357.561 53.3806 359.06 52.192 360.995 50.9424L360.44 50.0832C358.465 51.3588 356.896 52.5967 355.746 53.7991L356.485 54.5058ZM360.995 50.9421C362.354 50.0617 363.399 49.2968 364.116 48.6492L363.43 47.8904C362.773 48.4842 361.781 49.2147 360.439 50.0836L360.995 50.9421ZM364.126 48.6402C364.889 47.9139 365.371 47.0687 365.541 46.1088L364.533 45.9311C364.406 46.6496 364.046 47.3043 363.421 47.8994L364.126 48.6402ZM365.541 46.1088C365.777 44.7747 365.378 43.5992 364.384 42.6314L363.67 43.3647C364.434 44.1082 364.708 44.9472 364.533 45.9311L365.541 46.1088ZM364.401 42.6484C363.473 41.6578 362.165 41.0376 360.53 40.7492L360.352 41.7568C361.834 42.0182 362.917 42.5614 363.653 43.3478L364.401 42.6484ZM360.53 40.7492C358.848 40.4526 357.23 40.5805 355.688 41.1394L356.036 42.1012C357.401 41.6065 358.836 41.4896 360.352 41.7568L360.53 40.7492ZM355.682 41.1417C354.183 41.7079 352.886 42.6363 351.793 43.9157L352.571 44.5797C353.558 43.4235 354.715 42.6003 356.043 42.0988L355.682 41.1417ZM352.499 43.8459L344.415 37.475L343.781 38.2786L351.865 44.6495L352.499 43.8459ZM344.488 38.2081C346.557 35.7761 349.178 34.0592 352.364 33.0568L352.057 32.081C348.695 33.1386 345.908 34.9604 343.708 37.5455L344.488 38.2081ZM352.364 33.0568C355.542 32.057 359.211 31.9119 363.387 32.6482L363.565 31.6407C359.268 30.8829 355.427 31.0208 352.057 32.081L352.364 33.0568ZM363.387 32.6482C368.077 33.4751 371.608 35.114 374.036 37.5241L374.757 36.7979C372.137 34.1967 368.389 32.4911 363.565 31.6407L363.387 32.6482ZM374.042 37.5298C376.488 39.8826 377.405 42.7251 376.804 46.1166L377.812 46.2942C378.471 42.572 377.447 39.3849 374.752 36.7922L374.042 37.5298ZM376.804 46.1166C376.524 47.6975 376.009 49.0381 375.268 50.1502L376.12 50.7168C376.951 49.4686 377.512 47.9903 377.812 46.2942L376.804 46.1166ZM375.271 50.1452C374.518 51.2474 373.687 52.1455 372.78 52.8467L373.405 53.6559C374.408 52.8805 375.311 51.9001 376.116 50.7218L375.271 50.1452ZM372.779 52.8474C371.892 53.5361 370.741 54.3076 369.321 55.1619L369.849 56.0384C371.289 55.1716 372.477 54.3771 373.406 53.6551L372.779 52.8474ZM369.326 55.1592C367.749 56.0862 366.537 56.9305 365.71 57.6929L366.403 58.4449C367.152 57.7543 368.293 56.9528 369.844 56.0411L369.326 55.1592ZM365.719 57.6848C364.845 58.4524 364.304 59.4416 364.094 60.6284L365.102 60.8061C365.274 59.8348 365.705 59.0584 366.394 58.453L365.719 57.6848ZM364.687 60.2135L354.015 58.3317L353.837 59.3393L364.509 61.221L364.687 60.2135ZM356.548 75.0986C354.701 74.7729 353.31 73.9489 352.331 72.6409L351.511 73.2544C352.665 74.7953 354.299 75.7411 356.37 76.1061L356.548 75.0986ZM352.336 72.6476C351.356 71.2938 351.016 69.8223 351.303 68.2022L350.295 68.0245C349.959 69.9212 350.367 71.6726 351.506 73.2476L352.336 72.6476ZM351.303 68.2022C351.598 66.5338 352.404 65.2917 353.722 64.4336L353.164 63.5764C351.593 64.5992 350.637 66.096 350.295 68.0245L351.303 68.2022ZM353.715 64.4379C355.075 63.5827 356.684 63.3031 358.578 63.6372L358.757 62.6296C356.654 62.2589 354.78 62.5604 353.171 63.572L353.715 64.4379ZM358.578 63.6372C360.473 63.9712 361.888 64.7839 362.871 66.0524L363.68 65.4251C362.517 63.9246 360.859 63.0003 358.757 62.6296L358.578 63.6372ZM362.871 66.0524C363.852 67.3175 364.199 68.7613 363.905 70.4243L364.912 70.6019C365.255 68.6681 364.847 66.929 363.68 65.4251L362.871 66.0524ZM363.905 70.4243C363.618 72.0444 362.793 73.3103 361.407 74.2472L361.98 75.0945C363.592 74.0046 364.576 72.4987 364.912 70.6019L363.905 70.4243ZM361.414 74.2425C360.047 75.1348 358.438 75.4318 356.548 75.0986L356.37 76.1061C358.477 76.4777 360.358 76.1536 361.973 75.0991L361.414 74.2425Z" fill="#202027" mask="url(#path-12-outside-3_14_3767)"/>
<rect x="0.202599" y="0.28958" width="105.961" height="141.448" rx="18.775" transform="matrix(0.984808 0.173648 -0.174411 0.984673 431.153 -5.72401)" fill="#BCEC30"/>
<rect x="0.202599" y="0.28958" width="105.961" height="141.448" rx="18.775" transform="matrix(0.984808 0.173648 -0.174411 0.984673 431.153 -5.72401)" stroke="#202027" stroke-width="0.5"/>
<rect x="0.202599" y="0.28958" width="105.961" height="141.448" rx="18.775" transform="matrix(0.984808 0.173648 -0.174411 0.984673 -38.5529 61.8258)" fill="#BCEC30"/>
<rect x="0.202599" y="0.28958" width="105.961" height="141.448" rx="18.775" transform="matrix(0.984808 0.173648 -0.174411 0.984673 -38.5529 61.8258)" stroke="#202027" stroke-width="0.5"/>
<rect x="0.202599" y="0.28958" width="105.961" height="141.448" rx="18.775" transform="matrix(0.984808 0.173648 -0.174411 0.984673 72.4452 81.3978)" fill="#BCEC30"/>
<rect x="0.202599" y="0.28958" width="105.961" height="141.448" rx="18.775" transform="matrix(0.984808 0.173648 -0.174411 0.984673 72.4452 81.3978)" stroke="#202027" stroke-width="0.5"/>
<mask id="path-17-outside-4_14_3767" maskUnits="userSpaceOnUse" x="89.1324" y="135.017" width="43.476" height="51.5463" fill="black">
<rect fill="white" x="89.1324" y="135.017" width="43.476" height="51.5463"/>
<path d="M106.216 165.529C106.57 163.531 107.3 161.97 108.406 160.846C109.519 159.682 111.053 158.469 113.007 157.207C114.358 156.332 115.376 155.584 116.063 154.964C116.757 154.303 117.179 153.553 117.327 152.714C117.533 151.555 117.196 150.547 116.317 149.692C115.485 148.803 114.29 148.222 112.731 147.947C111.132 147.665 109.606 147.787 108.152 148.314C106.739 148.848 105.512 149.724 104.472 150.941L96.3881 144.571C98.5224 142.062 101.226 140.293 104.5 139.263C107.774 138.233 111.529 138.091 115.766 138.838C120.523 139.677 124.163 141.349 126.687 143.855C129.258 146.328 130.228 149.342 129.598 152.899C129.308 154.538 128.77 155.947 127.984 157.127C127.205 158.268 126.338 159.207 125.382 159.945C124.474 160.65 123.305 161.433 121.875 162.294C120.311 163.213 119.135 164.036 118.346 164.763C117.565 165.449 117.079 166.332 116.888 167.411L106.216 165.529ZM108.749 182.296C106.79 181.951 105.278 181.066 104.211 179.641C103.151 178.177 102.777 176.566 103.089 174.807C103.407 173.009 104.289 171.639 105.733 170.699C107.218 169.765 108.959 169.475 110.957 169.827C112.956 170.18 114.492 171.048 115.566 172.432C116.64 173.817 117.017 175.408 116.699 177.207C116.387 178.965 115.482 180.351 113.984 181.365C112.492 182.338 110.747 182.648 108.749 182.296Z"/>
</mask>
<path d="M106.216 165.529C106.57 163.531 107.3 161.97 108.406 160.846C109.519 159.682 111.053 158.469 113.007 157.207C114.358 156.332 115.376 155.584 116.063 154.964C116.757 154.303 117.179 153.553 117.327 152.714C117.533 151.555 117.196 150.547 116.317 149.692C115.485 148.803 114.29 148.222 112.731 147.947C111.132 147.665 109.606 147.787 108.152 148.314C106.739 148.848 105.512 149.724 104.472 150.941L96.3881 144.571C98.5224 142.062 101.226 140.293 104.5 139.263C107.774 138.233 111.529 138.091 115.766 138.838C120.523 139.677 124.163 141.349 126.687 143.855C129.258 146.328 130.228 149.342 129.598 152.899C129.308 154.538 128.77 155.947 127.984 157.127C127.205 158.268 126.338 159.207 125.382 159.945C124.474 160.65 123.305 161.433 121.875 162.294C120.311 163.213 119.135 164.036 118.346 164.763C117.565 165.449 117.079 166.332 116.888 167.411L106.216 165.529ZM108.749 182.296C106.79 181.951 105.278 181.066 104.211 179.641C103.151 178.177 102.777 176.566 103.089 174.807C103.407 173.009 104.289 171.639 105.733 170.699C107.218 169.765 108.959 169.475 110.957 169.827C112.956 170.18 114.492 171.048 115.566 172.432C116.64 173.817 117.017 175.408 116.699 177.207C116.387 178.965 115.482 180.351 113.984 181.365C112.492 182.338 110.747 182.648 108.749 182.296Z" fill="white"/>
<path d="M106.216 165.529L105.712 165.44L105.623 165.944L106.127 166.033L106.216 165.529ZM108.406 160.846L108.77 161.205L108.775 161.2L108.406 160.846ZM113.007 157.207L113.285 157.636L113.285 157.636L113.007 157.207ZM116.063 154.964L116.406 155.343L116.416 155.334L116.063 154.964ZM116.317 149.692L115.943 150.042L115.951 150.05L115.96 150.058L116.317 149.692ZM108.152 148.314L107.978 147.833L107.972 147.836L108.152 148.314ZM104.472 150.941L104.155 151.343L104.541 151.648L104.861 151.273L104.472 150.941ZM96.3881 144.571L95.9985 144.239L95.6543 144.644L96.0712 144.972L96.3881 144.571ZM104.5 139.263L104.654 139.751L104.5 139.263ZM126.687 143.855L126.326 144.218L126.332 144.224L126.687 143.855ZM127.984 157.127L128.406 157.416L128.41 157.411L127.984 157.127ZM125.382 159.945L125.07 159.54L125.069 159.541L125.382 159.945ZM121.875 162.294L122.134 162.735L122.139 162.732L121.875 162.294ZM118.346 164.763L118.684 165.147L118.693 165.139L118.346 164.763ZM116.888 167.411L116.799 167.915L117.303 168.004L117.392 167.5L116.888 167.411ZM104.211 179.641L103.796 179.941L103.801 179.948L104.211 179.641ZM105.733 170.699L105.461 170.266L105.454 170.27L105.733 170.699ZM115.566 172.432L115.161 172.746L115.566 172.432ZM113.984 181.365L114.263 181.793L114.27 181.788L113.984 181.365ZM106.72 165.618C107.061 163.693 107.755 162.236 108.77 161.205L108.041 160.488C106.844 161.704 106.079 163.369 105.712 165.44L106.72 165.618ZM108.775 161.2C109.851 160.074 111.35 158.886 113.285 157.636L112.73 156.777C110.755 158.053 109.186 159.29 108.036 160.493L108.775 161.2ZM113.285 157.636C114.645 156.755 115.689 155.991 116.406 155.343L115.72 154.584C115.063 155.178 114.071 155.908 112.729 156.777L113.285 157.636ZM116.416 155.334C117.179 154.608 117.661 153.762 117.831 152.803L116.824 152.625C116.696 153.343 116.336 153.998 115.711 154.593L116.416 155.334ZM117.831 152.803C118.068 151.468 117.668 150.293 116.674 149.325L115.96 150.058C116.724 150.802 116.998 151.641 116.824 152.625L117.831 152.803ZM116.691 149.342C115.763 148.352 114.455 147.731 112.82 147.443L112.642 148.451C114.124 148.712 115.207 149.255 115.943 150.042L116.691 149.342ZM112.82 147.443C111.138 147.146 109.52 147.274 107.978 147.833L108.326 148.795C109.691 148.3 111.126 148.183 112.642 148.451L112.82 147.443ZM107.972 147.836C106.473 148.402 105.176 149.33 104.083 150.609L104.861 151.273C105.849 150.117 107.005 149.294 108.333 148.793L107.972 147.836ZM104.789 150.54L96.7051 144.169L96.0712 144.972L104.155 151.343L104.789 150.54ZM96.7778 144.902C98.8469 142.47 101.468 140.753 104.654 139.751L104.347 138.775C100.985 139.832 98.1979 141.654 95.9985 144.239L96.7778 144.902ZM104.654 139.751C107.832 138.751 111.501 138.606 115.677 139.342L115.856 138.334C111.558 137.577 107.717 137.715 104.347 138.775L104.654 139.751ZM115.677 139.342C120.367 140.169 123.898 141.808 126.326 144.218L127.047 143.492C124.427 140.89 120.679 139.185 115.856 138.334L115.677 139.342ZM126.332 144.224C128.778 146.576 129.695 149.419 129.094 152.81L130.102 152.988C130.761 149.266 129.737 146.079 127.042 143.486L126.332 144.224ZM129.094 152.81C128.814 154.391 128.299 155.732 127.558 156.844L128.41 157.411C129.241 156.162 129.802 154.684 130.102 152.988L129.094 152.81ZM127.561 156.839C126.808 157.941 125.977 158.839 125.07 159.54L125.695 160.35C126.698 159.574 127.601 158.594 128.406 157.416L127.561 156.839ZM125.069 159.541C124.182 160.23 123.031 161.001 121.611 161.856L122.139 162.732C123.579 161.865 124.767 161.071 125.696 160.349L125.069 159.541ZM121.616 161.853C120.039 162.78 118.827 163.624 118 164.387L118.693 165.139C119.442 164.448 120.583 163.647 122.134 162.735L121.616 161.853ZM118.009 164.379C117.135 165.146 116.594 166.135 116.384 167.322L117.392 167.5C117.564 166.529 117.995 165.752 118.684 165.147L118.009 164.379ZM116.977 166.907L106.305 165.025L106.127 166.033L116.799 167.915L116.977 166.907ZM108.838 181.792C106.991 181.467 105.6 180.643 104.621 179.335L103.801 179.948C104.955 181.489 106.589 182.435 108.66 182.8L108.838 181.792ZM104.626 179.341C103.646 177.988 103.306 176.516 103.593 174.896L102.585 174.718C102.249 176.615 102.657 178.366 103.796 179.941L104.626 179.341ZM103.593 174.896C103.888 173.228 104.694 171.985 106.012 171.127L105.454 170.27C103.883 171.293 102.927 172.79 102.585 174.718L103.593 174.896ZM106.005 171.132C107.365 170.276 108.974 169.997 110.868 170.331L111.047 169.323C108.944 168.953 107.07 169.254 105.461 170.266L106.005 171.132ZM110.868 170.331C112.763 170.665 114.178 171.478 115.161 172.746L115.97 172.119C114.807 170.618 113.149 169.694 111.047 169.323L110.868 170.331ZM115.161 172.746C116.143 174.011 116.489 175.455 116.195 177.118L117.202 177.296C117.545 175.362 117.137 173.623 115.97 172.119L115.161 172.746ZM116.195 177.118C115.908 178.738 115.083 180.004 113.697 180.941L114.27 181.788C115.882 180.698 116.867 179.192 117.202 177.296L116.195 177.118ZM113.704 180.936C112.337 181.829 110.728 182.126 108.838 181.792L108.66 182.8C110.767 183.171 112.648 182.847 114.263 181.793L113.704 180.936Z" fill="#202027" mask="url(#path-17-outside-4_14_3767)"/>
<rect x="0.202599" y="0.28958" width="105.961" height="141.448" rx="18.775" transform="matrix(0.984808 0.173648 -0.174411 0.984673 183.442 100.97)" fill="#BCEC30"/>
<rect x="0.202599" y="0.28958" width="105.961" height="141.448" rx="18.775" transform="matrix(0.984808 0.173648 -0.174411 0.984673 183.442 100.97)" stroke="#202027" stroke-width="0.5"/>
<mask id="path-20-outside-5_14_3767" maskUnits="userSpaceOnUse" x="204.361" y="159.627" width="35.9974" height="41.6423" fill="black">
<rect fill="white" x="204.361" y="159.627" width="35.9974" height="41.6423"/>
<path d="M218.301 184.785C218.587 183.173 219.175 181.914 220.068 181.007C220.965 180.068 222.203 179.089 223.78 178.071C224.869 177.365 225.691 176.762 226.245 176.261C226.805 175.728 227.145 175.123 227.265 174.446C227.431 173.511 227.159 172.699 226.45 172.008C225.779 171.292 224.814 170.822 223.557 170.601C222.267 170.373 221.036 170.472 219.863 170.897C218.723 171.327 217.733 172.034 216.894 173.017L210.372 167.877C212.094 165.853 214.276 164.426 216.917 163.595C219.558 162.764 222.588 162.65 226.006 163.252C229.843 163.929 232.78 165.278 234.816 167.299C236.89 169.294 237.673 171.726 237.165 174.596C236.93 175.918 236.496 177.055 235.862 178.007C235.234 178.927 234.534 179.685 233.764 180.28C233.031 180.849 232.088 181.481 230.934 182.175C229.672 182.917 228.723 183.581 228.087 184.167C227.457 184.721 227.065 185.433 226.911 186.303L218.301 184.785ZM220.344 198.312C218.764 198.033 217.544 197.319 216.683 196.17C215.829 194.989 215.527 193.689 215.778 192.27C216.035 190.819 216.746 189.714 217.911 188.956C219.109 188.203 220.514 187.968 222.126 188.253C223.738 188.537 224.978 189.237 225.844 190.354C226.71 191.471 227.015 192.755 226.758 194.206C226.507 195.625 225.776 196.743 224.568 197.56C223.364 198.346 221.957 198.596 220.344 198.312Z"/>
</mask>
<path d="M218.301 184.785C218.587 183.173 219.175 181.914 220.068 181.007C220.965 180.068 222.203 179.089 223.78 178.071C224.869 177.365 225.691 176.762 226.245 176.261C226.805 175.728 227.145 175.123 227.265 174.446C227.431 173.511 227.159 172.699 226.45 172.008C225.779 171.292 224.814 170.822 223.557 170.601C222.267 170.373 221.036 170.472 219.863 170.897C218.723 171.327 217.733 172.034 216.894 173.017L210.372 167.877C212.094 165.853 214.276 164.426 216.917 163.595C219.558 162.764 222.588 162.65 226.006 163.252C229.843 163.929 232.78 165.278 234.816 167.299C236.89 169.294 237.673 171.726 237.165 174.596C236.93 175.918 236.496 177.055 235.862 178.007C235.234 178.927 234.534 179.685 233.764 180.28C233.031 180.849 232.088 181.481 230.934 182.175C229.672 182.917 228.723 183.581 228.087 184.167C227.457 184.721 227.065 185.433 226.911 186.303L218.301 184.785ZM220.344 198.312C218.764 198.033 217.544 197.319 216.683 196.17C215.829 194.989 215.527 193.689 215.778 192.27C216.035 190.819 216.746 189.714 217.911 188.956C219.109 188.203 220.514 187.968 222.126 188.253C223.738 188.537 224.978 189.237 225.844 190.354C226.71 191.471 227.015 192.755 226.758 194.206C226.507 195.625 225.776 196.743 224.568 197.56C223.364 198.346 221.957 198.596 220.344 198.312Z" fill="white"/>
<path d="M218.301 184.785L217.797 184.696L217.708 185.2L218.212 185.289L218.301 184.785ZM220.068 181.007L220.432 181.366L220.437 181.36L220.068 181.007ZM223.78 178.071L224.057 178.5L224.058 178.5L223.78 178.071ZM226.245 176.261L226.588 176.641L226.598 176.632L226.245 176.261ZM226.45 172.008L226.076 172.358L226.084 172.367L226.093 172.375L226.45 172.008ZM219.863 170.897L219.689 170.416L219.683 170.418L219.863 170.897ZM216.894 173.017L216.577 173.418L216.963 173.723L217.283 173.349L216.894 173.017ZM210.372 167.877L209.983 167.545L209.638 167.95L210.055 168.279L210.372 167.877ZM216.917 163.595L217.07 164.083L217.07 164.083L216.917 163.595ZM234.816 167.299L234.455 167.662L234.461 167.668L234.816 167.299ZM235.862 178.007L236.285 178.295L236.288 178.29L235.862 178.007ZM233.764 180.28L233.451 179.876L233.45 179.876L233.764 180.28ZM230.934 182.175L231.193 182.616L231.198 182.613L230.934 182.175ZM228.087 184.167L228.425 184.551L228.434 184.543L228.087 184.167ZM226.911 186.303L226.821 186.807L227.325 186.896L227.414 186.392L226.911 186.303ZM216.683 196.17L216.269 196.47L216.274 196.477L216.683 196.17ZM217.911 188.956L217.639 188.523L217.632 188.527L217.911 188.956ZM225.844 190.354L225.439 190.668L225.844 190.354ZM224.568 197.56L224.847 197.989L224.854 197.984L224.568 197.56ZM218.805 184.874C219.077 183.335 219.631 182.18 220.432 181.366L219.703 180.649C218.72 181.648 218.096 183.012 217.797 184.696L218.805 184.874ZM220.437 181.36C221.298 180.46 222.5 179.506 224.057 178.5L223.502 177.641C221.905 178.673 220.633 179.676 219.698 180.654L220.437 181.36ZM224.058 178.5C225.156 177.789 226.004 177.168 226.588 176.641L225.902 175.882C225.378 176.356 224.582 176.942 223.502 177.642L224.058 178.5ZM226.598 176.632C227.227 176.033 227.628 175.333 227.769 174.535L226.761 174.357C226.663 174.914 226.384 175.424 225.893 175.891L226.598 176.632ZM227.769 174.535C227.966 173.425 227.631 172.444 226.807 171.642L226.093 172.375C226.687 172.953 226.896 173.597 226.761 174.357L227.769 174.535ZM226.824 171.659C226.057 170.84 224.98 170.332 223.646 170.097L223.468 171.104C224.649 171.313 225.501 171.743 226.076 172.358L226.824 171.659ZM223.646 170.097C222.273 169.855 220.95 169.959 219.689 170.416L220.037 171.378C221.121 170.985 222.261 170.892 223.468 171.104L223.646 170.097ZM219.683 170.418C218.457 170.881 217.397 171.64 216.505 172.685L217.283 173.349C218.07 172.428 218.989 171.774 220.044 171.375L219.683 170.418ZM217.211 172.615L210.689 167.475L210.055 168.279L216.577 173.418L217.211 172.615ZM210.762 168.208C212.419 166.261 214.517 164.886 217.07 164.083L216.764 163.107C214.034 163.965 211.77 165.445 209.983 167.545L210.762 168.208ZM217.07 164.083C219.615 163.282 222.559 163.164 225.916 163.756L226.095 162.748C222.616 162.135 219.5 162.246 216.764 163.107L217.07 164.083ZM225.916 163.756C229.687 164.421 232.515 165.736 234.455 167.662L235.176 166.936C233.044 164.819 229.999 163.437 226.095 162.748L225.916 163.756ZM234.461 167.668C236.41 169.543 237.14 171.803 236.661 174.507L237.668 174.685C238.206 171.65 237.369 169.045 235.171 166.931L234.461 167.668ZM236.661 174.507C236.437 175.771 236.025 176.84 235.436 177.724L236.288 178.29C236.967 177.27 237.424 176.064 237.668 174.685L236.661 174.507ZM235.44 177.719C234.837 178.6 234.173 179.317 233.451 179.876L234.076 180.685C234.895 180.052 235.63 179.253 236.285 178.295L235.44 177.719ZM233.45 179.876C232.739 180.429 231.814 181.049 230.67 181.737L231.198 182.613C232.362 181.913 233.323 181.27 234.077 180.684L233.45 179.876ZM230.675 181.734C229.4 182.483 228.415 183.169 227.74 183.791L228.434 184.543C229.031 183.992 229.944 183.35 231.193 182.616L230.675 181.734ZM227.749 183.783C227.027 184.418 226.58 185.236 226.407 186.214L227.414 186.392C227.55 185.629 227.887 185.024 228.425 184.551L227.749 183.783ZM227 185.8L218.39 184.281L218.212 185.289L226.821 186.807L227 185.8ZM220.434 197.808C218.965 197.549 217.866 196.896 217.093 195.863L216.274 196.477C217.222 197.743 218.563 198.517 220.255 198.816L220.434 197.808ZM217.098 195.87C216.323 194.799 216.055 193.639 216.282 192.359L215.274 192.181C214.999 193.738 215.334 195.178 216.269 196.47L217.098 195.87ZM216.282 192.359C216.516 191.038 217.152 190.061 218.19 189.384L217.632 188.527C216.341 189.368 215.554 190.6 215.274 192.181L216.282 192.359ZM218.184 189.389C219.257 188.714 220.529 188.49 222.037 188.756L222.215 187.749C220.499 187.446 218.961 187.691 217.639 188.523L218.184 189.389ZM222.037 188.756C223.545 189.022 224.663 189.667 225.439 190.668L226.248 190.041C225.292 188.808 223.932 188.051 222.215 187.749L222.037 188.756ZM225.439 190.668C226.213 191.666 226.487 192.802 226.254 194.117L227.262 194.295C227.543 192.709 227.207 191.277 226.248 190.041L225.439 190.668ZM226.254 194.117C226.027 195.398 225.377 196.396 224.281 197.137L224.854 197.984C226.176 197.09 226.986 195.852 227.262 194.295L226.254 194.117ZM224.288 197.132C223.209 197.836 221.937 198.073 220.434 197.808L220.255 198.816C221.976 199.119 223.52 198.855 224.847 197.989L224.288 197.132Z" fill="#202027" mask="url(#path-20-outside-5_14_3767)"/>
<rect x="0.202599" y="0.28958" width="105.961" height="141.448" rx="18.775" transform="matrix(0.984808 0.173648 -0.174411 0.984673 294.44 120.541)" fill="#BCEC30"/>
<rect x="0.202599" y="0.28958" width="105.961" height="141.448" rx="18.775" transform="matrix(0.984808 0.173648 -0.174411 0.984673 294.44 120.541)" stroke="#202027" stroke-width="0.5"/>
<mask id="path-23-outside-6_14_3767" maskUnits="userSpaceOnUse" x="311.127" y="174.16" width="43.476" height="51.5463" fill="black">
<rect fill="white" x="311.127" y="174.16" width="43.476" height="51.5463"/>
<path d="M328.211 204.673C328.565 202.675 329.295 201.114 330.401 199.99C331.514 198.826 333.048 197.613 335.003 196.35C336.353 195.476 337.371 194.728 338.058 194.107C338.752 193.447 339.174 192.697 339.322 191.857C339.528 190.698 339.191 189.691 338.312 188.836C337.48 187.947 336.285 187.365 334.726 187.09C333.127 186.809 331.601 186.931 330.148 187.458C328.734 187.992 327.507 188.867 326.467 190.085L318.383 183.714C320.518 181.206 323.222 179.436 326.495 178.406C329.769 177.376 333.525 177.235 337.761 177.982C342.518 178.821 346.158 180.493 348.682 182.998C351.253 185.471 352.223 188.486 351.593 192.043C351.303 193.681 350.765 195.091 349.979 196.271C349.2 197.411 348.333 198.35 347.378 199.089C346.47 199.794 345.3 200.577 343.87 201.438C342.306 202.357 341.13 203.18 340.342 203.906C339.56 204.593 339.074 205.476 338.883 206.555L328.211 204.673ZM330.744 221.44C328.785 221.094 327.273 220.21 326.206 218.785C325.147 217.321 324.773 215.709 325.084 213.951C325.403 212.152 326.284 210.783 327.728 209.842C329.213 208.909 330.954 208.618 332.953 208.971C334.951 209.323 336.487 210.192 337.561 211.576C338.635 212.961 339.012 214.552 338.694 216.351C338.382 218.109 337.477 219.495 335.979 220.508C334.487 221.482 332.742 221.792 330.744 221.44Z"/>
</mask>
<path d="M328.211 204.673C328.565 202.675 329.295 201.114 330.401 199.99C331.514 198.826 333.048 197.613 335.003 196.35C336.353 195.476 337.371 194.728 338.058 194.107C338.752 193.447 339.174 192.697 339.322 191.857C339.528 190.698 339.191 189.691 338.312 188.836C337.48 187.947 336.285 187.365 334.726 187.09C333.127 186.809 331.601 186.931 330.148 187.458C328.734 187.992 327.507 188.867 326.467 190.085L318.383 183.714C320.518 181.206 323.222 179.436 326.495 178.406C329.769 177.376 333.525 177.235 337.761 177.982C342.518 178.821 346.158 180.493 348.682 182.998C351.253 185.471 352.223 188.486 351.593 192.043C351.303 193.681 350.765 195.091 349.979 196.271C349.2 197.411 348.333 198.35 347.378 199.089C346.47 199.794 345.3 200.577 343.87 201.438C342.306 202.357 341.13 203.18 340.342 203.906C339.56 204.593 339.074 205.476 338.883 206.555L328.211 204.673ZM330.744 221.44C328.785 221.094 327.273 220.21 326.206 218.785C325.147 217.321 324.773 215.709 325.084 213.951C325.403 212.152 326.284 210.783 327.728 209.842C329.213 208.909 330.954 208.618 332.953 208.971C334.951 209.323 336.487 210.192 337.561 211.576C338.635 212.961 339.012 214.552 338.694 216.351C338.382 218.109 337.477 219.495 335.979 220.508C334.487 221.482 332.742 221.792 330.744 221.44Z" fill="white"/>
<path d="M328.211 204.673L327.707 204.584L327.618 205.088L328.122 205.177L328.211 204.673ZM330.401 199.99L330.766 200.349L330.771 200.343L330.401 199.99ZM335.003 196.35L335.28 196.78L335.281 196.78L335.003 196.35ZM338.058 194.107L338.401 194.487L338.411 194.478L338.058 194.107ZM338.312 188.836L337.938 189.185L337.946 189.194L337.955 189.202L338.312 188.836ZM330.148 187.458L329.973 186.977L329.967 186.979L330.148 187.458ZM326.467 190.085L326.15 190.487L326.536 190.791L326.856 190.417L326.467 190.085ZM318.383 183.714L317.994 183.383L317.649 183.788L318.066 184.116L318.383 183.714ZM326.495 178.406L326.649 178.894L326.495 178.406ZM348.682 182.998L348.321 183.362L348.327 183.367L348.682 182.998ZM349.979 196.271L350.401 196.559L350.405 196.554L349.979 196.271ZM347.378 199.089L347.065 198.684L347.064 198.685L347.378 199.089ZM343.87 201.438L344.129 201.879L344.134 201.876L343.87 201.438ZM340.342 203.906L340.679 204.291L340.688 204.282L340.342 203.906ZM338.883 206.555L338.794 207.058L339.298 207.147L339.387 206.644L338.883 206.555ZM326.206 218.785L325.791 219.085L325.796 219.092L326.206 218.785ZM327.728 209.842L327.456 209.409L327.449 209.414L327.728 209.842ZM337.561 211.576L337.156 211.89L337.561 211.576ZM335.979 220.508L336.258 220.937L336.265 220.932L335.979 220.508ZM328.715 204.762C329.056 202.836 329.751 201.38 330.766 200.348L330.036 199.631C328.839 200.847 328.074 202.513 327.707 204.584L328.715 204.762ZM330.771 200.343C331.847 199.218 333.345 198.029 335.28 196.78L334.725 195.921C332.75 197.196 331.181 198.434 330.031 199.636L330.771 200.343ZM335.281 196.78C336.64 195.899 337.685 195.134 338.401 194.487L337.715 193.728C337.058 194.322 336.066 195.052 334.724 195.921L335.281 196.78ZM338.411 194.478C339.174 193.751 339.656 192.906 339.826 191.946L338.819 191.769C338.691 192.487 338.331 193.142 337.706 193.737L338.411 194.478ZM339.826 191.946C340.063 190.612 339.663 189.437 338.669 188.469L337.955 189.202C338.719 189.946 338.993 190.785 338.819 191.769L339.826 191.946ZM338.686 188.486C337.758 187.495 336.45 186.875 334.815 186.587L334.637 187.594C336.119 187.856 337.202 188.399 337.938 189.185L338.686 188.486ZM334.815 186.587C333.133 186.29 331.516 186.418 329.973 186.977L330.322 187.939C331.687 187.444 333.122 187.327 334.637 187.594L334.815 186.587ZM329.967 186.979C328.468 187.545 327.171 188.474 326.078 189.753L326.856 190.417C327.844 189.261 329 188.438 330.328 187.936L329.967 186.979ZM326.784 189.683L318.7 183.312L318.066 184.116L326.15 190.487L326.784 189.683ZM318.773 184.046C320.842 181.614 323.463 179.897 326.649 178.894L326.342 177.918C322.98 178.976 320.193 180.798 317.994 183.383L318.773 184.046ZM326.649 178.894C329.827 177.894 333.496 177.749 337.672 178.486L337.851 177.478C333.553 176.72 329.712 176.858 326.342 177.918L326.649 178.894ZM337.672 178.486C342.362 179.313 345.894 180.951 348.321 183.362L349.043 182.635C346.422 180.034 342.674 178.329 337.851 177.478L337.672 178.486ZM348.327 183.367C350.773 185.72 351.69 188.563 351.089 191.954L352.097 192.132C352.756 188.409 351.732 185.222 349.037 182.63L348.327 183.367ZM351.089 191.954C350.809 193.535 350.294 194.876 349.553 195.988L350.405 196.554C351.236 195.306 351.797 193.828 352.097 192.132L351.089 191.954ZM349.556 195.983C348.803 197.085 347.972 197.983 347.065 198.684L347.69 199.493C348.694 198.718 349.596 197.738 350.401 196.559L349.556 195.983ZM347.064 198.685C346.177 199.374 345.026 200.145 343.607 200.999L344.134 201.876C345.574 201.009 346.762 200.215 347.691 199.493L347.064 198.685ZM343.611 200.997C342.034 201.924 340.822 202.768 339.995 203.53L340.688 204.282C341.437 203.592 342.578 202.79 344.129 201.879L343.611 200.997ZM340.004 203.522C339.13 204.29 338.59 205.279 338.379 206.466L339.387 206.644C339.559 205.672 339.99 204.896 340.679 204.29L340.004 203.522ZM338.972 206.051L328.3 204.169L328.122 205.177L338.794 207.058L338.972 206.051ZM330.833 220.936C328.986 220.61 327.595 219.786 326.616 218.478L325.796 219.092C326.95 220.633 328.584 221.579 330.655 221.944L330.833 220.936ZM326.621 218.485C325.641 217.131 325.301 215.66 325.588 214.04L324.58 213.862C324.244 215.759 324.652 217.51 325.792 219.085L326.621 218.485ZM325.588 214.04C325.883 212.371 326.689 211.129 328.007 210.271L327.449 209.414C325.878 210.437 324.922 211.933 324.58 213.862L325.588 214.04ZM328.001 210.275C329.36 209.42 330.969 209.141 332.863 209.475L333.042 208.467C330.939 208.096 329.065 208.398 327.456 209.409L328.001 210.275ZM332.863 209.475C334.758 209.809 336.173 210.621 337.156 211.89L337.965 211.263C336.802 209.762 335.144 208.838 333.042 208.467L332.863 209.475ZM337.156 211.89C338.138 213.155 338.484 214.599 338.19 216.262L339.198 216.439C339.54 214.506 339.132 212.766 337.965 211.263L337.156 211.89ZM338.19 216.262C337.903 217.882 337.078 219.148 335.692 220.085L336.265 220.932C337.877 219.842 338.862 218.336 339.198 216.439L338.19 216.262ZM335.699 220.08C334.332 220.972 332.723 221.269 330.833 220.936L330.655 221.944C332.762 222.315 334.643 221.991 336.258 220.937L335.699 220.08Z" fill="#202027" mask="url(#path-23-outside-6_14_3767)"/>
<rect x="0.202599" y="0.28958" width="105.961" height="141.448" rx="18.775" transform="matrix(0.984808 0.173648 -0.174411 0.984673 405.438 140.113)" fill="#BCEC30"/>
<rect x="0.202599" y="0.28958" width="105.961" height="141.448" rx="18.775" transform="matrix(0.984808 0.173648 -0.174411 0.984673 405.438 140.113)" stroke="#202027" stroke-width="0.5"/>
<rect x="0.202599" y="0.28958" width="105.961" height="141.448" rx="18.775" transform="matrix(0.984808 0.173648 -0.174411 0.984673 -64.2677 207.663)" fill="#BCEC30"/>
<rect x="0.202599" y="0.28958" width="105.961" height="141.448" rx="18.775" transform="matrix(0.984808 0.173648 -0.174411 0.984673 -64.2677 207.663)" stroke="#202027" stroke-width="0.5"/>
<rect x="0.202599" y="0.28958" width="105.961" height="141.448" rx="18.775" transform="matrix(0.984808 0.173648 -0.174411 0.984673 46.7303 227.235)" fill="#BCEC30"/>
<rect x="0.202599" y="0.28958" width="105.961" height="141.448" rx="18.775" transform="matrix(0.984808 0.173648 -0.174411 0.984673 46.7303 227.235)" stroke="#202027" stroke-width="0.5"/>
<mask id="path-28-outside-7_14_3767" maskUnits="userSpaceOnUse" x="63.4175" y="280.854" width="43.476" height="51.5463" fill="black">
<rect fill="white" x="63.4175" y="280.854" width="43.476" height="51.5463"/>
<path d="M80.5012 311.366C80.8551 309.368 81.585 307.807 82.6909 306.683C83.8038 305.519 85.3377 304.306 87.2925 303.044C88.6428 302.169 89.6614 301.421 90.3484 300.801C91.0425 300.14 91.4639 299.39 91.6125 298.551C91.8178 297.392 91.481 296.385 90.6021 295.529C89.7702 294.64 88.5749 294.059 87.016 293.784C85.4172 293.502 83.8911 293.624 82.4376 294.151C81.024 294.685 79.7972 295.561 78.7571 296.779L70.6733 290.408C72.8076 287.899 75.5116 286.13 78.7854 285.1C82.0593 284.07 85.8146 283.928 90.0514 284.675C94.8079 285.514 98.448 287.186 100.972 289.692C103.543 292.165 104.513 295.179 103.883 298.736C103.593 300.375 103.055 301.784 102.269 302.964C101.49 304.105 100.623 305.044 99.6676 305.782C98.7596 306.487 97.5904 307.27 96.1602 308.131C94.5959 309.05 93.4197 309.873 92.6316 310.6C91.8505 311.286 91.3643 312.169 91.1732 313.248L80.5012 311.366ZM83.034 328.133C81.0755 327.788 79.5629 326.903 78.4962 325.478C77.4366 324.014 77.0625 322.403 77.374 320.644C77.6925 318.846 78.574 317.476 80.0184 316.536C81.5027 315.602 83.2441 315.312 85.2426 315.664C87.2411 316.017 88.7772 316.885 89.851 318.27C90.9247 319.654 91.3024 321.246 90.9838 323.044C90.6723 324.802 89.7674 326.188 88.2689 327.202C86.7775 328.175 85.0325 328.486 83.034 328.133Z"/>
</mask>
<path d="M80.5012 311.366C80.8551 309.368 81.585 307.807 82.6909 306.683C83.8038 305.519 85.3377 304.306 87.2925 303.044C88.6428 302.169 89.6614 301.421 90.3484 300.801C91.0425 300.14 91.4639 299.39 91.6125 298.551C91.8178 297.392 91.481 296.385 90.6021 295.529C89.7702 294.64 88.5749 294.059 87.016 293.784C85.4172 293.502 83.8911 293.624 82.4376 294.151C81.024 294.685 79.7972 295.561 78.7571 296.779L70.6733 290.408C72.8076 287.899 75.5116 286.13 78.7854 285.1C82.0593 284.07 85.8146 283.928 90.0514 284.675C94.8079 285.514 98.448 287.186 100.972 289.692C103.543 292.165 104.513 295.179 103.883 298.736C103.593 300.375 103.055 301.784 102.269 302.964C101.49 304.105 100.623 305.044 99.6676 305.782C98.7596 306.487 97.5904 307.27 96.1602 308.131C94.5959 309.05 93.4197 309.873 92.6316 310.6C91.8505 311.286 91.3643 312.169 91.1732 313.248L80.5012 311.366ZM83.034 328.133C81.0755 327.788 79.5629 326.903 78.4962 325.478C77.4366 324.014 77.0625 322.403 77.374 320.644C77.6925 318.846 78.574 317.476 80.0184 316.536C81.5027 315.602 83.2441 315.312 85.2426 315.664C87.2411 316.017 88.7772 316.885 89.851 318.27C90.9247 319.654 91.3024 321.246 90.9838 323.044C90.6723 324.802 89.7674 326.188 88.2689 327.202C86.7775 328.175 85.0325 328.486 83.034 328.133Z" fill="white"/>
<path d="M80.5012 311.366L79.9974 311.277L79.9081 311.781L80.412 311.87L80.5012 311.366ZM82.6909 306.683L83.0556 307.042L83.0606 307.037L82.6909 306.683ZM87.2925 303.044L87.57 303.473L87.5706 303.473L87.2925 303.044ZM90.3484 300.801L90.6915 301.18L90.7011 301.171L90.3484 300.801ZM90.6021 295.529L90.2284 295.879L90.2365 295.887L90.245 295.896L90.6021 295.529ZM82.4376 294.151L82.2635 293.67L82.2571 293.673L82.4376 294.151ZM78.7571 296.779L78.4402 297.18L78.8265 297.485L79.1462 297.111L78.7571 296.779ZM70.6733 290.408L70.2836 290.076L69.9394 290.481L70.3563 290.809L70.6733 290.408ZM78.7854 285.1L78.9387 285.588L78.7854 285.1ZM100.972 289.692L100.611 290.055L100.617 290.061L100.972 289.692ZM102.269 302.964L102.691 303.253L102.695 303.248L102.269 302.964ZM99.6676 305.782L99.3548 305.377L99.3539 305.378L99.6676 305.782ZM96.1602 308.131L96.4193 308.572L96.4238 308.569L96.1602 308.131ZM92.6316 310.6L92.9693 310.984L92.9782 310.976L92.6316 310.6ZM91.1732 313.248L91.084 313.752L91.5878 313.841L91.6771 313.337L91.1732 313.248ZM78.4962 325.478L78.0815 325.779L78.0865 325.785L78.4962 325.478ZM80.0184 316.536L79.7461 316.103L79.7393 316.107L80.0184 316.536ZM89.851 318.27L89.4465 318.583L89.851 318.27ZM88.2689 327.202L88.5484 327.63L88.5554 327.625L88.2689 327.202ZM81.0051 311.455C81.3461 309.53 82.0406 308.073 83.0555 307.042L82.3263 306.325C81.1295 307.541 80.3642 309.207 79.9974 311.277L81.0051 311.455ZM83.0606 307.037C84.1367 305.911 85.6353 304.723 87.57 303.473L87.0151 302.614C85.0401 303.89 83.471 305.128 82.3212 306.33L83.0606 307.037ZM87.5706 303.473C88.9297 302.593 89.9746 301.828 90.6914 301.18L90.0055 300.421C89.3483 301.015 88.3559 301.745 87.0145 302.614L87.5706 303.473ZM90.7011 301.171C91.4641 300.445 91.9463 299.6 92.1164 298.64L91.1087 298.462C90.9814 299.18 90.6209 299.835 89.9957 300.43L90.7011 301.171ZM92.1164 298.64C92.3527 297.306 91.9533 296.13 90.9592 295.162L90.245 295.896C91.0087 296.639 91.283 297.478 91.1087 298.462L92.1164 298.64ZM90.9758 295.179C90.0483 294.189 88.7403 293.568 87.1053 293.28L86.9268 294.288C88.4094 294.549 89.4921 295.092 90.2284 295.879L90.9758 295.179ZM87.1053 293.28C85.4229 292.983 83.8056 293.111 82.2635 293.67L82.6116 294.632C83.9766 294.137 85.4116 294.02 86.9268 294.288L87.1053 293.28ZM82.2571 293.673C80.7579 294.239 79.4608 295.167 78.3681 296.447L79.1462 297.111C80.1337 295.954 81.2901 295.131 82.6181 294.63L82.2571 293.673ZM79.0741 296.377L70.9902 290.006L70.3563 290.809L78.4402 297.18L79.0741 296.377ZM71.0629 290.739C73.132 288.307 75.7528 286.59 78.9387 285.588L78.6322 284.612C75.2704 285.669 72.4831 287.491 70.2836 290.076L71.0629 290.739ZM78.9387 285.588C82.1167 284.588 85.7862 284.443 89.9622 285.179L90.1407 284.172C85.843 283.414 82.0018 283.552 78.6322 284.612L78.9387 285.588ZM89.9622 285.179C94.6518 286.006 98.1836 287.645 100.611 290.055L101.333 289.329C98.7125 286.728 94.9639 285.022 90.1407 284.172L89.9622 285.179ZM100.617 290.061C103.063 292.413 103.98 295.256 103.38 298.647L104.387 298.825C105.047 295.103 104.022 291.916 101.327 289.323L100.617 290.061ZM103.38 298.647C103.099 300.228 102.584 301.569 101.843 302.681L102.695 303.248C103.526 301.999 104.087 300.521 104.387 298.825L103.38 298.647ZM101.846 302.676C101.093 303.778 100.262 304.676 99.3548 305.377L99.9804 306.187C100.984 305.411 101.886 304.431 102.691 303.253L101.846 302.676ZM99.3539 305.378C98.4672 306.067 97.3164 306.838 95.8966 307.693L96.4238 308.569C97.8644 307.702 99.0519 306.908 99.9814 306.186L99.3539 305.378ZM95.9011 307.69C94.3238 308.617 93.112 309.461 92.2849 310.224L92.9782 310.976C93.7275 310.285 94.8681 309.484 96.4193 308.572L95.9011 307.69ZM92.2939 310.216C91.4205 310.983 90.8796 311.972 90.6694 313.159L91.6771 313.337C91.8491 312.366 92.2804 311.589 92.9692 310.984L92.2939 310.216ZM91.2624 312.744L80.5904 310.863L80.412 311.87L91.084 313.752L91.2624 312.744ZM83.1233 327.629C81.2765 327.304 79.8854 326.48 78.9059 325.172L78.0865 325.785C79.2404 327.326 80.8745 328.272 82.9448 328.637L83.1233 327.629ZM78.9109 325.178C77.9313 323.825 77.5909 322.353 77.8778 320.733L76.8702 320.555C76.5342 322.452 76.9419 324.203 78.0815 325.778L78.9109 325.178ZM77.8778 320.733C78.1734 319.065 78.9795 317.823 80.2974 316.964L79.7393 316.107C78.1685 317.13 77.2117 318.627 76.8702 320.555L77.8778 320.733ZM80.2906 316.969C81.6505 316.114 83.2589 315.834 85.1534 316.168L85.3318 315.16C83.2293 314.79 81.3548 315.091 79.7461 316.103L80.2906 316.969ZM85.1534 316.168C87.0478 316.502 88.4627 317.315 89.4465 318.583L90.2554 317.956C89.0917 316.455 87.4344 315.531 85.3318 315.16L85.1534 316.168ZM89.4465 318.583C90.4277 319.848 90.7745 321.292 90.48 322.955L91.4877 323.133C91.8302 321.199 91.4218 319.46 90.2554 317.956L89.4465 318.583ZM90.48 322.955C90.193 324.575 89.3677 325.841 87.9824 326.778L88.5554 327.625C90.167 326.535 91.1517 325.03 91.4877 323.133L90.48 322.955ZM87.9894 326.773C86.6222 327.666 85.013 327.963 83.1233 327.629L82.9448 328.637C85.052 329.009 86.9327 328.684 88.5484 327.63L87.9894 326.773Z" fill="#202027" mask="url(#path-28-outside-7_14_3767)"/>
<rect x="0.202599" y="0.28958" width="105.961" height="141.448" rx="18.775" transform="matrix(0.984808 0.173648 -0.174411 0.984673 157.727 246.807)" fill="#BCEC30"/>
<rect x="0.202599" y="0.28958" width="105.961" height="141.448" rx="18.775" transform="matrix(0.984808 0.173648 -0.174411 0.984673 157.727 246.807)" stroke="#202027" stroke-width="0.5"/>
<mask id="path-31-outside-8_14_3767" maskUnits="userSpaceOnUse" x="174.415" y="300.426" width="43.476" height="51.5463" fill="black">
<rect fill="white" x="174.415" y="300.426" width="43.476" height="51.5463"/>
<path d="M191.498 330.938C191.852 328.94 192.582 327.379 193.688 326.255C194.801 325.091 196.335 323.878 198.29 322.616C199.64 321.741 200.658 320.993 201.345 320.373C202.04 319.712 202.461 318.962 202.61 318.123C202.815 316.964 202.478 315.957 201.599 315.101C200.767 314.212 199.572 313.631 198.013 313.356C196.414 313.074 194.888 313.196 193.435 313.723C192.021 314.257 190.794 315.133 189.754 316.351L181.67 309.98C183.805 307.471 186.509 305.702 189.783 304.672C193.056 303.642 196.812 303.5 201.049 304.247C205.805 305.086 209.445 306.758 211.969 309.264C214.54 311.737 215.51 314.751 214.88 318.308C214.59 319.947 214.052 321.356 213.266 322.536C212.487 323.677 211.62 324.616 210.665 325.354C209.757 326.059 208.587 326.842 207.157 327.703C205.593 328.622 204.417 329.445 203.629 330.172C202.848 330.858 202.361 331.741 202.17 332.82L191.498 330.938ZM194.031 347.705C192.073 347.36 190.56 346.475 189.493 345.05C188.434 343.586 188.06 341.975 188.371 340.216C188.69 338.418 189.571 337.048 191.015 336.108C192.5 335.174 194.241 334.884 196.24 335.236C198.238 335.589 199.774 336.457 200.848 337.842C201.922 339.226 202.299 340.818 201.981 342.616C201.669 344.374 200.764 345.76 199.266 346.774C197.775 347.747 196.03 348.058 194.031 347.705Z"/>
</mask>
<path d="M191.498 330.938C191.852 328.94 192.582 327.379 193.688 326.255C194.801 325.091 196.335 323.878 198.29 322.616C199.64 321.741 200.658 320.993 201.345 320.373C202.04 319.712 202.461 318.962 202.61 318.123C202.815 316.964 202.478 315.957 201.599 315.101C200.767 314.212 199.572 313.631 198.013 313.356C196.414 313.074 194.888 313.196 193.435 313.723C192.021 314.257 190.794 315.133 189.754 316.351L181.67 309.98C183.805 307.471 186.509 305.702 189.783 304.672C193.056 303.642 196.812 303.5 201.049 304.247C205.805 305.086 209.445 306.758 211.969 309.264C214.54 311.737 215.51 314.751 214.88 318.308C214.59 319.947 214.052 321.356 213.266 322.536C212.487 323.677 211.62 324.616 210.665 325.354C209.757 326.059 208.587 326.842 207.157 327.703C205.593 328.622 204.417 329.445 203.629 330.172C202.848 330.858 202.361 331.741 202.17 332.82L191.498 330.938ZM194.031 347.705C192.073 347.36 190.56 346.475 189.493 345.05C188.434 343.586 188.06 341.975 188.371 340.216C188.69 338.418 189.571 337.048 191.015 336.108C192.5 335.174 194.241 334.884 196.24 335.236C198.238 335.589 199.774 336.457 200.848 337.842C201.922 339.226 202.299 340.818 201.981 342.616C201.669 344.374 200.764 345.76 199.266 346.774C197.775 347.747 196.03 348.058 194.031 347.705Z" fill="white"/>
<path d="M191.498 330.938L190.994 330.849L190.905 331.353L191.409 331.442L191.498 330.938ZM193.688 326.255L194.053 326.614L194.058 326.609L193.688 326.255ZM198.29 322.616L198.567 323.045L198.568 323.045L198.29 322.616ZM201.345 320.373L201.689 320.752L201.698 320.743L201.345 320.373ZM201.599 315.101L201.225 315.451L201.234 315.459L201.242 315.468L201.599 315.101ZM193.435 313.723L193.261 313.242L193.254 313.245L193.435 313.723ZM189.754 316.351L189.437 316.752L189.824 317.057L190.143 316.683L189.754 316.351ZM181.67 309.98L181.281 309.648L180.937 310.053L181.353 310.381L181.67 309.98ZM189.783 304.672L189.936 305.16L189.783 304.672ZM211.969 309.264L211.608 309.627L211.614 309.633L211.969 309.264ZM213.266 322.536L213.688 322.825L213.692 322.82L213.266 322.536ZM210.665 325.354L210.352 324.949L210.351 324.95L210.665 325.354ZM207.157 327.703L207.416 328.144L207.421 328.141L207.157 327.703ZM203.629 330.172L203.966 330.556L203.975 330.548L203.629 330.172ZM202.17 332.82L202.081 333.324L202.585 333.413L202.674 332.909L202.17 332.82ZM189.493 345.05L189.079 345.351L189.084 345.357L189.493 345.05ZM191.015 336.108L190.743 335.675L190.736 335.679L191.015 336.108ZM200.848 337.842L200.444 338.155L200.848 337.842ZM199.266 346.774L199.545 347.202L199.552 347.197L199.266 346.774ZM192.002 331.027C192.343 329.102 193.038 327.645 194.053 326.614L193.323 325.897C192.127 327.113 191.361 328.779 190.994 330.849L192.002 331.027ZM194.058 326.609C195.134 325.483 196.632 324.295 198.567 323.045L198.012 322.186C196.037 323.462 194.468 324.7 193.318 325.902L194.058 326.609ZM198.568 323.045C199.927 322.165 200.972 321.4 201.688 320.752L201.003 319.993C200.345 320.587 199.353 321.317 198.012 322.186L198.568 323.045ZM201.698 320.743C202.461 320.017 202.943 319.172 203.113 318.212L202.106 318.034C201.978 318.752 201.618 319.407 200.993 320.002L201.698 320.743ZM203.113 318.212C203.35 316.878 202.95 315.702 201.956 314.734L201.242 315.468C202.006 316.211 202.28 317.05 202.106 318.034L203.113 318.212ZM201.973 314.751C201.045 313.761 199.737 313.14 198.102 312.852L197.924 313.86C199.406 314.121 200.489 314.664 201.225 315.451L201.973 314.751ZM198.102 312.852C196.42 312.555 194.803 312.683 193.261 313.242L193.609 314.204C194.974 313.709 196.409 313.592 197.924 313.86L198.102 312.852ZM193.254 313.245C191.755 313.811 190.458 314.739 189.365 316.019L190.143 316.683C191.131 315.526 192.287 314.703 193.615 314.202L193.254 313.245ZM190.071 315.949L181.987 309.578L181.353 310.381L189.437 316.752L190.071 315.949ZM182.06 310.311C184.129 307.879 186.75 306.162 189.936 305.16L189.629 304.184C186.268 305.241 183.48 307.063 181.281 309.648L182.06 310.311ZM189.936 305.16C193.114 304.16 196.783 304.015 200.959 304.751L201.138 303.744C196.84 302.986 192.999 303.124 189.629 304.184L189.936 305.16ZM200.959 304.751C205.649 305.578 209.181 307.217 211.608 309.627L212.33 308.901C209.71 306.3 205.961 304.594 201.138 303.744L200.959 304.751ZM211.614 309.633C214.06 311.985 214.977 314.828 214.377 318.219L215.384 318.397C216.044 314.675 215.02 311.488 212.324 308.895L211.614 309.633ZM214.377 318.219C214.097 319.8 213.581 321.141 212.84 322.253L213.692 322.82C214.523 321.571 215.084 320.093 215.384 318.397L214.377 318.219ZM212.843 322.248C212.09 323.35 211.259 324.248 210.352 324.949L210.977 325.759C211.981 324.983 212.883 324.003 213.688 322.825L212.843 322.248ZM210.351 324.95C209.464 325.639 208.313 326.41 206.894 327.265L207.421 328.141C208.861 327.274 210.049 326.48 210.978 325.758L210.351 324.95ZM206.898 327.262C205.321 328.189 204.109 329.033 203.282 329.796L203.975 330.548C204.725 329.857 205.865 329.056 207.416 328.144L206.898 327.262ZM203.291 329.788C202.418 330.555 201.877 331.544 201.666 332.731L202.674 332.909C202.846 331.938 203.277 331.161 203.966 330.556L203.291 329.788ZM202.26 332.316L191.588 330.435L191.409 331.442L202.081 333.324L202.26 332.316ZM194.12 347.201C192.274 346.876 190.882 346.052 189.903 344.744L189.084 345.357C190.237 346.898 191.872 347.844 193.942 348.209L194.12 347.201ZM189.908 344.75C188.928 343.397 188.588 341.925 188.875 340.305L187.867 340.127C187.531 342.024 187.939 343.775 189.079 345.35L189.908 344.75ZM188.875 340.305C189.17 338.637 189.977 337.395 191.294 336.536L190.736 335.679C189.166 336.702 188.209 338.199 187.867 340.127L188.875 340.305ZM191.288 336.541C192.648 335.686 194.256 335.406 196.15 335.74L196.329 334.732C194.226 334.362 192.352 334.663 190.743 335.675L191.288 336.541ZM196.15 335.74C198.045 336.074 199.46 336.887 200.444 338.155L201.253 337.528C200.089 336.027 198.431 335.103 196.329 334.732L196.15 335.74ZM200.444 338.155C201.425 339.42 201.772 340.864 201.477 342.527L202.485 342.705C202.827 340.771 202.419 339.032 201.253 337.528L200.444 338.155ZM201.477 342.527C201.19 344.147 200.365 345.413 198.979 346.35L199.552 347.197C201.164 346.107 202.149 344.602 202.485 342.705L201.477 342.527ZM198.986 346.345C197.619 347.238 196.01 347.535 194.12 347.201L193.942 348.209C196.049 348.581 197.93 348.256 199.545 347.202L198.986 346.345Z" fill="#202027" mask="url(#path-31-outside-8_14_3767)"/>
<rect x="0.202599" y="0.28958" width="105.961" height="141.448" rx="18.775" transform="matrix(0.984808 0.173648 -0.174411 0.984673 268.725 266.379)" fill="#BCEC30"/>
<rect x="0.202599" y="0.28958" width="105.961" height="141.448" rx="18.775" transform="matrix(0.984808 0.173648 -0.174411 0.984673 268.725 266.379)" stroke="#202027" stroke-width="0.5"/>
<mask id="path-34-outside-9_14_3767" maskUnits="userSpaceOnUse" x="289.645" y="325.036" width="35.9974" height="41.6423" fill="black">
<rect fill="white" x="289.645" y="325.036" width="35.9974" height="41.6423"/>
<path d="M303.584 350.194C303.87 348.582 304.459 347.323 305.351 346.416C306.249 345.477 307.486 344.499 309.063 343.48C310.152 342.774 310.974 342.171 311.528 341.67C312.088 341.137 312.428 340.532 312.548 339.855C312.714 338.92 312.442 338.108 311.733 337.417C311.062 336.701 310.098 336.231 308.84 336.01C307.55 335.782 306.319 335.881 305.146 336.306C304.006 336.737 303.016 337.443 302.177 338.426L295.656 333.286C297.377 331.262 299.559 329.835 302.2 329.004C304.841 328.173 307.871 328.059 311.289 328.661C315.126 329.338 318.063 330.687 320.099 332.708C322.173 334.703 322.956 337.135 322.448 340.005C322.214 341.327 321.779 342.464 321.145 343.416C320.517 344.336 319.817 345.094 319.047 345.689C318.314 346.258 317.371 346.89 316.217 347.584C314.955 348.326 314.006 348.99 313.37 349.576C312.74 350.13 312.348 350.842 312.194 351.712L303.584 350.194ZM305.628 363.721C304.048 363.442 302.827 362.728 301.967 361.579C301.112 360.398 300.81 359.098 301.061 357.679C301.318 356.228 302.029 355.124 303.195 354.365C304.392 353.612 305.797 353.377 307.409 353.662C309.022 353.946 310.261 354.647 311.127 355.763C311.993 356.88 312.298 358.164 312.041 359.615C311.79 361.034 311.06 362.152 309.851 362.969C308.648 363.755 307.24 364.005 305.628 363.721Z"/>
</mask>
<path d="M303.584 350.194C303.87 348.582 304.459 347.323 305.351 346.416C306.249 345.477 307.486 344.499 309.063 343.48C310.152 342.774 310.974 342.171 311.528 341.67C312.088 341.137 312.428 340.532 312.548 339.855C312.714 338.92 312.442 338.108 311.733 337.417C311.062 336.701 310.098 336.231 308.84 336.01C307.55 335.782 306.319 335.881 305.146 336.306C304.006 336.737 303.016 337.443 302.177 338.426L295.656 333.286C297.377 331.262 299.559 329.835 302.2 329.004C304.841 328.173 307.871 328.059 311.289 328.661C315.126 329.338 318.063 330.687 320.099 332.708C322.173 334.703 322.956 337.135 322.448 340.005C322.214 341.327 321.779 342.464 321.145 343.416C320.517 344.336 319.817 345.094 319.047 345.689C318.314 346.258 317.371 346.89 316.217 347.584C314.955 348.326 314.006 348.99 313.37 349.576C312.74 350.13 312.348 350.842 312.194 351.712L303.584 350.194ZM305.628 363.721C304.048 363.442 302.827 362.728 301.967 361.579C301.112 360.398 300.81 359.098 301.061 357.679C301.318 356.228 302.029 355.124 303.195 354.365C304.392 353.612 305.797 353.377 307.409 353.662C309.022 353.946 310.261 354.647 311.127 355.763C311.993 356.88 312.298 358.164 312.041 359.615C311.79 361.034 311.06 362.152 309.851 362.969C308.648 363.755 307.24 364.005 305.628 363.721Z" fill="white"/>
<path d="M303.584 350.194L303.08 350.105L302.991 350.609L303.495 350.698L303.584 350.194ZM305.351 346.416L305.715 346.775L305.72 346.77L305.351 346.416ZM309.063 343.48L309.341 343.91L309.341 343.909L309.063 343.48ZM311.528 341.67L311.871 342.05L311.881 342.041L311.528 341.67ZM311.733 337.417L311.359 337.767L311.367 337.776L311.376 337.784L311.733 337.417ZM305.146 336.306L304.972 335.825L304.966 335.827L305.146 336.306ZM302.177 338.426L301.86 338.827L302.247 339.132L302.566 338.758L302.177 338.426ZM295.656 333.286L295.266 332.955L294.922 333.359L295.339 333.688L295.656 333.286ZM302.2 329.004L302.353 329.492L302.353 329.492L302.2 329.004ZM320.099 332.708L319.738 333.072L319.744 333.077L320.099 332.708ZM321.145 343.416L321.568 343.704L321.571 343.699L321.145 343.416ZM319.047 345.689L318.734 345.285L318.733 345.285L319.047 345.689ZM316.217 347.584L316.476 348.025L316.481 348.022L316.217 347.584ZM313.37 349.576L313.708 349.96L313.717 349.952L313.37 349.576ZM312.194 351.712L312.105 352.216L312.608 352.305L312.698 351.801L312.194 351.712ZM301.967 361.579L301.552 361.879L301.557 361.886L301.967 361.579ZM303.195 354.365L302.922 353.932L302.916 353.936L303.195 354.365ZM311.127 355.763L310.723 356.077L311.127 355.763ZM309.851 362.969L310.13 363.398L310.137 363.393L309.851 362.969ZM304.088 350.283C304.361 348.744 304.914 347.589 305.715 346.775L304.986 346.058C304.003 347.057 303.379 348.421 303.08 350.105L304.088 350.283ZM305.72 346.77C306.581 345.869 307.784 344.915 309.341 343.91L308.786 343.05C307.188 344.082 305.916 345.085 304.981 346.063L305.72 346.77ZM309.341 343.909C310.439 343.198 311.287 342.577 311.871 342.05L311.186 341.291C310.661 341.765 309.866 342.351 308.785 343.051L309.341 343.909ZM311.881 342.041C312.51 341.442 312.911 340.742 313.052 339.944L312.044 339.767C311.946 340.323 311.667 340.833 311.176 341.3L311.881 342.041ZM313.052 339.944C313.249 338.834 312.914 337.853 312.09 337.051L311.376 337.784C311.97 338.362 312.179 339.007 312.044 339.767L313.052 339.944ZM312.107 337.068C311.34 336.249 310.263 335.741 308.929 335.506L308.751 336.513C309.932 336.722 310.784 337.152 311.359 337.767L312.107 337.068ZM308.929 335.506C307.556 335.264 306.233 335.368 304.972 335.825L305.32 336.787C306.404 336.394 307.545 336.301 308.751 336.513L308.929 335.506ZM304.966 335.827C303.74 336.29 302.68 337.05 301.788 338.094L302.566 338.758C303.353 337.837 304.272 337.183 305.327 336.784L304.966 335.827ZM302.494 338.024L295.972 332.884L295.339 333.688L301.86 338.827L302.494 338.024ZM296.045 333.617C297.702 331.67 299.8 330.295 302.353 329.492L302.047 328.516C299.318 329.374 297.053 330.854 295.266 332.955L296.045 333.617ZM302.353 329.492C304.899 328.691 307.842 328.573 311.2 329.165L311.378 328.158C307.899 327.544 304.784 327.655 302.047 328.516L302.353 329.492ZM311.2 329.165C314.97 329.83 317.798 331.146 319.738 333.072L320.46 332.345C318.327 330.228 315.282 328.846 311.378 328.158L311.2 329.165ZM319.744 333.077C321.694 334.952 322.423 337.212 321.944 339.916L322.952 340.094C323.489 337.059 322.653 334.454 320.454 332.34L319.744 333.077ZM321.944 339.916C321.72 341.18 321.308 342.249 320.719 343.133L321.571 343.699C322.251 342.679 322.707 341.473 322.952 340.094L321.944 339.916ZM320.723 343.128C320.12 344.01 319.456 344.726 318.734 345.285L319.359 346.094C320.178 345.461 320.913 344.662 321.568 343.704L320.723 343.128ZM318.733 345.285C318.022 345.838 317.097 346.458 315.953 347.146L316.481 348.022C317.645 347.322 318.606 346.679 319.36 346.093L318.733 345.285ZM315.958 347.143C314.683 347.893 313.698 348.578 313.024 349.2L313.717 349.952C314.314 349.402 315.227 348.759 316.476 348.025L315.958 347.143ZM313.033 349.192C312.31 349.827 311.863 350.645 311.69 351.624L312.698 351.801C312.833 351.038 313.17 350.433 313.708 349.96L313.033 349.192ZM312.283 351.209L303.673 349.691L303.495 350.698L312.105 352.216L312.283 351.209ZM305.717 363.217C304.249 362.958 303.15 362.305 302.376 361.272L301.557 361.886C302.505 363.152 303.846 363.926 305.538 364.225L305.717 363.217ZM302.381 361.279C301.606 360.208 301.338 359.048 301.565 357.768L300.557 357.59C300.282 359.147 300.617 360.587 301.552 361.879L302.381 361.279ZM301.565 357.768C301.799 356.447 302.435 355.47 303.474 354.793L302.916 353.936C301.624 354.777 300.838 356.009 300.557 357.59L301.565 357.768ZM303.467 354.798C304.54 354.123 305.812 353.899 307.32 354.165L307.499 353.158C305.782 352.855 304.244 353.101 302.922 353.932L303.467 354.798ZM307.32 354.165C308.828 354.431 309.946 355.076 310.723 356.077L311.532 355.45C310.575 354.217 309.215 353.46 307.499 353.158L307.32 354.165ZM310.723 356.077C311.496 357.075 311.77 358.211 311.537 359.526L312.545 359.704C312.826 358.118 312.49 356.686 311.532 355.45L310.723 356.077ZM311.537 359.526C311.31 360.807 310.66 361.805 309.564 362.546L310.137 363.393C311.459 362.499 312.269 361.261 312.545 359.704L311.537 359.526ZM309.571 362.541C308.492 363.245 307.22 363.482 305.717 363.217L305.538 364.225C307.259 364.528 308.803 364.264 310.13 363.398L309.571 362.541Z" fill="#202027" mask="url(#path-34-outside-9_14_3767)"/>
<rect x="0.202599" y="0.28958" width="105.961" height="141.448" rx="18.775" transform="matrix(0.984808 0.173648 -0.174411 0.984673 379.724 285.951)" fill="#BCEC30"/>
<rect x="0.202599" y="0.28958" width="105.961" height="141.448" rx="18.775" transform="matrix(0.984808 0.173648 -0.174411 0.984673 379.724 285.951)" stroke="#202027" stroke-width="0.5"/>
<g filter="url(#filter1_d_14_3767)">
<rect width="138.133" height="184.177" rx="19.025" transform="matrix(0.984808 0.173648 -0.174411 0.984673 171.54 77.3777)" fill="#E1FF8F"/>
<rect x="-0.202599" y="-0.28958" width="138.633" height="184.677" rx="19.275" transform="matrix(0.984808 0.173648 -0.174411 0.984673 171.486 77.4085)" stroke="#202027" stroke-width="0.5"/>
<rect x="-0.202599" y="-0.28958" width="138.633" height="184.677" rx="19.275" transform="matrix(0.984808 0.173648 -0.174411 0.984673 171.486 77.4085)" stroke="black" stroke-opacity="0.2" stroke-width="0.5"/>
</g>
<mask id="path-39-outside-10_14_3767" maskUnits="userSpaceOnUse" x="192.024" y="146.208" width="57.9098" height="68.4002" fill="black">
<rect fill="white" x="192.024" y="146.208" width="57.9098" height="68.4002"/>
<path d="M215.179 187.307C215.65 184.642 216.624 182.561 218.098 181.062C219.582 179.511 221.627 177.893 224.234 176.21C226.034 175.043 227.392 174.047 228.308 173.219C229.234 172.338 229.795 171.338 229.994 170.219C230.267 168.674 229.818 167.331 228.646 166.19C227.537 165.005 225.943 164.23 223.865 163.863C221.733 163.487 219.698 163.651 217.76 164.353C215.876 165.065 214.24 166.232 212.853 167.856L202.075 159.362C204.92 156.017 208.526 153.658 212.891 152.284C217.256 150.911 222.263 150.722 227.912 151.718C234.254 152.837 239.108 155.066 242.473 158.407C245.901 161.704 247.195 165.724 246.355 170.466C245.968 172.651 245.25 174.53 244.202 176.104C243.163 177.624 242.007 178.877 240.734 179.861C239.523 180.801 237.964 181.845 236.057 182.993C233.972 184.219 232.403 185.316 231.352 186.284C230.311 187.2 229.663 188.377 229.408 189.816L215.179 187.307ZM218.556 209.662C215.944 209.202 213.927 208.022 212.505 206.123C211.092 204.17 210.594 202.022 211.009 199.677C211.434 197.279 212.609 195.453 214.535 194.199C216.514 192.955 218.836 192.567 221.5 193.037C224.165 193.507 226.213 194.665 227.645 196.511C229.077 198.357 229.58 200.479 229.155 202.877C228.74 205.221 227.533 207.069 225.535 208.42C223.547 209.718 221.22 210.132 218.556 209.662Z"/>
</mask>
<path d="M215.179 187.307C215.65 184.642 216.624 182.561 218.098 181.062C219.582 179.511 221.627 177.893 224.234 176.21C226.034 175.043 227.392 174.047 228.308 173.219C229.234 172.338 229.795 171.338 229.994 170.219C230.267 168.674 229.818 167.331 228.646 166.19C227.537 165.005 225.943 164.23 223.865 163.863C221.733 163.487 219.698 163.651 217.76 164.353C215.876 165.065 214.24 166.232 212.853 167.856L202.075 159.362C204.92 156.017 208.526 153.658 212.891 152.284C217.256 150.911 222.263 150.722 227.912 151.718C234.254 152.837 239.108 155.066 242.473 158.407C245.901 161.704 247.195 165.724 246.355 170.466C245.968 172.651 245.25 174.53 244.202 176.104C243.163 177.624 242.007 178.877 240.734 179.861C239.523 180.801 237.964 181.845 236.057 182.993C233.972 184.219 232.403 185.316 231.352 186.284C230.311 187.2 229.663 188.377 229.408 189.816L215.179 187.307ZM218.556 209.662C215.944 209.202 213.927 208.022 212.505 206.123C211.092 204.17 210.594 202.022 211.009 199.677C211.434 197.279 212.609 195.453 214.535 194.199C216.514 192.955 218.836 192.567 221.5 193.037C224.165 193.507 226.213 194.665 227.645 196.511C229.077 198.357 229.58 200.479 229.155 202.877C228.74 205.221 227.533 207.069 225.535 208.42C223.547 209.718 221.22 210.132 218.556 209.662Z" fill="white"/>
<path d="M215.179 187.307L214.554 187.196L214.443 187.821L215.068 187.931L215.179 187.307ZM218.098 181.062L218.55 181.507L218.556 181.5L218.098 181.062ZM224.234 176.21L224.578 176.742L224.578 176.742L224.234 176.21ZM228.308 173.219L228.733 173.689L228.739 173.684L228.745 173.678L228.308 173.219ZM228.646 166.19L228.183 166.623L228.193 166.634L228.204 166.644L228.646 166.19ZM217.76 164.353L217.545 163.757L217.537 163.76L217.76 164.353ZM212.853 167.856L212.46 168.354L212.939 168.732L213.335 168.268L212.853 167.856ZM202.075 159.362L201.592 158.951L201.165 159.452L201.682 159.86L202.075 159.362ZM212.891 152.284L213.081 152.889L213.081 152.889L212.891 152.284ZM242.473 158.407L242.026 158.857L242.033 158.864L242.473 158.407ZM244.202 176.104L244.726 176.461L244.73 176.455L244.202 176.104ZM240.734 179.861L240.346 179.359L240.345 179.36L240.734 179.861ZM236.057 182.993L236.378 183.539L236.384 183.536L236.057 182.993ZM231.352 186.284L231.771 186.76L231.777 186.756L231.782 186.75L231.352 186.284ZM229.408 189.816L229.297 190.44L229.922 190.55L230.032 189.926L229.408 189.816ZM212.505 206.123L211.991 206.495L211.997 206.503L212.505 206.123ZM214.535 194.199L214.197 193.662L214.189 193.668L214.535 194.199ZM227.645 196.511L227.144 196.9L227.144 196.9L227.645 196.511ZM225.535 208.42L225.882 208.951L225.891 208.945L225.535 208.42ZM215.803 187.417C216.259 184.843 217.188 182.891 218.55 181.507L217.646 180.618C216.059 182.231 215.042 184.442 214.554 187.196L215.803 187.417ZM218.556 181.5C219.995 179.997 221.996 178.41 224.578 176.742L223.89 175.677C221.258 177.377 219.17 179.025 217.64 180.624L218.556 181.5ZM224.578 176.742C226.39 175.568 227.78 174.55 228.733 173.689L227.883 172.749C227.004 173.543 225.678 174.518 223.889 175.678L224.578 176.742ZM228.745 173.678C229.756 172.716 230.393 171.598 230.618 170.329L229.369 170.109C229.197 171.078 228.711 171.96 227.871 172.76L228.745 173.678ZM230.618 170.329C230.93 168.567 230.404 167.015 229.089 165.736L228.204 166.644C229.233 167.646 229.604 168.781 229.369 170.109L230.618 170.329ZM229.11 165.757C227.882 164.445 226.149 163.622 223.976 163.239L223.754 164.488C225.738 164.838 227.193 165.565 228.183 166.623L229.11 165.757ZM223.976 163.239C221.74 162.845 219.592 163.015 217.545 163.757L217.976 164.949C219.804 164.286 221.726 164.13 223.754 164.488L223.976 163.239ZM217.537 163.76C215.546 164.512 213.823 165.745 212.371 167.445L213.335 168.268C214.657 166.72 216.206 165.618 217.984 164.946L217.537 163.76ZM213.246 167.358L202.468 158.864L201.682 159.86L212.46 168.354L213.246 167.358ZM202.558 159.772C205.323 156.522 208.825 154.228 213.081 152.889L212.701 151.68C208.227 153.087 204.518 155.511 201.592 158.951L202.558 159.772ZM213.081 152.889C217.327 151.553 222.228 151.36 227.802 152.343L228.023 151.094C222.298 150.085 217.185 150.269 212.701 151.68L213.081 152.889ZM227.802 152.343C234.061 153.447 238.78 155.635 242.026 158.857L242.92 157.957C239.435 154.498 234.448 152.227 228.023 151.094L227.802 152.343ZM242.033 158.864C245.306 162.013 246.534 165.819 245.73 170.356L246.979 170.577C247.856 165.629 246.495 161.396 242.913 157.95L242.033 158.864ZM245.73 170.356C245.356 172.47 244.666 174.264 243.674 175.753L244.73 176.455C245.834 174.797 246.58 172.833 246.979 170.577L245.73 170.356ZM243.678 175.747C242.672 177.22 241.56 178.421 240.346 179.359L241.122 180.362C242.455 179.332 243.655 178.029 244.726 176.461L243.678 175.747ZM240.345 179.36C239.161 180.28 237.625 181.31 235.73 182.45L236.384 183.536C238.304 182.381 239.885 181.323 241.123 180.362L240.345 179.36ZM235.736 182.446C233.634 183.681 232.022 184.805 230.923 185.818L231.782 186.75C232.785 185.826 234.309 184.756 236.378 183.539L235.736 182.446ZM230.934 185.808C229.778 186.824 229.062 188.133 228.783 189.705L230.032 189.926C230.264 188.62 230.844 187.575 231.771 186.76L230.934 185.808ZM229.519 189.191L215.289 186.682L215.068 187.931L229.297 190.44L229.519 189.191ZM218.666 209.038C216.193 208.602 214.327 207.497 213.013 205.742L211.997 206.503C213.528 208.547 215.695 209.802 218.445 210.287L218.666 209.038ZM213.019 205.751C211.706 203.935 211.249 201.96 211.633 199.787L210.384 199.567C209.939 202.083 210.479 204.405 211.991 206.495L213.019 205.751ZM211.633 199.787C212.03 197.55 213.112 195.882 214.881 194.73L214.189 193.668C212.106 195.024 210.838 197.008 210.384 199.567L211.633 199.787ZM214.872 194.736C216.697 193.588 218.854 193.214 221.39 193.662L221.611 192.413C218.817 191.92 216.331 192.321 214.197 193.663L214.872 194.736ZM221.39 193.662C223.926 194.109 225.823 195.197 227.144 196.9L228.146 196.122C226.603 194.132 224.405 192.905 221.611 192.413L221.39 193.662ZM227.144 196.9C228.46 198.598 228.926 200.537 228.531 202.767L229.78 202.987C230.234 200.421 229.693 198.116 228.146 196.122L227.144 196.9ZM228.531 202.767C228.146 204.94 227.038 206.639 225.18 207.895L225.891 208.945C228.029 207.499 229.334 205.503 229.78 202.987L228.531 202.767ZM225.189 207.889C223.354 209.087 221.196 209.484 218.666 209.038L218.445 210.287C221.244 210.78 223.739 210.35 225.882 208.951L225.189 207.889Z" fill="#202027" mask="url(#path-39-outside-10_14_3767)"/>
</g>
<rect x="67" y="369" width="107" height="36" rx="18" fill="#F7F7F7"/>
<path d="M84.744 380.8H86.328V389.44L92.952 380.8H94.424V392H92.856V383.376L86.216 392H84.744V380.8ZM103.9 384.864H99.1959V392H97.6599V383.52H103.9V384.864ZM109.968 383.44C110.79 383.44 111.526 383.621 112.176 383.984C112.827 384.347 113.334 384.853 113.696 385.504C114.07 386.155 114.256 386.907 114.256 387.76C114.256 388.613 114.07 389.371 113.696 390.032C113.334 390.683 112.827 391.189 112.176 391.552C111.526 391.915 110.79 392.096 109.968 392.096C109.36 392.096 108.8 391.979 108.288 391.744C107.787 391.509 107.36 391.168 107.008 390.72V395.104H105.472V383.52H106.944V384.864C107.286 384.395 107.718 384.043 108.24 383.808C108.763 383.563 109.339 383.44 109.968 383.44ZM109.84 390.752C110.384 390.752 110.87 390.629 111.296 390.384C111.734 390.128 112.075 389.776 112.32 389.328C112.576 388.869 112.704 388.347 112.704 387.76C112.704 387.173 112.576 386.656 112.32 386.208C112.075 385.749 111.734 385.397 111.296 385.152C110.87 384.907 110.384 384.784 109.84 384.784C109.307 384.784 108.822 384.912 108.384 385.168C107.958 385.413 107.616 385.76 107.36 386.208C107.115 386.656 106.992 387.173 106.992 387.76C106.992 388.347 107.115 388.869 107.36 389.328C107.606 389.776 107.947 390.128 108.384 390.384C108.822 390.629 109.307 390.752 109.84 390.752ZM119.434 383.44C120.607 383.44 121.503 383.728 122.122 384.304C122.751 384.88 123.066 385.739 123.066 386.88V392H121.61V390.88C121.354 391.275 120.986 391.579 120.506 391.792C120.037 391.995 119.477 392.096 118.826 392.096C117.877 392.096 117.114 391.867 116.538 391.408C115.973 390.949 115.69 390.347 115.69 389.6C115.69 388.853 115.962 388.256 116.506 387.808C117.05 387.349 117.914 387.12 119.098 387.12H121.53V386.816C121.53 386.155 121.338 385.648 120.954 385.296C120.57 384.944 120.005 384.768 119.258 384.768C118.757 384.768 118.266 384.853 117.786 385.024C117.306 385.184 116.901 385.403 116.57 385.68L115.93 384.528C116.367 384.176 116.89 383.909 117.498 383.728C118.106 383.536 118.751 383.44 119.434 383.44ZM119.082 390.912C119.669 390.912 120.175 390.784 120.602 390.528C121.029 390.261 121.338 389.888 121.53 389.408V388.224H119.162C117.861 388.224 117.21 388.661 117.21 389.536C117.21 389.963 117.375 390.299 117.706 390.544C118.037 390.789 118.495 390.912 119.082 390.912ZM144.257 385.872C143.713 385.872 143.222 385.76 142.785 385.536C142.358 385.312 142.022 385.003 141.777 384.608C141.531 384.213 141.409 383.771 141.409 383.28C141.409 382.789 141.531 382.347 141.777 381.952C142.022 381.557 142.358 381.253 142.785 381.04C143.222 380.816 143.713 380.704 144.257 380.704C144.801 380.704 145.286 380.816 145.713 381.04C146.15 381.253 146.486 381.557 146.721 381.952C146.966 382.347 147.089 382.789 147.089 383.28C147.089 383.771 146.966 384.213 146.721 384.608C146.486 385.003 146.15 385.312 145.713 385.536C145.286 385.76 144.801 385.872 144.257 385.872ZM138.353 380.8H139.953V392H138.641L131.921 383.648V392H130.321V380.8H131.633L138.353 389.152V380.8ZM144.257 381.616C143.723 381.616 143.291 381.771 142.961 382.08C142.641 382.389 142.481 382.789 142.481 383.28C142.481 383.771 142.646 384.171 142.977 384.48C143.307 384.789 143.734 384.944 144.257 384.944C144.779 384.944 145.201 384.789 145.521 384.48C145.851 384.171 146.017 383.771 146.017 383.28C146.017 382.789 145.851 382.389 145.521 382.08C145.201 381.771 144.779 381.616 144.257 381.616ZM141.729 387.136H146.785V388.176H141.729V387.136ZM151.874 385.264C153.474 385.264 154.648 385.568 155.394 386.176C156.152 386.773 156.53 387.595 156.53 388.64C156.53 389.301 156.37 389.899 156.05 390.432C155.741 390.955 155.266 391.371 154.626 391.68C153.997 391.979 153.218 392.128 152.29 392.128C151.501 392.128 150.738 392.011 150.002 391.776C149.266 391.531 148.658 391.195 148.178 390.768L148.914 389.504C149.298 389.867 149.789 390.16 150.386 390.384C150.984 390.597 151.613 390.704 152.274 390.704C153.117 390.704 153.768 390.528 154.226 390.176C154.696 389.813 154.93 389.323 154.93 388.704C154.93 388.032 154.674 387.525 154.162 387.184C153.65 386.832 152.776 386.656 151.538 386.656H148.994L149.586 380.8H155.906V382.192H150.93L150.626 385.264H151.874Z" fill="#202027"/>
<path d="M90.2 429.6V452H85.048V433.824H74.936V452H69.784V429.6H90.2ZM105.513 434.528C107.113 434.528 108.563 434.901 109.865 435.648C111.187 436.373 112.222 437.408 112.969 438.752C113.715 440.075 114.089 441.621 114.089 443.392C114.089 445.163 113.715 446.72 112.969 448.064C112.222 449.387 111.187 450.421 109.865 451.168C108.563 451.893 107.113 452.256 105.513 452.256C103.315 452.256 101.587 451.563 100.329 450.176V458.208H95.3368V434.784H100.105V436.768C101.342 435.275 103.145 434.528 105.513 434.528ZM104.649 448.16C105.929 448.16 106.974 447.733 107.785 446.88C108.617 446.005 109.033 444.843 109.033 443.392C109.033 441.941 108.617 440.789 107.785 439.936C106.974 439.061 105.929 438.624 104.649 438.624C103.369 438.624 102.313 439.061 101.481 439.936C100.67 440.789 100.265 441.941 100.265 443.392C100.265 444.843 100.67 446.005 101.481 446.88C102.313 447.733 103.369 448.16 104.649 448.16ZM125.652 452.256C123.838 452.256 122.206 451.883 120.756 451.136C119.326 450.368 118.206 449.312 117.396 447.968C116.585 446.624 116.18 445.099 116.18 443.392C116.18 441.685 116.585 440.16 117.396 438.816C118.206 437.472 119.326 436.427 120.756 435.68C122.206 434.912 123.838 434.528 125.652 434.528C127.465 434.528 129.086 434.912 130.516 435.68C131.945 436.427 133.065 437.472 133.876 438.816C134.686 440.16 135.092 441.685 135.092 443.392C135.092 445.099 134.686 446.624 133.876 447.968C133.065 449.312 131.945 450.368 130.516 451.136C129.086 451.883 127.465 452.256 125.652 452.256ZM125.652 448.16C126.932 448.16 127.977 447.733 128.788 446.88C129.62 446.005 130.036 444.843 130.036 443.392C130.036 441.941 129.62 440.789 128.788 439.936C127.977 439.061 126.932 438.624 125.652 438.624C124.372 438.624 123.316 439.061 122.484 439.936C121.652 440.789 121.236 441.941 121.236 443.392C121.236 444.843 121.652 446.005 122.484 446.88C123.316 447.733 124.372 448.16 125.652 448.16ZM146.717 452.256C144.882 452.256 143.229 451.883 141.757 451.136C140.306 450.368 139.165 449.312 138.333 447.968C137.522 446.624 137.117 445.099 137.117 443.392C137.117 441.685 137.522 440.16 138.333 438.816C139.165 437.472 140.306 436.427 141.757 435.68C143.229 434.912 144.882 434.528 146.717 434.528C148.53 434.528 150.109 434.912 151.453 435.68C152.818 436.427 153.81 437.504 154.429 438.912L150.557 440.992C149.661 439.413 148.37 438.624 146.685 438.624C145.384 438.624 144.306 439.051 143.453 439.904C142.6 440.757 142.173 441.92 142.173 443.392C142.173 444.864 142.6 446.027 143.453 446.88C144.306 447.733 145.384 448.16 146.685 448.16C148.392 448.16 149.682 447.371 150.557 445.792L154.429 447.904C153.81 449.269 152.818 450.336 151.453 451.104C150.109 451.872 148.53 452.256 146.717 452.256ZM171.864 438.88H166.04V452H161.08V438.88H155.256V434.784H171.864V438.88ZM181.213 434.528C183.88 434.528 185.928 435.168 187.357 436.448C188.786 437.707 189.501 439.616 189.501 442.176V452H184.829V449.856C183.89 451.456 182.141 452.256 179.581 452.256C178.258 452.256 177.106 452.032 176.125 451.584C175.165 451.136 174.429 450.517 173.917 449.728C173.405 448.939 173.149 448.043 173.149 447.04C173.149 445.44 173.746 444.181 174.941 443.264C176.157 442.347 178.024 441.888 180.541 441.888H184.509C184.509 440.8 184.178 439.968 183.517 439.392C182.856 438.795 181.864 438.496 180.541 438.496C179.624 438.496 178.717 438.645 177.821 438.944C176.946 439.221 176.2 439.605 175.581 440.096L173.789 436.608C174.728 435.947 175.848 435.435 177.149 435.072C178.472 434.709 179.826 434.528 181.213 434.528ZM180.829 448.896C181.682 448.896 182.44 448.704 183.101 448.32C183.762 447.915 184.232 447.328 184.509 446.56V444.8H181.085C179.037 444.8 178.013 445.472 178.013 446.816C178.013 447.456 178.258 447.968 178.749 448.352C179.261 448.715 179.954 448.896 180.829 448.896ZM209.134 434.784V452H204.686V447.072H201.006L197.742 452H192.43L196.366 446.368C195.171 445.899 194.254 445.227 193.614 444.352C192.995 443.456 192.686 442.379 192.686 441.12C192.686 439.093 193.411 437.536 194.862 436.448C196.334 435.339 198.35 434.784 200.91 434.784H209.134ZM201.006 438.848C199.939 438.848 199.128 439.04 198.574 439.424C198.04 439.808 197.774 440.427 197.774 441.28C197.774 442.133 198.03 442.763 198.542 443.168C199.075 443.552 199.875 443.744 200.942 443.744H204.686V438.848H201.006ZM82.552 482.008C84.5787 482.691 85.592 484.056 85.592 486.104C85.592 487.661 85.0053 488.867 83.832 489.72C82.6587 490.573 80.9093 491 78.584 491H69.4V473.784H78.2C80.3547 473.784 82.04 474.179 83.256 474.968C84.472 475.736 85.08 476.824 85.08 478.232C85.08 479.085 84.856 479.843 84.408 480.504C83.9813 481.144 83.3627 481.645 82.552 482.008ZM73.976 480.856H77.752C79.5013 480.856 80.376 480.237 80.376 479C80.376 477.784 79.5013 477.176 77.752 477.176H73.976V480.856ZM78.168 487.608C80.0027 487.608 80.92 486.979 80.92 485.72C80.92 485.059 80.7067 484.579 80.28 484.28C79.8533 483.96 79.1813 483.8 78.264 483.8H73.976V487.608H78.168ZM89.3063 473.784H94.2663V484.024L102.65 473.784H107.226V491H102.266V480.76L93.9143 491H89.3063V473.784ZM119.609 484.472H117.017V491H112.025V473.784H117.017V480.472H119.705L124.377 473.784H129.689L123.673 482.04L130.105 491H124.217L119.609 484.472ZM146.864 477.88H141.04V491H136.08V477.88H130.256V473.784H146.864V477.88ZM156.87 491.256C155.057 491.256 153.425 490.883 151.974 490.136C150.545 489.368 149.425 488.312 148.614 486.968C147.804 485.624 147.398 484.099 147.398 482.392C147.398 480.685 147.804 479.16 148.614 477.816C149.425 476.472 150.545 475.427 151.974 474.68C153.425 473.912 155.057 473.528 156.87 473.528C158.684 473.528 160.305 473.912 161.734 474.68C163.164 475.427 164.284 476.472 165.094 477.816C165.905 479.16 166.31 480.685 166.31 482.392C166.31 484.099 165.905 485.624 165.094 486.968C164.284 488.312 163.164 489.368 161.734 490.136C160.305 490.883 158.684 491.256 156.87 491.256ZM156.87 487.16C158.15 487.16 159.196 486.733 160.006 485.88C160.838 485.005 161.254 483.843 161.254 482.392C161.254 480.941 160.838 479.789 160.006 478.936C159.196 478.061 158.15 477.624 156.87 477.624C155.59 477.624 154.534 478.061 153.702 478.936C152.87 479.789 152.454 480.941 152.454 482.392C152.454 483.843 152.87 485.005 153.702 485.88C154.534 486.733 155.59 487.16 156.87 487.16ZM179.888 473.528C181.488 473.528 182.938 473.901 184.24 474.648C185.562 475.373 186.597 476.408 187.344 477.752C188.09 479.075 188.464 480.621 188.464 482.392C188.464 484.163 188.09 485.72 187.344 487.064C186.597 488.387 185.562 489.421 184.24 490.168C182.938 490.893 181.488 491.256 179.888 491.256C177.69 491.256 175.962 490.563 174.704 489.176V497.208H169.712V473.784H174.48V475.768C175.717 474.275 177.52 473.528 179.888 473.528ZM179.024 487.16C180.304 487.16 181.349 486.733 182.16 485.88C182.992 485.005 183.408 483.843 183.408 482.392C183.408 480.941 182.992 479.789 182.16 478.936C181.349 478.061 180.304 477.624 179.024 477.624C177.744 477.624 176.688 478.061 175.856 478.936C175.045 479.789 174.64 480.941 174.64 482.392C174.64 483.843 175.045 485.005 175.856 485.88C176.688 486.733 177.744 487.16 179.024 487.16ZM191.963 473.784H196.923V484.024L205.307 473.784H209.883V491H204.923V480.76L196.571 491H191.963V473.784ZM214.681 473.784H219.641V480.504H227.129V473.784H232.121V491H227.129V484.568H219.641V491H214.681V473.784ZM243.588 473.528C246.255 473.528 248.303 474.168 249.732 475.448C251.161 476.707 251.876 478.616 251.876 481.176V491H247.204V488.856C246.265 490.456 244.516 491.256 241.956 491.256C240.633 491.256 239.481 491.032 238.5 490.584C237.54 490.136 236.804 489.517 236.292 488.728C235.78 487.939 235.524 487.043 235.524 486.04C235.524 484.44 236.121 483.181 237.316 482.264C238.532 481.347 240.399 480.888 242.916 480.888H246.884C246.884 479.8 246.553 478.968 245.892 478.392C245.231 477.795 244.239 477.496 242.916 477.496C241.999 477.496 241.092 477.645 240.196 477.944C239.321 478.221 238.575 478.605 237.956 479.096L236.164 475.608C237.103 474.947 238.223 474.435 239.524 474.072C240.847 473.709 242.201 473.528 243.588 473.528ZM243.204 487.896C244.057 487.896 244.815 487.704 245.476 487.32C246.137 486.915 246.607 486.328 246.884 485.56V483.8H243.46C241.412 483.8 240.388 484.472 240.388 485.816C240.388 486.456 240.633 486.968 241.124 487.352C241.636 487.715 242.329 487.896 243.204 487.896Z" fill="#202027"/>
</g>
<defs>
<filter id="filter0_d_14_3767" x="0.316187" y="0.928482" width="447.368" height="581.368" filterUnits="userSpaceOnUse" color-interpolation-filters="sRGB">
<feFlood flood-opacity="0" result="BackgroundImageFix"/>
<feColorMatrix in="SourceAlpha" type="matrix" values="0 0 0 0 0 0 0 0 0 0 0 0 0 0 0 0 0 0 127 0" result="hardAlpha"/>
<feMorphology radius="7.56738" operator="erode" in="SourceAlpha" result="effect1_dropShadow_14_3767"/>
<feOffset dy="12.6123"/>
<feGaussianBlur stdDeviation="21.1256"/>
<feComposite in2="hardAlpha" operator="out"/>
<feColorMatrix type="matrix" values="0 0 0 0 0 0 0 0 0 0 0 0 0 0 0 0 0 0 0.13 0"/>
<feBlend mode="normal" in2="BackgroundImageFix" result="effect1_dropShadow_14_3767"/>
<feBlend mode="normal" in="SourceGraphic" in2="effect1_dropShadow_14_3767" result="shape"/>
</filter>
<filter id="filter1_d_14_3767" x="97.4368" y="50.6624" width="252.119" height="289.303" filterUnits="userSpaceOnUse" color-interpolation-filters="sRGB">
<feFlood flood-opacity="0" result="BackgroundImageFix"/>
<feColorMatrix in="SourceAlpha" type="matrix" values="0 0 0 0 0 0 0 0 0 0 0 0 0 0 0 0 0 0 127 0" result="hardAlpha"/>
<feMorphology radius="9.15954" operator="erode" in="SourceAlpha" result="effect1_dropShadow_14_3767"/>
<feOffset dy="15.2659"/>
<feGaussianBlur stdDeviation="25.5704"/>
<feComposite in2="hardAlpha" operator="out"/>
<feColorMatrix type="matrix" values="0 0 0 0 0 0 0 0 0 0 0 0 0 0 0 0 0 0 0.3 0"/>
<feBlend mode="normal" in2="BackgroundImageFix" result="effect1_dropShadow_14_3767"/>
<feBlend mode="normal" in="SourceGraphic" in2="effect1_dropShadow_14_3767" result="shape"/>
</filter>
<clipPath id="clip0_14_3767">
<rect x="35" y="23" width="378" height="314" rx="30" fill="white"/>
</clipPath>
</defs>
</svg>
