<svg width="448" height="622" viewBox="0 0 448 622" fill="none" xmlns="http://www.w3.org/2000/svg">
<g filter="url(#filter0_d_14_3951)">
<rect x="35" y="23" width="378" height="551" rx="30" fill="white" shape-rendering="crispEdges"/>
<g clip-path="url(#clip0_14_3951)">
<rect x="35" y="23" width="378" height="314" rx="30" fill="#271A58"/>
<rect x="0.202599" y="0.28958" width="100.967" height="100.967" rx="18.775" transform="matrix(0.984808 0.173648 -0.174411 0.984673 48.5731 -73.0171)" fill="#D9B6FF"/>
<rect x="0.202599" y="0.28958" width="100.967" height="100.967" rx="18.775" transform="matrix(0.984808 0.173648 -0.174411 0.984673 48.5731 -73.0171)" stroke="#271A58" stroke-width="0.5"/>
<rect x="0.202599" y="0.28958" width="100.967" height="100.967" rx="18.775" transform="matrix(0.984808 0.173648 -0.174411 0.984673 156.07 -54.0625)" fill="#1FA46C"/>
<rect x="0.202599" y="0.28958" width="100.967" height="100.967" rx="18.775" transform="matrix(0.984808 0.173648 -0.174411 0.984673 156.07 -54.0625)" stroke="#271A58" stroke-width="0.5"/>
<rect x="0.202599" y="0.28958" width="100.967" height="100.967" rx="18.775" transform="matrix(0.984808 0.173648 -0.174411 0.984673 263.567 -35.1079)" fill="#565EEF"/>
<rect x="0.202599" y="0.28958" width="100.967" height="100.967" rx="18.775" transform="matrix(0.984808 0.173648 -0.174411 0.984673 263.567 -35.1079)" stroke="#271A58" stroke-width="0.5"/>
<rect x="0.202599" y="0.28958" width="100.967" height="100.967" rx="18.775" transform="matrix(0.984808 0.173648 -0.174411 0.984673 371.064 -16.1533)" fill="#00C1FF"/>
<rect x="0.202599" y="0.28958" width="100.967" height="100.967" rx="18.775" transform="matrix(0.984808 0.173648 -0.174411 0.984673 371.064 -16.1533)" stroke="#271A58" stroke-width="0.5"/>
<rect x="0.202599" y="0.28958" width="100.967" height="100.967" rx="18.775" transform="matrix(0.984808 0.173648 -0.174411 0.984673 29.6327 34.4024)" fill="#F25050"/>
<rect x="0.202599" y="0.28958" width="100.967" height="100.967" rx="18.775" transform="matrix(0.984808 0.173648 -0.174411 0.984673 29.6327 34.4024)" stroke="#271A58" stroke-width="0.5"/>
<rect x="0.202599" y="0.28958" width="100.967" height="100.967" rx="18.775" transform="matrix(0.984808 0.173648 -0.174411 0.984673 137.13 53.357)" fill="#FFC700"/>
<rect x="0.202599" y="0.28958" width="100.967" height="100.967" rx="18.775" transform="matrix(0.984808 0.173648 -0.174411 0.984673 137.13 53.357)" stroke="#271A58" stroke-width="0.5"/>
<rect x="0.202599" y="0.28958" width="100.967" height="100.967" rx="18.775" transform="matrix(0.984808 0.173648 -0.174411 0.984673 244.626 72.3115)" fill="#99D100"/>
<rect x="0.202599" y="0.28958" width="100.967" height="100.967" rx="18.775" transform="matrix(0.984808 0.173648 -0.174411 0.984673 244.626 72.3115)" stroke="#271A58" stroke-width="0.5"/>
<rect x="0.202599" y="0.28958" width="100.967" height="100.967" rx="18.775" transform="matrix(0.984808 0.173648 -0.174411 0.984673 352.123 91.2663)" fill="#AD61FF"/>
<rect x="0.202599" y="0.28958" width="100.967" height="100.967" rx="18.775" transform="matrix(0.984808 0.173648 -0.174411 0.984673 352.123 91.2663)" stroke="#271A58" stroke-width="0.5"/>
<rect x="0.202599" y="0.28958" width="100.967" height="100.967" rx="18.775" transform="matrix(0.984808 0.173648 -0.174411 0.984673 10.6913 141.822)" fill="#565EEF"/>
<rect x="0.202599" y="0.28958" width="100.967" height="100.967" rx="18.775" transform="matrix(0.984808 0.173648 -0.174411 0.984673 10.6913 141.822)" stroke="#271A58" stroke-width="0.5"/>
<rect x="0.202599" y="0.28958" width="100.967" height="100.967" rx="18.775" transform="matrix(0.984808 0.173648 -0.174411 0.984673 118.188 160.777)" fill="#00C1FF"/>
<rect x="0.202599" y="0.28958" width="100.967" height="100.967" rx="18.775" transform="matrix(0.984808 0.173648 -0.174411 0.984673 118.188 160.777)" stroke="#271A58" stroke-width="0.5"/>
<rect x="0.202599" y="0.28958" width="100.967" height="100.967" rx="18.775" transform="matrix(0.984808 0.173648 -0.174411 0.984673 225.685 179.731)" fill="#FF6D00"/>
<rect x="0.202599" y="0.28958" width="100.967" height="100.967" rx="18.775" transform="matrix(0.984808 0.173648 -0.174411 0.984673 225.685 179.731)" stroke="#271A58" stroke-width="0.5"/>
<rect x="0.202599" y="0.28958" width="100.967" height="100.967" rx="18.775" transform="matrix(0.984808 0.173648 -0.174411 0.984673 333.182 198.686)" fill="#1FA46C"/>
<rect x="0.202599" y="0.28958" width="100.967" height="100.967" rx="18.775" transform="matrix(0.984808 0.173648 -0.174411 0.984673 333.182 198.686)" stroke="#271A58" stroke-width="0.5"/>
<rect x="0.202599" y="0.28958" width="100.967" height="100.967" rx="18.775" transform="matrix(0.984808 0.173648 -0.174411 0.984673 -8.24915 249.241)" fill="#AD61FF"/>
<rect x="0.202599" y="0.28958" width="100.967" height="100.967" rx="18.775" transform="matrix(0.984808 0.173648 -0.174411 0.984673 -8.24915 249.241)" stroke="#271A58" stroke-width="0.5"/>
<rect x="0.202599" y="0.28958" width="100.967" height="100.967" rx="18.775" transform="matrix(0.984808 0.173648 -0.174411 0.984673 99.2479 268.196)" fill="#99D100"/>
<rect x="0.202599" y="0.28958" width="100.967" height="100.967" rx="18.775" transform="matrix(0.984808 0.173648 -0.174411 0.984673 99.2479 268.196)" stroke="#271A58" stroke-width="0.5"/>
<rect x="0.202599" y="0.28958" width="100.967" height="100.967" rx="18.775" transform="matrix(0.984808 0.173648 -0.174411 0.984673 206.744 287.15)" fill="#FFC700"/>
<rect x="0.202599" y="0.28958" width="100.967" height="100.967" rx="18.775" transform="matrix(0.984808 0.173648 -0.174411 0.984673 206.744 287.15)" stroke="#271A58" stroke-width="0.5"/>
<rect x="0.202599" y="0.28958" width="100.967" height="100.967" rx="18.775" transform="matrix(0.984808 0.173648 -0.174411 0.984673 314.241 306.105)" fill="#D9B6FF"/>
<rect x="0.202599" y="0.28958" width="100.967" height="100.967" rx="18.775" transform="matrix(0.984808 0.173648 -0.174411 0.984673 314.241 306.105)" stroke="#271A58" stroke-width="0.5"/>
</g>
<rect x="67" y="369" width="107" height="36" rx="18" fill="#F7F7F7"/>
<path d="M84.744 380.8H86.328V389.44L92.952 380.8H94.424V392H92.856V383.376L86.216 392H84.744V380.8ZM103.9 384.864H99.1959V392H97.6599V383.52H103.9V384.864ZM109.968 383.44C110.79 383.44 111.526 383.621 112.176 383.984C112.827 384.347 113.334 384.853 113.696 385.504C114.07 386.155 114.256 386.907 114.256 387.76C114.256 388.613 114.07 389.371 113.696 390.032C113.334 390.683 112.827 391.189 112.176 391.552C111.526 391.915 110.79 392.096 109.968 392.096C109.36 392.096 108.8 391.979 108.288 391.744C107.787 391.509 107.36 391.168 107.008 390.72V395.104H105.472V383.52H106.944V384.864C107.286 384.395 107.718 384.043 108.24 383.808C108.763 383.563 109.339 383.44 109.968 383.44ZM109.84 390.752C110.384 390.752 110.87 390.629 111.296 390.384C111.734 390.128 112.075 389.776 112.32 389.328C112.576 388.869 112.704 388.347 112.704 387.76C112.704 387.173 112.576 386.656 112.32 386.208C112.075 385.749 111.734 385.397 111.296 385.152C110.87 384.907 110.384 384.784 109.84 384.784C109.307 384.784 108.822 384.912 108.384 385.168C107.958 385.413 107.616 385.76 107.36 386.208C107.115 386.656 106.992 387.173 106.992 387.76C106.992 388.347 107.115 388.869 107.36 389.328C107.606 389.776 107.947 390.128 108.384 390.384C108.822 390.629 109.307 390.752 109.84 390.752ZM119.434 383.44C120.607 383.44 121.503 383.728 122.122 384.304C122.751 384.88 123.066 385.739 123.066 386.88V392H121.61V390.88C121.354 391.275 120.986 391.579 120.506 391.792C120.037 391.995 119.477 392.096 118.826 392.096C117.877 392.096 117.114 391.867 116.538 391.408C115.973 390.949 115.69 390.347 115.69 389.6C115.69 388.853 115.962 388.256 116.506 387.808C117.05 387.349 117.914 387.12 119.098 387.12H121.53V386.816C121.53 386.155 121.338 385.648 120.954 385.296C120.57 384.944 120.005 384.768 119.258 384.768C118.757 384.768 118.266 384.853 117.786 385.024C117.306 385.184 116.901 385.403 116.57 385.68L115.93 384.528C116.367 384.176 116.89 383.909 117.498 383.728C118.106 383.536 118.751 383.44 119.434 383.44ZM119.082 390.912C119.669 390.912 120.175 390.784 120.602 390.528C121.029 390.261 121.338 389.888 121.53 389.408V388.224H119.162C117.861 388.224 117.21 388.661 117.21 389.536C117.21 389.963 117.375 390.299 117.706 390.544C118.037 390.789 118.495 390.912 119.082 390.912ZM144.257 385.872C143.713 385.872 143.222 385.76 142.785 385.536C142.358 385.312 142.022 385.003 141.777 384.608C141.531 384.213 141.409 383.771 141.409 383.28C141.409 382.789 141.531 382.347 141.777 381.952C142.022 381.557 142.358 381.253 142.785 381.04C143.222 380.816 143.713 380.704 144.257 380.704C144.801 380.704 145.286 380.816 145.713 381.04C146.15 381.253 146.486 381.557 146.721 381.952C146.966 382.347 147.089 382.789 147.089 383.28C147.089 383.771 146.966 384.213 146.721 384.608C146.486 385.003 146.15 385.312 145.713 385.536C145.286 385.76 144.801 385.872 144.257 385.872ZM138.353 380.8H139.953V392H138.641L131.921 383.648V392H130.321V380.8H131.633L138.353 389.152V380.8ZM144.257 381.616C143.723 381.616 143.291 381.771 142.961 382.08C142.641 382.389 142.481 382.789 142.481 383.28C142.481 383.771 142.646 384.171 142.977 384.48C143.307 384.789 143.734 384.944 144.257 384.944C144.779 384.944 145.201 384.789 145.521 384.48C145.851 384.171 146.017 383.771 146.017 383.28C146.017 382.789 145.851 382.389 145.521 382.08C145.201 381.771 144.779 381.616 144.257 381.616ZM141.729 387.136H146.785V388.176H141.729V387.136ZM153.616 385.2C154.352 385.2 155.008 385.339 155.584 385.616C156.17 385.893 156.629 386.293 156.96 386.816C157.29 387.328 157.456 387.92 157.456 388.592C157.456 389.296 157.28 389.915 156.928 390.448C156.586 390.981 156.112 391.397 155.504 391.696C154.906 391.984 154.234 392.128 153.488 392.128C151.984 392.128 150.821 391.643 150 390.672C149.189 389.701 148.784 388.325 148.784 386.544C148.784 385.296 149.002 384.235 149.44 383.36C149.888 382.475 150.506 381.808 151.296 381.36C152.096 380.901 153.024 380.672 154.08 380.672C154.624 380.672 155.136 380.731 155.616 380.848C156.096 380.955 156.512 381.115 156.864 381.328L156.256 382.576C155.722 382.224 155.008 382.048 154.112 382.048C152.949 382.048 152.037 382.411 151.376 383.136C150.714 383.851 150.384 384.896 150.384 386.272C150.384 386.443 150.389 386.576 150.4 386.672C150.72 386.192 151.157 385.829 151.712 385.584C152.277 385.328 152.912 385.2 153.616 385.2ZM153.424 390.832C154.16 390.832 154.757 390.635 155.216 390.24C155.674 389.845 155.904 389.317 155.904 388.656C155.904 387.995 155.669 387.472 155.2 387.088C154.741 386.693 154.122 386.496 153.344 386.496C152.842 386.496 152.394 386.592 152 386.784C151.616 386.976 151.312 387.237 151.088 387.568C150.874 387.899 150.768 388.267 150.768 388.672C150.768 389.067 150.869 389.429 151.072 389.76C151.285 390.08 151.589 390.341 151.984 390.544C152.389 390.736 152.869 390.832 153.424 390.832Z" fill="#202027"/>
<path d="M85.56 433.824H74.904L74.936 452H69.784V429.6H85.592L85.56 433.824ZM100.636 443.456C100.636 443.52 100.604 443.968 100.54 444.8H87.516C87.7507 445.867 88.3053 446.709 89.18 447.328C90.0547 447.947 91.1427 448.256 92.444 448.256C93.34 448.256 94.1293 448.128 94.812 447.872C95.516 447.595 96.1667 447.168 96.764 446.592L99.42 449.472C97.7987 451.328 95.4307 452.256 92.316 452.256C90.3747 452.256 88.6573 451.883 87.164 451.136C85.6707 450.368 84.5187 449.312 83.708 447.968C82.8973 446.624 82.492 445.099 82.492 443.392C82.492 441.707 82.8867 440.192 83.676 438.848C84.4867 437.483 85.5853 436.427 86.972 435.68C88.38 434.912 89.948 434.528 91.676 434.528C93.3613 434.528 94.8867 434.891 96.252 435.616C97.6173 436.341 98.684 437.387 99.452 438.752C100.241 440.096 100.636 441.664 100.636 443.456ZM91.708 438.304C90.5773 438.304 89.628 438.624 88.86 439.264C88.092 439.904 87.6227 440.779 87.452 441.888H95.932C95.7613 440.8 95.292 439.936 94.524 439.296C93.756 438.635 92.8173 438.304 91.708 438.304ZM104.463 434.784H109.423V441.504H116.911V434.784H121.903V452H116.911V445.568H109.423V452H104.463V434.784ZM143.417 443.456C143.417 443.52 143.385 443.968 143.321 444.8H130.297C130.532 445.867 131.087 446.709 131.961 447.328C132.836 447.947 133.924 448.256 135.225 448.256C136.121 448.256 136.911 448.128 137.593 447.872C138.297 447.595 138.948 447.168 139.545 446.592L142.201 449.472C140.58 451.328 138.212 452.256 135.097 452.256C133.156 452.256 131.439 451.883 129.945 451.136C128.452 450.368 127.3 449.312 126.489 447.968C125.679 446.624 125.273 445.099 125.273 443.392C125.273 441.707 125.668 440.192 126.457 438.848C127.268 437.483 128.367 436.427 129.753 435.68C131.161 434.912 132.729 434.528 134.457 434.528C136.143 434.528 137.668 434.891 139.033 435.616C140.399 436.341 141.465 437.387 142.233 438.752C143.023 440.096 143.417 441.664 143.417 443.456ZM134.489 438.304C133.359 438.304 132.409 438.624 131.641 439.264C130.873 439.904 130.404 440.779 130.233 441.888H138.713C138.543 440.8 138.073 439.936 137.305 439.296C136.537 438.635 135.599 438.304 134.489 438.304ZM157.388 434.528C158.988 434.528 160.438 434.901 161.74 435.648C163.062 436.373 164.097 437.408 164.844 438.752C165.59 440.075 165.964 441.621 165.964 443.392C165.964 445.163 165.59 446.72 164.844 448.064C164.097 449.387 163.062 450.421 161.74 451.168C160.438 451.893 158.988 452.256 157.388 452.256C155.19 452.256 153.462 451.563 152.204 450.176V458.208H147.212V434.784H151.98V436.768C153.217 435.275 155.02 434.528 157.388 434.528ZM156.524 448.16C157.804 448.16 158.849 447.733 159.66 446.88C160.492 446.005 160.908 444.843 160.908 443.392C160.908 441.941 160.492 440.789 159.66 439.936C158.849 439.061 157.804 438.624 156.524 438.624C155.244 438.624 154.188 439.061 153.356 439.936C152.545 440.789 152.14 441.941 152.14 443.392C152.14 444.843 152.545 446.005 153.356 446.88C154.188 447.733 155.244 448.16 156.524 448.16ZM175.869 434.528C178.536 434.528 180.584 435.168 182.013 436.448C183.443 437.707 184.157 439.616 184.157 442.176V452H179.485V449.856C178.547 451.456 176.797 452.256 174.237 452.256C172.915 452.256 171.763 452.032 170.781 451.584C169.821 451.136 169.085 450.517 168.573 449.728C168.061 448.939 167.805 448.043 167.805 447.04C167.805 445.44 168.403 444.181 169.597 443.264C170.813 442.347 172.68 441.888 175.197 441.888H179.165C179.165 440.8 178.835 439.968 178.173 439.392C177.512 438.795 176.52 438.496 175.197 438.496C174.28 438.496 173.373 438.645 172.477 438.944C171.603 439.221 170.856 439.605 170.237 440.096L168.445 436.608C169.384 435.947 170.504 435.435 171.805 435.072C173.128 434.709 174.483 434.528 175.869 434.528ZM175.485 448.896C176.339 448.896 177.096 448.704 177.757 448.32C178.419 447.915 178.888 447.328 179.165 446.56V444.8H175.741C173.693 444.8 172.669 445.472 172.669 446.816C172.669 447.456 172.915 447.968 173.405 448.352C173.917 448.715 174.611 448.896 175.485 448.896ZM202.958 438.88H197.134V452H192.174V438.88H186.35V434.784H202.958V438.88ZM212.964 452.256C211.151 452.256 209.519 451.883 208.068 451.136C206.639 450.368 205.519 449.312 204.708 447.968C203.897 446.624 203.492 445.099 203.492 443.392C203.492 441.685 203.897 440.16 204.708 438.816C205.519 437.472 206.639 436.427 208.068 435.68C209.519 434.912 211.151 434.528 212.964 434.528C214.777 434.528 216.399 434.912 217.828 435.68C219.257 436.427 220.377 437.472 221.188 438.816C221.999 440.16 222.404 441.685 222.404 443.392C222.404 445.099 221.999 446.624 221.188 447.968C220.377 449.312 219.257 450.368 217.828 451.136C216.399 451.883 214.777 452.256 212.964 452.256ZM212.964 448.16C214.244 448.16 215.289 447.733 216.1 446.88C216.932 446.005 217.348 444.843 217.348 443.392C217.348 441.941 216.932 440.789 216.1 439.936C215.289 439.061 214.244 438.624 212.964 438.624C211.684 438.624 210.628 439.061 209.796 439.936C208.964 440.789 208.548 441.941 208.548 443.392C208.548 444.843 208.964 446.005 209.796 446.88C210.628 447.733 211.684 448.16 212.964 448.16ZM235.982 434.528C237.582 434.528 239.032 434.901 240.333 435.648C241.656 436.373 242.691 437.408 243.438 438.752C244.184 440.075 244.558 441.621 244.558 443.392C244.558 445.163 244.184 446.72 243.438 448.064C242.691 449.387 241.656 450.421 240.333 451.168C239.032 451.893 237.582 452.256 235.982 452.256C233.784 452.256 232.056 451.563 230.798 450.176V458.208H225.806V434.784H230.574V436.768C231.811 435.275 233.614 434.528 235.982 434.528ZM235.118 448.16C236.398 448.16 237.443 447.733 238.254 446.88C239.086 446.005 239.502 444.843 239.502 443.392C239.502 441.941 239.086 440.789 238.254 439.936C237.443 439.061 236.398 438.624 235.118 438.624C233.838 438.624 232.782 439.061 231.95 439.936C231.139 440.789 230.734 441.941 230.734 443.392C230.734 444.843 231.139 446.005 231.95 446.88C232.782 447.733 233.838 448.16 235.118 448.16ZM77.592 491.256C75.7573 491.256 74.104 490.883 72.632 490.136C71.1813 489.368 70.04 488.312 69.208 486.968C68.3973 485.624 67.992 484.099 67.992 482.392C67.992 480.685 68.3973 479.16 69.208 477.816C70.04 476.472 71.1813 475.427 72.632 474.68C74.104 473.912 75.7573 473.528 77.592 473.528C79.4053 473.528 80.984 473.912 82.328 474.68C83.6933 475.427 84.6853 476.504 85.304 477.912L81.432 479.992C80.536 478.413 79.2453 477.624 77.56 477.624C76.2587 477.624 75.1813 478.051 74.328 478.904C73.4747 479.757 73.048 480.92 73.048 482.392C73.048 483.864 73.4747 485.027 74.328 485.88C75.1813 486.733 76.2587 487.16 77.56 487.16C79.2667 487.16 80.5573 486.371 81.432 484.792L85.304 486.904C84.6853 488.269 83.6933 489.336 82.328 490.104C80.984 490.872 79.4053 491.256 77.592 491.256ZM104.6 473.784V491H99.6075V477.88H94.1675L94.0075 480.92C93.9222 483.181 93.7088 485.059 93.3675 486.552C93.0262 488.045 92.4715 489.219 91.7035 490.072C90.9355 490.925 89.8688 491.352 88.5035 491.352C87.7782 491.352 86.9142 491.224 85.9115 490.968L86.1675 486.872C86.5088 486.915 86.7542 486.936 86.9035 486.936C87.6502 486.936 88.2048 486.669 88.5675 486.136C88.9515 485.581 89.2075 484.888 89.3355 484.056C89.4635 483.203 89.5595 482.083 89.6235 480.696L89.8795 473.784H104.6ZM126.648 473.784L118.872 492.056C118.083 494.04 117.101 495.437 115.928 496.248C114.776 497.059 113.379 497.464 111.736 497.464C110.84 497.464 109.955 497.325 109.08 497.048C108.205 496.771 107.491 496.387 106.936 495.896L108.76 492.344C109.144 492.685 109.581 492.952 110.072 493.144C110.584 493.336 111.085 493.432 111.576 493.432C112.259 493.432 112.813 493.261 113.24 492.92C113.667 492.6 114.051 492.056 114.392 491.288L114.456 491.128L107 473.784H112.152L116.984 485.464L121.848 473.784H126.648ZM144.544 473.784V491H139.552V484.6C138.102 485.325 136.502 485.688 134.752 485.688C132.427 485.688 130.667 485.165 129.472 484.12C128.299 483.053 127.712 481.411 127.712 479.192V473.784H132.704V478.872C132.704 479.917 132.971 480.675 133.504 481.144C134.059 481.613 134.848 481.848 135.872 481.848C137.174 481.848 138.4 481.571 139.552 481.016V473.784H144.544ZM156.026 473.528C158.692 473.528 160.74 474.168 162.17 475.448C163.599 476.707 164.314 478.616 164.314 481.176V491H159.642V488.856C158.703 490.456 156.954 491.256 154.394 491.256C153.071 491.256 151.919 491.032 150.938 490.584C149.978 490.136 149.242 489.517 148.73 488.728C148.218 487.939 147.962 487.043 147.962 486.04C147.962 484.44 148.559 483.181 149.754 482.264C150.97 481.347 152.836 480.888 155.354 480.888H159.322C159.322 479.8 158.991 478.968 158.33 478.392C157.668 477.795 156.676 477.496 155.354 477.496C154.436 477.496 153.53 477.645 152.634 477.944C151.759 478.221 151.012 478.605 150.394 479.096L148.602 475.608C149.54 474.947 150.66 474.435 151.962 474.072C153.284 473.709 154.639 473.528 156.026 473.528ZM155.642 487.896C156.495 487.896 157.252 487.704 157.914 487.32C158.575 486.915 159.044 486.328 159.322 485.56V483.8H155.898C153.85 483.8 152.826 484.472 152.826 485.816C152.826 486.456 153.071 486.968 153.562 487.352C154.074 487.715 154.767 487.896 155.642 487.896ZM168.65 473.784H173.61V484.024L181.994 473.784H186.57V491H181.61V480.76L173.258 491H168.65V473.784ZM177.29 471.928C173.535 471.928 171.647 470.275 171.626 466.968H174.89C174.911 467.715 175.114 468.301 175.498 468.728C175.903 469.133 176.49 469.336 177.258 469.336C178.026 469.336 178.613 469.133 179.018 468.728C179.445 468.301 179.658 467.715 179.658 466.968H182.986C182.965 470.275 181.066 471.928 177.29 471.928ZM191.369 473.784H196.329V480.504H203.817V473.784H208.809V491H203.817V484.568H196.329V491H191.369V473.784ZM222.644 479.288C224.884 479.309 226.58 479.811 227.732 480.792C228.884 481.773 229.46 483.181 229.46 485.016C229.46 486.936 228.809 488.419 227.508 489.464C226.206 490.509 224.361 491.032 221.972 491.032L213.588 491V473.784H218.548V479.288H222.644ZM231.316 473.784H236.276V491H231.316V473.784ZM221.524 487.48C222.484 487.501 223.22 487.299 223.732 486.872C224.244 486.445 224.5 485.805 224.5 484.952C224.5 484.12 224.244 483.512 223.732 483.128C223.241 482.744 222.505 482.541 221.524 482.52L218.548 482.488V487.48H221.524ZM251.904 491L248.128 485.72L244.224 491H238.784L245.408 482.328L239.008 473.784H244.608L248.256 478.808L252 473.784H257.312L250.912 482.2L257.568 491H251.904ZM88.792 525.904V533.776H84.152V530H69.4V512.784H74.36V525.904H81.304V512.784H86.296V525.904H88.792ZM105.083 521.008C107.11 521.691 108.123 523.056 108.123 525.104C108.123 526.661 107.537 527.867 106.363 528.72C105.19 529.573 103.441 530 101.115 530H91.9313V512.784H100.731C102.886 512.784 104.571 513.179 105.787 513.968C107.003 514.736 107.611 515.824 107.611 517.232C107.611 518.085 107.387 518.843 106.939 519.504C106.513 520.144 105.894 520.645 105.083 521.008ZM96.5073 519.856H100.283C102.033 519.856 102.907 519.237 102.907 518C102.907 516.784 102.033 516.176 100.283 516.176H96.5073V519.856ZM100.699 526.608C102.534 526.608 103.451 525.979 103.451 524.72C103.451 524.059 103.238 523.579 102.811 523.28C102.385 522.96 101.713 522.8 100.795 522.8H96.5073V526.608H100.699ZM128.574 521.456C128.574 521.52 128.542 521.968 128.478 522.8H115.454C115.688 523.867 116.243 524.709 117.118 525.328C117.992 525.947 119.08 526.256 120.382 526.256C121.278 526.256 122.067 526.128 122.75 525.872C123.454 525.595 124.104 525.168 124.702 524.592L127.358 527.472C125.736 529.328 123.368 530.256 120.254 530.256C118.312 530.256 116.595 529.883 115.102 529.136C113.608 528.368 112.456 527.312 111.646 525.968C110.835 524.624 110.43 523.099 110.43 521.392C110.43 519.707 110.824 518.192 111.614 516.848C112.424 515.483 113.523 514.427 114.91 513.68C116.318 512.912 117.886 512.528 119.614 512.528C121.299 512.528 122.824 512.891 124.19 513.616C125.555 514.341 126.622 515.387 127.39 516.752C128.179 518.096 128.574 519.664 128.574 521.456ZM119.646 516.304C118.515 516.304 117.566 516.624 116.798 517.264C116.03 517.904 115.56 518.779 115.39 519.888H123.87C123.699 518.8 123.23 517.936 122.462 517.296C121.694 516.635 120.755 516.304 119.646 516.304ZM146.27 516.88H140.446V530H135.486V516.88H129.662V512.784H146.27V516.88ZM156.277 530.256C154.463 530.256 152.831 529.883 151.381 529.136C149.951 528.368 148.831 527.312 148.021 525.968C147.21 524.624 146.805 523.099 146.805 521.392C146.805 519.685 147.21 518.16 148.021 516.816C148.831 515.472 149.951 514.427 151.381 513.68C152.831 512.912 154.463 512.528 156.277 512.528C158.09 512.528 159.711 512.912 161.141 513.68C162.57 514.427 163.69 515.472 164.501 516.816C165.311 518.16 165.717 519.685 165.717 521.392C165.717 523.099 165.311 524.624 164.501 525.968C163.69 527.312 162.57 528.368 161.141 529.136C159.711 529.883 158.09 530.256 156.277 530.256ZM156.277 526.16C157.557 526.16 158.602 525.733 159.413 524.88C160.245 524.005 160.661 522.843 160.661 521.392C160.661 519.941 160.245 518.789 159.413 517.936C158.602 517.061 157.557 516.624 156.277 516.624C154.997 516.624 153.941 517.061 153.109 517.936C152.277 518.789 151.861 519.941 151.861 521.392C151.861 522.843 152.277 524.005 153.109 524.88C153.941 525.733 154.997 526.16 156.277 526.16ZM182.302 521.008C184.329 521.691 185.342 523.056 185.342 525.104C185.342 526.661 184.755 527.867 183.582 528.72C182.409 529.573 180.659 530 178.334 530H169.15V512.784H177.95C180.105 512.784 181.79 513.179 183.006 513.968C184.222 514.736 184.83 515.824 184.83 517.232C184.83 518.085 184.606 518.843 184.158 519.504C183.731 520.144 183.113 520.645 182.302 521.008ZM173.726 519.856H177.502C179.251 519.856 180.126 519.237 180.126 518C180.126 516.784 179.251 516.176 177.502 516.176H173.726V519.856ZM177.918 526.608C179.753 526.608 180.67 525.979 180.67 524.72C180.67 524.059 180.457 523.579 180.03 523.28C179.603 522.96 178.931 522.8 178.014 522.8H173.726V526.608H177.918Z" fill="#202027"/>
</g>
<defs>
<filter id="filter0_d_14_3951" x="0.316187" y="0.928482" width="447.368" height="620.368" filterUnits="userSpaceOnUse" color-interpolation-filters="sRGB">
<feFlood flood-opacity="0" result="BackgroundImageFix"/>
<feColorMatrix in="SourceAlpha" type="matrix" values="0 0 0 0 0 0 0 0 0 0 0 0 0 0 0 0 0 0 127 0" result="hardAlpha"/>
<feMorphology radius="7.56738" operator="erode" in="SourceAlpha" result="effect1_dropShadow_14_3951"/>
<feOffset dy="12.6123"/>
<feGaussianBlur stdDeviation="21.1256"/>
<feComposite in2="hardAlpha" operator="out"/>
<feColorMatrix type="matrix" values="0 0 0 0 0 0 0 0 0 0 0 0 0 0 0 0 0 0 0.13 0"/>
<feBlend mode="normal" in2="BackgroundImageFix" result="effect1_dropShadow_14_3951"/>
<feBlend mode="normal" in="SourceGraphic" in2="effect1_dropShadow_14_3951" result="shape"/>
</filter>
<clipPath id="clip0_14_3951">
<rect x="35" y="23" width="378" height="314" rx="30" fill="white"/>
</clipPath>
</defs>
</svg>
